<?xml version="1.0" encoding="UTF-8"?>
<svg id="Layer_1" data-name="Layer 1" xmlns="http://www.w3.org/2000/svg" viewBox="0 0 800.16 800">
  <g id="Layer_1-2" data-name="Layer 1">
    <g id="uuid-0ba2b439-8764-41cc-afb7-7329d615a701" data-name="Layer 1-2" data-sanitized-data-name="Layer_1">
      <path d="M683.87,116.13c-27.77-27.77-58.15-50.34-91.99-68.56-6.07-3.47-13.02-.87-15.62,4.34-3.47,6.07,0,13.02,4.34,15.62,32.11,17.36,60.75,39.05,86.79,65.09,26.04,26.04,17.36,18.22,25.17,27.77-33.85-7.81-90.26-16.49-159.68-8.68-12.15,1.74-23.43,3.47-35.58,5.21-16.49-12.15-28.64-26.04-37.32-40.79-13.89-26.9-13.89-67.69,11.28-86.79,20.83,4.34,41.66,9.55,61.62,17.36,6.07,2.6,13.02,0,14.75-6.94,2.6-6.07,0-13.02-6.94-14.75C469.51-1.03,393.14-7.1,318.5,8.52c-76.37,15.62-145.8,53.81-201.34,108.48C41.66,192.5,0,293.17,0,399.92s41.66,207.42,117.16,282.92c75.5,75.5,176.17,117.16,282.92,117.16s207.42-41.66,282.92-117.16c75.5-75.5,117.16-176.17,117.16-282.92s-41.66-207.42-117.16-282.92h.87v-.87ZM533.73,175.15c56.41-6.07,103.27-1.74,132.78,4.34,24.3,4.34,41.66,9.55,48.6,12.15,40.79,60.75,62.49,132.78,62.49,207.42s-1.74,41.66-5.21,61.62c-2.6-28.64-8.68-54.67-16.49-78.97-19.09-55.54-52.94-100.67-99.8-132.78-29.51-20.83-80.71-51.2-116.29-67.69-4.34-1.74-7.81-3.47-11.28-5.21h6.07l-.87-.87ZM323.71,30.21c39.05-7.81,79.84-10.41,118.9-5.21-21.7,29.51-19.96,72.03-4.34,102.41,6.94,13.02,16.49,25.17,28.64,35.58-30.37,6.94-59.01,17.36-88.52,30.37-40.79-67.69-85.92-112.82-122.37-142.33,21.7-8.68,43.39-15.62,66.82-20.83h.87ZM134.52,132.62c29.51-29.51,62.49-52.94,98.94-71.16,38.19,30.37,83.31,73.77,124.97,142.33-6.07,2.6-11.28,6.07-16.49,8.68-23.43,13.02-46.86,27.77-69.43,45.13-7.81-13.89-17.36-26.04-28.64-38.19-20.83-20.83-46.86-36.45-75.5-45.13-19.96-6.07-41.66-8.68-62.49-7.81,9.55-12.15,19.96-23.43,30.37-34.71h-1.74v.87ZM57.28,553.53c19.96-36.45,41.66-71.16,63.35-103.27,3.47-5.21,2.6-13.02-2.6-16.49-5.21-3.47-13.02-2.6-16.49,2.6-19.09,27.77-38.19,57.28-55.54,88.52-13.89-39.92-21.7-82.45-21.7-126.71,0-74.64,21.7-145.8,61.62-206.55,51.2-8.68,104.14,7.81,140.59,43.39,10.41,10.41,19.96,22.56,26.9,35.58-41.66,33.85-81.58,74.64-118.9,121.5-4.34,5.21-3.47,12.15,1.74,16.49,1.74,1.74,4.34,2.6,6.94,2.6s6.94-1.74,9.55-4.34c34.71-43.39,71.16-81.58,110.22-113.69,7.81,25.17,9.55,52.94,4.34,81.58-4.34,25.17-11.28,48.6-18.22,72.03-13.02,46.86-25.17,94.6-25.17,143.2s13.02,113.69,38.19,157.08c-46.86-19.09-90.26-46.86-126.71-83.31-32.98-32.98-59.01-70.3-77.24-111.95v1.74h-.87ZM297.67,760.95c-33.85-43.39-51.2-100.67-51.2-169.23s11.28-91.99,24.3-137.12c6.94-24.3,13.89-48.6,18.22-74.64,6.94-35.58,3.47-70.3-7.81-101.54,22.56-17.36,46-32.11,70.3-46,6.07-3.47,12.15-6.07,18.22-9.55,7.81,14.75,15.62,29.51,23.43,46,56.41,124.97,85.05,292.47,85.92,497.28-25.17,5.21-51.2,7.81-78.11,7.81s-69.43-5.21-102.41-13.89h0l-.87.87ZM667.38,665.48c-46.86,46.86-103.27,78.97-164.89,96.33,0-107.61-8.68-204.81-24.3-290.73-14.75-78.97-35.58-149.27-63.35-210.89-7.81-16.49-15.62-32.11-23.43-46.86,32.98-14.75,65.96-25.17,100.67-32.11,11.28,7.81,24.3,14.75,38.19,20.83,34.71,15.62,84.18,45.13,112.82,65.09,42.52,29.51,73.77,70.3,91.12,121.5,13.89,41.66,19.96,91.99,17.36,149.27-19.09,46.86-46.86,90.26-83.31,126.71h0l-.87.87Z"/>
    </g>
  </g>
</svg>