<?xml version="1.0" encoding="UTF-8"?>
<svg id="Layer_1" data-name="Layer 1" xmlns="http://www.w3.org/2000/svg" viewBox="0 0 800.03 272.64">
  <defs>
    <style>
      .cls-1 {
        fill: #ffc800;
      }
    </style>
  </defs>
  <path class="cls-1" d="M491.94,146.15h-8.49c.25-.68.37-1.21.63-1.65,1.16-2.07,2.37-4.12,3.54-6.19.26-.46.42-.98.72-1.7h-4.53c1.7-3.28,3.27-6.29,4.85-9.35-2.99-2.83-5.51-5.88-7.43-9.4-4.88-8.93-5.38-18.05-1.23-27.37,3.06-6.88,7.73-12.43,14.08-16.5,2.6-1.67,5.41-2.92,8.37-3.82.33-.1.68-.16,1-.3,2.29-.98,2.52-3.04.55-4.54-1.27-.97-2.63-1.87-3.76-2.99-2.66-2.64-4.14-5.92-4.77-9.83-4.72-1.39-9.51-2.79-14.3-4.2.01-.12.03-.24.04-.36,2.76-.69,5.52-1.38,8.29-2.06,1.69-.41,3.38-.89,5.1-1.17,1.47-.23,2.25-.99,2.93-2.29,2.24-4.3,5.68-7.28,10.47-8.34,6.3-1.4,11.38.85,15.39,5.72.66.8,1.22,1.72,1.69,2.65.6,1.19,1.37,1.9,2.77,2.2,3.82.83,7.59,1.86,11.38,2.82.53.13,1.04.33,1.91.62-3.23,1.14-6.12,2.17-9.01,3.19-.39.14-.79.29-1.19.4-2.44.64-4.16,1.61-4.86,4.56-.84,3.58-3.35,6.38-6.48,8.48-.67.45-1.31,1.07-1.73,1.75-1.05,1.72-.48,3.15,1.47,3.71,4.97,1.43,9.48,3.7,13.4,7.11,6.04,5.26,9.77,11.85,11.06,19.7,1.16,7,.58,13.93-1.96,20.63-1.57,4.14-4.03,7.64-7.72,10.43,1.4,2.75,2.79,5.46,4.3,8.42-1.47.07-2.62.12-4,.18,1.04,3.28,2.92,6.06,4.22,9.4h-9.24c1.63,7.8,3.2,15.36,4.82,23.14-2.92.32-5.77-.04-8.68.22-.16,1.31-.35,2.53-.44,3.76-.35,5.22-.65,10.45-1,15.67-.36,5.29-.73,10.57-1.15,15.85-.08.93.08,1.56.87,2.13,3.85,2.78,7.65,5.63,11.56,8.51,3.39-3.51,6.47-7.17,8.72-11.49,1.18-2.25,1.3-4.73,1.38-7.13.3-9.01.47-18.03.59-27.04.15-10.56.3-21.12.27-31.68-.03-12.38-.24-24.75-.41-37.13-.09-6.63-.23-13.27-.42-19.9-.24-8.24-.49-16.48-.86-24.72-.13-2.84-.38-5.73-1.02-8.49-.96-4.1-3.31-7.51-6.24-10.51-1.27-1.3-2.5-2.64-3.73-3.97-.17-.19-.27-.45-.51-.87h82.92c.14,1.92.38,3.84.41,5.76.09,7.84.09,15.67.17,23.51.02,2.08.23,4.17.36,6.23-.93.39-1.27-.26-1.72-.63-3.25-2.63-6.28-5.56-9.99-7.6-3.39-1.87-6.88-3.35-10.75-3.96-5.16-.81-9.74.41-13.65,3.81-4.45,3.86-7.11,8.92-9.15,14.35-.19.51-.19,1.1-.19,1.65v39.9c0,.27.05.55.09,1.04,5.84-.33,11.14-2.19,16.29-4.75,5.28-2.62,8.95-7.08,13.11-11.04.55,1.25.53,11.62.32,15.14-.3,5.02-.3,10.05-.42,15.08-.12,5.07-.22,10.15-.69,15.39-1.88-2.19-3.72-4.42-5.66-6.56-5.92-6.53-13.32-9.99-22.13-10.42-.2,0-.41.06-.76.11-.05.51-.15,1.05-.15,1.58,0,13.3-.26,26.61.09,39.9.21,8.02,3.53,14.82,10.85,18.94,2.08,1.17,4.52,1.9,6.88,2.37,7.14,1.41,13.58-.37,19.22-4.92,1.51-1.22,2.78-2.75,4.15-4.15,1.1-1.12,2.2-2.25,3.3-3.37.16.07.31.13.47.2-.22,12.67-.45,25.34-.67,38.26-3.37.24-6.61-.02-9.9.49,1.14.76,2.29,1.49,3.41,2.28,1.72,1.2,3.48,2.35,5.11,3.67,1.17.94,2.37,1.26,3.85,1.26,29.47-.03,58.93-.03,88.39-.03h19.53c.96,0,1.69-.16,2.37-.96,4.95-5.83,9.23-12.11,13.06-18.72.1-.18.14-.39.24-.66-2.44-1.61-4.93-3.17-7.33-4.84-12.24-8.53-22.14-19.19-29.19-32.39-5.19-9.71-8.4-20.06-9.95-30.95-.94-6.59-1.32-13.21-1.07-19.84.13-3.33.67-6.65,1.02-9.98.05-.48.09-.97.16-1.74-2.96-.12-5.87-.04-8.77-.05-2.94-.01-5.88,0-8.82,0h-17.97c.51-1.1.85-1.91,1.26-2.68,1.79-3.41,3.34-6.92,4.21-10.7.83-3.58.75-7.22.42-10.84-.21-2.28-.57-4.56-.99-6.82-.19-1.01-.61-2.01-1.08-2.94-1.43-2.78-3.79-3.98-6.88-3.82-3.06.16-5.13,1.68-6.17,4.53s-1.46,5.83-1.48,8.84c-.12,14.27-.21,28.55-.29,42.82-.07,12.81-.09,25.61-.16,38.42-.01,2.44-.31,4.88-.23,7.32.07,2.08.32,4.18.79,6.2.77,3.35,2.79,5.58,6.39,6.02,1.99.24,3.69-.29,5.11-1.79,1.7-1.8,2.54-4.03,3.08-6.34.62-2.64,1.07-5.34,1.31-8.04.26-2.84.22-5.71.27-8.57.07-3.87-.96-7.44-2.96-10.74-1.04-1.71-2.04-3.43-3.19-5.36h35.44c.06.5.18,1.02.19,1.55.06,5.25.1,10.49.15,15.74.09,8.32.12,16.64.31,24.96.08,3.35-.52,6.53-1.56,9.66-1.95,5.85-4.9,11.13-9.14,15.62-4.98,5.28-11.08,8.71-18.15,10.29-5.64,1.26-11.35,1.53-17.05.36-6.45-1.32-12.08-4.35-17.04-8.59-5.68-4.85-10.03-10.68-12.5-17.8-.94-2.73-1.45-5.52-1.45-8.42.02-37.38.04-74.75-.01-112.13-.01-7.27,1.81-13.98,5.64-20.09,6.15-9.82,14.73-16.48,26.25-18.55,12.89-2.32,24.37.83,33.93,10.1,4.5,4.37,7.68,9.56,9.97,15.36.83,2.11,1.22,4.27,1.24,6.54.07,10.84.17,21.68.27,32.52,0,.46.09.91.14,1.35,1.08.14,1.07-.59,1.23-1.17,1.25-4.52,2.84-8.91,4.82-13.16,3.34-7.15,7.69-13.62,12.91-19.51,9.08-10.24,20.05-17.97,32.22-24.07,5.44-2.72,11.06-5.05,16.85-6.92.66-.21,1.31-.44,2.19-.74-.89-2.49-1.75-4.89-2.74-7.66,9.3,2.29,18.26,4.76,27.64,7.22-6.21,6.94-12.22,13.67-18.47,20.67-.79-2.85-1.49-5.35-2.27-8.16-.78.42-1.44.74-2.06,1.12-9.33,5.63-17.8,12.36-25.27,20.29-7.69,8.16-13.9,17.31-17.96,27.83-2.32,6.03-3.78,12.26-4.37,18.7-.03.33,0,.67,0,1.11h17.24v-12.61c4.41-.31,8.63-.1,13.02-.14v12.7h2.99c.89-1.77,1.67-3.64,2.73-5.34,2.33-3.74,5.49-6.48,9.92-7.52,4.97-1.17,9.32.12,12.99,3.49,5.62,5.15,7.5,11.8,7.03,19.19-.37,5.84-2.43,11.02-6.76,15.13-.71.67-1.5,1.25-2.4,1.99,1.06,1.18,2.1,2.36,3.15,3.52,3.78,4.17,7.13,8.64,9.03,14,.55,1.57.94,3.22,1.18,4.86.15,1.02.41,1.89,1.08,2.65,2.31,2.62,4.64,5.23,6.95,7.84.25.29.47.61.91,1.2-2.03.07-3.75.15-5.47.2-1.19.03-2.38-.02-3.57.03-1.04.05-1.82.47-2.25,1.53-.52,1.28-1.17,2.51-1.83,3.9-1.17-.88-2.2-1.65-3.36-2.53-1.12,1.34-2.18,2.61-3.44,4.12-1.22-1.96-2.34-3.75-3.76-6.02-2,9.42-5.56,17.72-9.5,26.02,1.16.64,2.23,1.24,3.42,1.9.57-2.04,1.09-3.89,1.69-6.05,6.59,5.72,12.98,11.27,19.69,17.1-9.16,2.22-17.87,4.33-26.99,6.54.76-2.36,1.41-4.38,2.13-6.62-1.86-.89-3.84-1.41-5.86-2.02-2.48,3.79-4.91,7.49-7.54,11.5h37.45c.63,0,1.26-.02,1.89,0,4.84.26,7.51,3.87,7.52,8.17,0,4.36-3.29,7.47-7.88,7.48-16.52.03-33.03,0-49.55,0-.56,0-1.12.03-1.68,0-.76-.05-1.3.26-1.82.81-6.47,6.74-13.63,12.62-21.6,17.49-10.44,6.37-21.68,10.62-33.85,12.21-11.56,1.51-22.82.25-33.82-3.67-11.53-4.11-22.15-9.99-32.36-16.65-4.62-3.01-9.16-6.17-13.71-9.29-.84-.57-1.65-.91-2.7-.91-22.61.03-45.21.02-67.82.03-.28,0-.56.03-.94.06-.89,1.85-1.72,3.76-2.72,5.58-2.39,4.35-5.45,8.11-9.77,10.72-4.65,2.8-9.56,3.27-14.72,1.71-5.33-1.61-10.17-4.28-14.89-7.14-5.44-3.3-10.8-6.73-16.16-10.15-.87-.55-1.72-.8-2.74-.8-22.61.02-45.21,0-67.82,0h-1.39c-1.85,3.01-3.4,5.92-5.32,8.56-2.69,3.71-5.98,6.83-10.21,8.82-4.01,1.89-8.13,2.32-12.44,1.22-4.22-1.08-8.24-2.7-12.07-4.73-8.03-4.25-15.98-8.64-23.94-13.02-1.02-.56-1.99-.87-3.16-.87-24.35.02-48.71,0-73.07,0h-1.77c-.64,1.95-1.08,3.79-1.84,5.48-2.85,6.28-7.99,9.68-14.54,11.19-7.31,1.69-14.25.13-21.1-2.34-10.16-3.66-19.71-8.62-29.26-13.59-.83-.43-1.83-.71-2.76-.72-18.06-.04-36.11-.06-54.17,0-2.21,0-4.42.49-6.63.81-4.41.65-8.76.09-13.12-.57-.96-.14-1.94-.27-2.91-.27-13.72-.02-27.43,0-41.15-.04-1.55,0-2.75.31-3.89,1.48-3.61,3.7-7.31,7.31-11.06,10.87-.93.89-.86,1.67-.59,2.79.84,3.44,1.52,6.91,2.33,10.73-2.25-.65-4.15-1.2-6.05-1.74-.67.79-1.25,1.48-1.8,2.13-.22-.02-.4.02-.48-.05-2.26-2.03-4.64-1.7-7.11-.14-.6-1.08-1.11-1.98-1.73-3.09-1.32.58-2.64,1.15-4.2,1.83-.55-1.34-1.08-2.65-1.68-4.13-1.12.71-2.15,1.36-3.41,2.17-.38-3.34-.73-6.42-1.11-9.77h-9.11c-.05-.16-.1-.31-.16-.47,2.23-1.7,4.46-3.4,6.97-5.32-4.32.25-7.97-.51-10.94-3.26-3-2.79-4.05-6.42-4.23-10.54-.58-.07-1.11-.17-1.63-.2-7.76-.4-12.92-6.52-12.75-13.17.08-2.92.41-5.71,1.83-8.29,2.48-4.48,6.41-6.87,11.41-7.02,3.41-.1,6.76.88,9.92,2.3,1.59.71,1.61.72,2.87-.55,5.31-5.37,10.61-10.76,15.91-16.14.24-.24.44-.52.73-.86-14.01-18.49-21.24-39.3-21.57-62.68-4.7-.93-9.36-1.85-14.03-2.77v-.39c1.84-.99,3.66-2,5.51-2.95,2.61-1.34,5.23-2.66,7.88-3.92.95-.45,1.32-1.13,1.41-2.11.67-7.41,2.39-14.6,4.81-21.61,3.86-11.19,9.42-21.48,16.86-30.72.56-.7,1.09-1.42,1.72-2.24-7.1-6.89-14.11-13.69-21.19-20.56-.9.3-1.81.63-2.73.92-6.04,1.93-11.51.8-16.2-3.4-3.21-2.87-4.59-6.59-4.16-10.94.48-4.82,2.5-8.75,6.82-11.13,1.54-.85,3.42-1.08,5.17-1.52.59-.15,1.24-.08,1.91-.11.27-1.7.34-3.38.82-4.95C17.33,4.78,20.55,1.05,26.25.21c2.91-.43,5.87-.25,8.66.91.81.34,1.54.4,2.41.18,1.07-.27,2.2-.35,3.31-.35,250.27,0,500.55,0,750.82-.07,4.03,0,7.54,3.01,8.31,6.02,1.23,4.81-2.58,10.35-7.95,10.35-150.47-.09-300.94-.07-451.42-.07h-97.77c5.43,3.46,7.4,8.45,6.98,14.75h12.27c1.39,10.85,2.56,21.57,4.86,32.14.85-3.4.96-6.86.95-10.33-.01-3.48.04-6.96-.01-10.44-.05-3.55-.2-7.1-.31-10.65,1.47-.43,109.92-.58,113.33-.12.21,11.8.42,23.65.63,35.95-1.01-.75-1.77-1.28-2.5-1.85-2.77-2.13-5.42-4.41-8.31-6.36-3.81-2.57-8.07-4.21-12.66-4.66-6.2-.61-11.17,1.9-15.1,6.58-2.91,3.46-4.92,7.45-6.47,11.68-.21.57-.3,1.22-.3,1.84-.02,13.16-.01,26.32,0,39.48,0,.41.06.81.1,1.32,5.92-.33,11.28-2.13,16.43-4.74,5.22-2.65,8.84-7.18,13.05-11.13.53,2.01-.2,43.13-.81,45.76-1.99-2.27-3.9-4.46-5.81-6.65-4.79-5.49-10.89-8.62-17.97-9.96-1.55-.29-3.15-.35-4.89-.53-.04.91-.11,1.59-.11,2.26,0,12.95-.12,25.9.04,38.85.09,6.85,2.61,12.83,7.81,17.48,2.67,2.39,5.91,3.65,9.4,4.35,7.13,1.43,13.67.03,19.33-4.51,2.6-2.09,4.79-4.69,7.14-7.08.24-.24.37-.59.81-.78.69,6.47.03,12.83.08,19.18s-.17,12.7-.28,19.32h-40.65c-.04.14-.09.28-.13.41.28.25.53.54.85.74,3.02,1.89,6.07,3.74,9.07,5.65.79.5,1.56.81,2.52.81,29.18-.02,58.37-.02,87.55-.02.28,0,.56-.03.94-.05.17-.33.4-.68.51-1.05,1.93-6.26,6.36-9.66,12.58-10.96,5.28-1.1,10.25-.03,15.05,2.25,4.45,2.11,8.46,4.92,12.39,7.84,1.96,1.46,3.92,2.03,6.36,2.03,26.6-.07,53.19-.06,79.79,0,1.73,0,2.77-.42,3.7-1.97.9-1.52,2.34-2.73,3.56-4.06.35-.38.76-.71,1.44-1.34-.86-.04-1.32-.08-1.78-.08-6.72,0-13.44-.03-20.16,0-2.79.02-5.58.2-8.37.26-1.95.04-3.9,0-5.85,0-1.58.02-3.11.16-4.69.54-2.05.49-4.3.17-6.46.17-.69,0-1.41-.02-2.08-.17-.85-.19-1.77-.38-2.5-.83-3.67-2.3-7.32-4.65-10.91-7.08-1.2-.81-2.24-1.01-3.66-.53-8.21,2.75-16.47,5.36-24.69,8.09-1.16.38-2.17.42-3.2-.21-2.57-1.58-2.61-4.95-.06-6.56.7-.44,1.48-.78,2.26-1.09,4.67-1.86,9.35-3.7,14.03-5.55.51-.2,1.01-.45,1.63-.73-.97-11.75-1.94-23.48-2.93-35.42h-8.73c1.43-7.84,2.8-15.41,4.23-23.25h0l.03-.04v.02ZM126.93,117.18c-13.76-.1-27.33.33-40.86,1.37-5.23.4-10.44,1.03-15.64,1.7-2.28.29-4.57.75-6.74,1.48-3.97,1.32-5.72,3.91-5.66,8.05.04,2.3.15,4.61.39,6.91,1.57,15.2,7.64,28.27,18.86,38.72,12.88,12,28.25,18.38,45.83,19.18,9.9.45,19.31-1.94,28.22-6.15,19.16-9.06,31.73-23.65,36.72-44.44,1.31-5.46,1.88-11.02,1.83-16.65-.02-2.6-.76-4.89-3.24-6.14-1.04-.52-2.23-.9-3.38-1.03-5.21-.61-10.42-1.25-15.65-1.63-13.61-.97-27.23-1.5-40.69-1.38h.01ZM62.04,45.85c18.69-13.79,39.6-20.85,62.78-20.66,23.17.18,43.94,7.6,62.42,21.66,7.42-7.31,14.68-14.47,21.77-21.45-.74-2.83-1.42-5.44-2.11-8.08H43.72c-1.05,2.57-2.03,4.95-3.08,7.5,7.07,6.95,14.19,13.95,21.4,21.03h0ZM180.51,95.69c-8.04-15.51-27.77-32.11-54.27-32.99-27.94-.92-49.55,15.64-58.88,33.1,37.71-6.24,75.31-5.85,113.15-.11h0ZM229.02,123.02c0-.15,0-.3.02-.45-.69-.3-1.36-.63-2.07-.88-6.26-2.21-12.45-4.63-18.79-6.56-16.64-5.07-33.75-7.73-51.05-9.15-7.8-.64-15.63-1-23.45-1.21-10.14-.28-20.28-.22-30.41.6-6.54.53-13.09,1.02-19.62,1.72-12.24,1.3-24.33,3.53-36.25,6.57-9.02,2.31-17.89,5.04-26.36,8.97-.64.3-1.25.64-1.87.97,11.57,2.5,23.03,4.44,34.61,5.45,1.25-6.91,4.5-10.42,10.79-11.8,1.64-.36,3.28-.73,4.94-.9,8.27-.84,16.53-1.81,24.81-2.36,7.81-.52,15.65-.66,23.48-.83,11.61-.24,23.22-.03,34.81.61,7.54.42,15.07.88,22.59,1.43,3.13.23,6.25.66,9.35,1.13,4.43.67,8.93,3.49,9.23,10.01.03.6.21,1.19.34,1.91,11.8-1.36,23.4-2.93,34.9-5.23h0ZM302.63,212.26c2.72-3.02,4.97-6.11,6.42-9.7.33-.83.48-1.76.55-2.65.29-3.96.65-7.93.74-11.89.22-9.64.39-19.29.42-28.93.03-8.88-.16-17.75-.25-26.63-.01-1.12.02-2.24,0-3.36-.14-10.62-.27-21.25-.43-31.87-.12-7.83-.27-15.65-.42-23.48-.05-2.45-.11-4.89-.21-7.34-.19-4.32-.35-8.64-.65-12.95-.14-2.07-.34-4.2-.92-6.18-.88-3.01-2.36-5.77-4.54-8.13-1.22,1.46-1.53,2.16-1.7,4.23-.3,3.75-.57,7.51-.79,11.26-.23,3.9-.38,7.81-.58,11.71-.36,7.04-.76,14.08-1.09,21.12-.2,4.32-.33,8.65-.43,12.98-.17,7.34-.39,14.67-.4,22.01-.01,9.93.13,19.85.26,29.78.07,5.31.23,10.62.41,15.92.24,7.05.51,14.09.84,21.13.27,5.78.6,11.57,1,17.35.13,1.86.44,3.74,1.75,5.62h.02ZM47.68,58.31c3.66-3.33,7.25-6.6,10.94-9.96-7.82-7.71-15.6-15.38-23.38-23.04.46-.76.84-1.27,1.1-1.83,1.03-2.21,2.27-4.36,2.96-6.67,1.35-4.54-.68-9.09-4.69-11.25-2.16-1.16-4.48-1.51-6.9-1.36-3.21.2-5.52,1.78-7.05,4.56-1.07,1.94-1.55,4.02-1.55,6.24,0,1.37-.03,2.74-.05,4.3-2.01,0-3.75-.09-5.48.03-1.16.08-2.39.27-3.43.75-4.18,1.93-6.36,8.14-4.48,12.45,1.71,3.91,6.94,7.01,11.15,6.27,2.71-.48,5.33-1.49,8.29-2.35,7.36,7.13,14.98,14.52,22.55,21.87h.02ZM214.04,26.34c-7.75,7.59-15.6,15.28-23.08,22.61,3.56,3.74,6.92,7.27,10.42,10.96,7.83-7.77,15.64-15.53,23.41-23.24,3.13,1.8,6.12,3.29,9.47,3.95,2.93.58,5.39-.21,7.44-2.32,1.79-1.84,3.04-4,3.63-6.51,1.4-5.96-2.66-11.19-8.75-11.32-1.73-.04-3.45-.14-5.37-.23-.06-1.92-.13-3.65-.18-5.38-.1-3.44-1.83-5.89-4.86-7.23-3.66-1.61-7.33-1.28-10.46,1.28-3.21,2.63-4.99,6.09-4.05,10.36.5,2.29,1.49,4.48,2.39,7.07h-.01ZM44.89,194.86c-6.33,6.38-13.02,13.11-19.68,19.81-3.58-2.45-5.93-3.31-10.38-4.03-1.95-.31-3.75.05-5.47.94-3.72,1.91-5.45,5.54-5.26,10.4.23,5.83,4.49,8.26,8.3,8.72,1.45.18,2.93.2,4.39.32.54.04,1.06.14,1.82.24,0,1.7-.06,3.3.01,4.9.25,5.85,5.04,9.47,10.81,8.45,4.95-.87,11.02-7.53,8.36-14.28-.43-1.1-.91-2.19-1.37-3.29-.24-.56-.48-1.12-.76-1.76,6.7-6.83,13.32-13.59,19.92-20.31-3.39-3.21-6.89-6.52-10.69-10.11h0ZM738.04,131.61h-17.04c1.68,23.96,13.79,45.81,28.75,58.96,3.29-6.81,5.82-13.88,8.56-20.82-.92-.94-1.85-1.79-2.66-2.73-4.93-5.77-5.81-12.65-5.34-19.88.06-.96.17-1.91.27-3.07-4.22-.16-8.31.06-12.54-.13v-12.32h0ZM203.94,63.17c.33.48.54.83.8,1.15,5.53,7.09,10.14,14.73,13.7,22.99,3.92,9.1,6.46,18.57,7.68,28.41.06.5.27,1.19.63,1.39.93.53,1.98.84,3.19,1.31.08-2.87.24-5.45.22-8.02-.06-9.72-.14-19.44-.28-29.16-.09-6.29-.26-12.57-.41-18.86-.13-5.17-.32-10.33-.41-15.5-.08-4.28.22-3.2-3.21-4.84-.11-.05-.27,0-.56.04-7.05,6.97-14.18,14.01-21.34,21.09h0ZM203.55,193.35c-3.47,3.78-6.8,7.41-10.22,11.13,7.02,7.11,13.93,14.12,20.86,21.14-1.07,1.91-2.56,3.46-2.96,5.75,6.19,2.24,12.41,4.15,18.97,5.37.11-1.73.2-3.24.3-4.85,1.67,0,3.13.02,4.6,0,5.43-.1,9.63-5.13,8.8-10.51-.3-1.97-.57-2.2-2.52-2.23-7.62-.09-15.24-.18-22.86-.29-.43,0-.85-.13-1.34-.21,2.1-2.96,5.23-4.86,6.72-8.25-6.81-5.71-13.5-11.31-20.36-17.05h0ZM153.39,218.95c-2.67-2.33-2.67-2.31-5.85-1.51-9.99,2.51-20.15,3.24-30.39,2.39-4.8-.39-9.56-1.19-14.35-1.78-.6-.07-1.35-.17-1.81.11-1.65,1.01-3.2,2.17-4.8,3.28,2.21,5.21,5.61,9.1,10.15,12,5.53,3.53,11.68,4.9,18.15,5.1,5.68.17,11.17-.69,16.22-3.44,6.55-3.57,10.55-9.16,12.68-16.15h0ZM225.45,206.27c.18-.06.36-.12.53-.19.27-2.69.62-5.36.8-8.05.35-5.08.6-10.16.9-15.24.4-6.89.83-13.78,1.2-20.68.2-3.62.33-7.25.42-10.88.17-6.36.29-12.71.43-19.07.02-.84.08-1.68.1-2.51.02-.82,0-1.64,0-2.57-1.1.17-1.98.3-2.98.46-.11,11.32-1.71,22.24-5.25,32.85-3.56,10.69-8.75,20.51-15.54,29.69,6.55,5.47,12.95,10.83,19.36,16.19h.03ZM62.29,106.28c20.67-3.79,41.02-5.5,61.52-5.53,20.56-.03,41,1.33,61.63,4.9-.57-1.41-1.06-2.41-1.38-3.47-.48-1.6-1.45-2.46-3.14-2.49-.35,0-.69-.08-1.04-.12-5.68-.74-11.33-1.64-17.03-2.19-8.13-.78-16.28-1.49-24.43-1.88-6.76-.33-13.55-.2-20.33-.21-3.63,0-7.27.03-10.91.22-9.28.47-18.54,1.16-27.75,2.44-4.42.61-8.82,1.4-13.23,2.09-.8.13-1.48.36-1.82,1.19-.63,1.54-1.27,3.08-2.1,5.06h0ZM248.03,225.91h25.24c9.16,0,18.32-.02,27.49.02,1.25,0,2.05-.34,2.74-1.43.89-1.4,2.01-2.67,3.07-3.96.41-.49.96-.87,1.44-1.31-.06-.13-.12-.26-.17-.39h-36.61c-3.5-11.12-6.76-22.11-10.45-32.98-1.3,11.22-1.33,22.27,3.73,33.04h-8.55c-2.69,0-5.38-.05-7.93.04v6.96h0ZM708.85,241.59h-67.48c-.49,0-.98.03-1.46.06-.04,0-.1.08-.12.13-.03.06-.02.13-.03.19,20.07,11.71,49.52,13.15,69.1-.38h0ZM41.65,225.76c.2.05.39.14.58.14,4.55,0,9.09,0,13.63.03.86,0,1.41-.36,2.03-.87,3.49-2.9,7.02-5.75,10.53-8.63.35-.28.66-.61,1.02-.96-3.54-2.54-6.94-4.97-10.2-7.3-5.84,5.85-11.67,11.67-17.59,17.59h0ZM207.96,225.9c.07-.16.15-.31.22-.46-6.05-6.14-12.11-12.29-18.1-18.38-3.63,2.69-7,5.18-10.43,7.72,5.59,3.87,11.16,7.32,17.02,10.3.67.34,1.41.76,2.13.78,3.05.09,6.11.04,9.17.04h0ZM663.47,267.54c.19.12.35.29.53.32,5.13.85,10.29.92,15.47.54.83-.06,1.25-.5,1.56-1.18.81-1.78,1.67-3.54,2.42-5.34.91-2.17,1.63-4.41,1.85-6.8-5.18.13-10.23.26-15.29.39-.24,2.48-1.05,4.64-2.37,6.56-1.29,1.88-2.75,3.65-4.17,5.51h0ZM699.76,263.7c.23,0,.38.04.51,0,5.22-1.86,10.13-4.35,14.86-7.21.69-.42.89-1,.9-1.75.02-3.91.05-7.82.06-11.73,0-.1-.15-.2-.17-.21-4.93,2.73-9.85,5.46-14.57,8.07-.53,4.26-1.05,8.47-1.6,12.84h0ZM373.24,255.62c5.37,2.02,10.21,1.08,14.68-2.24,3.55-2.63,6.15-6.07,8.3-9.87.26-.45.41-.96.72-1.72h-12.63c-3.66,4.58-7.32,9.14-11.07,13.83h0ZM381.02,241.95c-4.44-.59-8.62-1.14-12.97-1.72-2.62,3.45-6.32,5.91-10.38,8.44,4.36,2.28,8.41,4.39,12.75,5.97,4.01-3.9,7.43-8.1,10.59-12.69h.01ZM746.4,206.8c-2.34,3.74-4.55,7.27-6.56,10.49,1.56,4.49,3.02,8.71,4.52,13.03,3.28-3.89,6.18-7.98,8.98-12.14.58-.85.26-1.62-.02-2.38-1.32-3.65-3.66-6.53-6.93-9h.01ZM747.55,204.71c3.57,2.57,6.16,5.83,8.03,10.23,2.29-4.11,4.34-7.82,6.42-11.51.43-.75.11-1.34-.18-1.96-1.63-3.56-4.06-6.48-7.15-8.86-.25-.19-.6-.24-.92-.36-2.07,4.15-4.08,8.19-6.2,12.46h0ZM640.65,247.46c-1.58,1.46-2.99,2.92-4.58,4.16-1.61,1.26-3.4,2.29-5.37,3.6,3.96,1.97,7.66,3.76,11.31,5.66,1.17.61,2.09.41,3.1-.23,3.05-1.9,5.69-4.27,8.06-6.95.29-.33.5-.74.73-1.09-4.54-1.76-8.95-3.47-13.25-5.14h0ZM646.36,262.67c4.36,1.84,8.54,3.16,12.8,4.22.68.17,1.19.11,1.7-.4,2.25-2.21,4.4-4.51,5.74-7.42.57-1.25,1.09-2.52.95-3.91-3.37-.63-6.59-1.22-9.8-1.84-.68-.13-1.21-.04-1.66.53-2.67,3.36-5.82,6.2-9.73,8.81h0ZM729.31,230.88c-3.68,3.28-7.04,6.23-10.33,9.24-.38.35-.61,1.07-.61,1.62,0,3.15.11,6.29.17,9.44.02.94,0,1.87,0,3.18,2.3-1.7,4.41-3.17,6.42-4.75,4.94-3.87,5.18-4.39,5.4-10.7.04-1.05.05-2.11-.09-3.14-.23-1.57-.61-3.11-.97-4.88h.01ZM225.6,252.86c3.45.73,6.44,1.37,9.44,1.99.98.2,1.72-.13,2.32-.98,2.53-3.6,5.11-7.16,7.65-10.75.29-.41.43-.93.69-1.53h-12.92c-1.14,4.29-4.19,7.44-7.18,11.27h0ZM698.87,251.88c-.41-.08-.55-.16-.67-.13-3.11.8-6.21,1.64-9.32,2.41-.81.2-1.15.63-1.27,1.42-.57,3.91-1.99,7.55-3.69,11.1-.16.33-.21.72-.35,1.22,4.31-.5,8.3-1.48,12.25-2.63.9-.26,1.16-.89,1.32-1.68.4-2.06.9-4.1,1.21-6.17.28-1.84.36-3.71.52-5.53h0ZM54.08,261.38c-1.65-7.24-4.66-13.36-9.2-18.88-1.49,1.14-2.75,2.1-4.05,3.08,2.08,4.36,2.06,8.94,2.48,13.46,1.86.29,1.55,2.37,2.8,3.23,1.44-.74,2.89-.9,4.25.34.55-.6,1.01-1.11,1.49-1.64.62.11,1.22.22,2.23.41h0ZM738.1,219.83c-2.54,3.17-4.87,6.09-7.23,9.03,2.02,4.44,1.97,9.08,1.52,13.9.44-.17.66-.18.78-.31,2.75-2.87,5.52-5.71,8.2-8.65.38-.42.47-1.27.42-1.9-.37-4.15-1.85-7.98-3.7-12.08h0ZM207.17,234.3c-2.74,2.19-5.3,4.23-8.07,6.46,4.38,2.18,8.73,4.33,13.13,6.52,2.63-2.89,5.06-5.64,7.34-8.79-4.35-1.47-8.43-2.85-12.4-4.19h0ZM117.38,216.35c3.2.78,14.21.57,16.14-.28-.74-2.96-1.48-5.92-2.21-8.85h-12.27c-.57,3.13-1.12,6.14-1.66,9.13h0ZM606.56,224.07c-3.52-2.35-7.05-4.34-11.09-5.14-1.99,3.04-3.92,5.99-5.88,8.99,2.74,1.78,5.48,3.56,8.29,5.39,3.47-2.55,6.19-5.67,8.68-9.24h0ZM763.77,200.03c1.43-3.3,2.66-6.17,3.93-9.03.41-.92.29-1.66-.33-2.47-2.3-3.01-4.97-5.64-7.93-7.99-.19-.15-.46-.18-.75-.29-1.3,3.19-2.56,6.27-3.87,9.47,3.58,2.67,6.63,5.77,8.94,10.3h.01ZM507.83,256.17c3.2-4.42,5.77-9.12,8.02-14.21-3.12-.28-5.95-.53-8.87-.79-1.64,4.42-4.47,8.04-7.65,11.63,2.72,1.52,5.46,2.63,8.5,3.37h0ZM76.64,215.24c-2.72,2.15-5.28,4.16-7.75,6.11,1.35,4.3,2.64,8.4,3.98,12.67,2.48-1.97,4.89-3.86,7.24-5.8.31-.25.57-.85.5-1.22-.8-3.96-1.73-7.89-3.97-11.76h0ZM59.53,229.03c.93,4.94,1.8,9.59,2.69,14.33,2.46-2.18,4.9-4.36,7.37-6.5.64-.55.65-1.12.43-1.86-1-3.33-1.95-6.68-2.95-10.01-.15-.5-.44-.96-.74-1.6-2.45,2.03-4.75,3.94-6.8,5.64h0ZM630,241.23c-3.72,2.24-7.27,4.39-11.06,6.68,2.94,1.82,5.65,3.5,8.35,5.19.69.43,1.3.26,1.96-.05,2.55-1.18,4.91-2.65,6.93-4.61.72-.7,1.3-1.55,1.99-2.37-2.85-1.69-5.48-3.25-8.18-4.84h.01ZM337.95,237.62c2.81,1.61,5.56,3.18,8.27,4.73,4.11-2.01,7.79-4.43,11.64-6.98-3.18-2.01-6.1-3.85-8.95-5.65-3.69,2.66-7.24,5.22-10.96,7.9ZM609.25,241.33c2.11,1.45,4.15,2.77,6.1,4.21.94.69,1.72.63,2.66.07,2.57-1.54,5.17-3.02,7.75-4.54.64-.38,1.24-.84,1.99-1.35-3.2-2.33-6.22-4.52-9.21-6.7-3.15,2.82-6.15,5.51-9.29,8.32h0ZM86.81,207.49c2.65,3.68,4.35,7.48,5.34,11.8,2.65-1.85,5.15-3.59,7.73-5.39-1.21-4.35-2.73-8.4-5.37-12.14-2.63,1.95-5.07,3.77-7.71,5.73h.01ZM55.04,250.43c1.13-1.07,2.06-2.02,3.06-2.89.69-.61.97-1.34.94-2.21-.05-1.74-.02-3.5-.21-5.23-.31-2.89-.8-5.75-1.97-8.76-3.17,2.81-6.19,5.43-8.74,8.32,2.38,3.7,4.63,7.2,6.92,10.77h0ZM755.6,139.72c4.18-1.04,8.17-1.99,12.13-3.05.51-.13,1.07-.68,1.3-1.17,1.08-2.42,2.08-4.88,3.05-7.34.19-.48.17-1.04.29-1.82-4.74,1.31-9.15,2.77-13.39,4.72-.39.18-.77.62-.95,1.03-1.07,2.42-1.98,4.89-2.44,7.62h.01ZM328.21,232.11c2.44,1.37,4.73,2.66,7.06,3.97,4.19-2.08,7.78-4.85,11.52-7.92-2.87-1.79-5.45-3.39-8.04-5-3.6,3.05-7,5.94-10.54,8.95h0ZM497.03,251.76c3.15-3.43,5.94-6.75,7.58-11.05-2.92-.98-5.66-1.91-8.49-2.86-2.1,2.74-4.22,5.49-6.33,8.25-.2.26-.37.55-.69,1.04,2.67,1.56,5.23,3.05,7.94,4.62h-.01ZM527.52,241.65c-2.54,0-4.91.07-7.27-.03-1.26-.05-1.82.48-2.37,1.55-2.16,4.15-4.46,8.23-6.69,12.34-.14.26-.21.57-.33.9,7.23.18,14.07-7.21,16.67-14.76h-.01ZM600.17,234.95c2.3,1.62,4.62,3.24,7.06,4.96,3.16-2.8,6.22-5.51,9.49-8.41-2.82-2.12-5.4-4.07-7.92-5.96-2.9,3.16-5.66,6.17-8.63,9.41h0ZM524.12,94.3v12.19c0,2.03-.11,4.06.03,6.08.14,1.95-.61,3.91-.15,6.02,9.01-6.52,8.84-19.46.12-24.29h0ZM769.29,186.65c1.51-4.51,2.94-8.94,3.1-13.74-3.64-.22-7.09-.44-10.66-.66-.71,1.85-1.39,3.65-1.98,5.18,3.28,3.17,6.33,6.12,9.54,9.22h0ZM214.62,248.32c2.98,1.21,5.73,2.33,8.39,3.42,3.62-3.05,7.04-8.23,7.1-10.76-2.67-.61-5.36-1.22-7.95-1.82-2.51,3.04-4.9,5.95-7.54,9.16h0ZM498.13,94.12c-4.54,3.68-6.82,7.95-6.29,13.4.43,4.46,2.6,8.03,6.29,11.03v-24.43ZM336.19,222.33v-.65c-2.36-.81-4.73-1.62-7.09-2.45-.82-.29-1.45-.05-2.11.48-2.45,1.98-4.94,3.91-7.39,5.87-.46.37-.84.86-1.34,1.37,2.37,1.21,4.55,2.31,6.71,3.44.65.34,1.17.26,1.72-.19,3.16-2.63,6.33-5.25,9.5-7.87h0ZM761.17,166.46c1.5-2.95,2.92-5.66,4.25-8.42.23-.48.14-1.18.01-1.74-.32-1.42-.74-2.81-1.12-4.21-.14-.51-.29-1.01-.44-1.55-3.12.89-5.82,2.34-8.32,4.12-.37.27-.77.94-.7,1.33.83,4.22,2.63,7.88,6.33,10.46h-.01ZM239.95,254.44c8.43.1,15.5-6.8,15.43-12.9-1.94,0-3.88.04-5.82-.02-.87-.02-1.19.53-1.58,1.13-1.8,2.73-3.62,5.45-5.45,8.17-.81,1.19-1.67,2.35-2.59,3.62h0ZM83.53,225.63c1.72-1.27,3.32-2.51,4.99-3.64.9-.61,1.05-1.3.83-2.32-.67-3.19-1.93-6.11-3.68-8.84-.32-.5-.72-.96-1.18-1.58-1.95,1.48-3.75,2.85-5.23,3.98,1.49,4.33,2.85,8.27,4.27,12.39h0ZM460.55,217.85c-1.87,2.97-3.61,5.74-5.44,8.65,2.53,1.32,4.85,2.53,7.34,3.83,2.2-3.19,4.31-6.27,6.5-9.45-2.79-1.49-5.33-2.73-8.4-3.04h0ZM767.05,139.22c-4.46.94-8.46,1.94-12.18,3.74-.35,3.18-.83,6.18-.4,9.43.59-.32,1-.56,1.41-.76,1.8-.9,3.55-1.98,5.43-2.63,1.92-.66,3.14-1.48,3.51-3.7.33-1.94,1.34-3.77,2.22-6.08h.01ZM195.3,229.13c-3.79-2.14-7.28-4.11-10.68-6.03-2.32,1.92-4.54,3.77-6.87,5.7,2.6,1.5,5.12,2.99,7.68,4.4.36.2.98.23,1.34.06,2.77-1.29,5.5-2.66,8.52-4.14h.01ZM473.04,236.88c2.31,1.48,4.63,2.98,7.03,4.52,2.63-2.82,4.13-6,5.56-9.37-2.17-1.46-4.21-2.84-6.24-4.21-2.18,3.1-4.22,6.01-6.36,9.06h0ZM477.38,226.28c-2.2-1.48-4.21-2.83-6.32-4.24-2.25,3.26-4.38,6.34-6.59,9.54,2.2,1.34,4.25,2.6,6.4,3.91,2.53-2.85,4.53-5.85,6.51-9.2h0ZM592.57,218.73c-6.73-.78-15.91,2.77-17.56,6.81,1.97.13,3.91.22,5.85.38,1.95.16,3.88.41,5.83.57.3.03.74-.09.92-.3,1.97-2.25,3.69-4.68,4.96-7.46h0ZM354.98,247.26c4.23-1.85,8.9-5.41,10.7-8.17-1.28-.58-2.6-1.04-3.79-1.75-1.22-.73-2.09-.48-3.2.27-2.72,1.82-5.55,3.49-8.33,5.22-.45.28-.88.6-1.51,1.03,2.2,1.22,4.2,2.33,6.12,3.4h.01ZM173.97,216.05c-2.59-1.73-4.94-3.29-7.16-4.77-3.18,1.74-6.14,3.36-9.4,5.14,2.51,1.55,4.78,2.99,7.1,4.36.29.17.84.14,1.18,0,2.79-1.25,5.52-2.64,8.28-4.72h0ZM775.17,164.42c3.71-1.06,6.82-2.87,10.06-5.11-1.33-2.2-2.6-4.31-3.9-6.47-3.28,1.89-6.28,3.62-9.37,5.4,1.05,2.03,2.08,3.99,3.21,6.17h0ZM182.41,221.57c-2.24-1.46-4.32-2.81-6.17-4.02-3,1.78-5.71,3.39-8.68,5.15,2.62,1.58,5.05,3.04,7.49,4.51,2.87-1.3,5.18-3.14,7.36-5.64h0ZM204.56,233.22c-1.09-.48-1.9-.85-2.72-1.21-1.27-.54-2.57-1.52-3.83-1.48-1.26.04-2.5,1.08-3.74,1.7-1.77.88-3.54,1.78-5.61,2.82,2.81,1.54,5.29,2.9,7.78,4.26,2.91-1.71,5.65-3.46,8.13-6.09h0ZM493.93,236.79c-2.18-1.19-4.12-2.25-6.06-3.32-1.82,3.12-3.59,6.17-5.48,9.41,1.4.88,2.96,1.86,4.67,2.93,2.32-3.05,4.51-5.92,6.87-9.03h0ZM308.01,225.04c2.57.3,4.7.59,6.85.78.48.04,1.09-.17,1.48-.47,2.39-1.92,4.74-3.89,7.08-5.87.26-.22.42-.57.75-1.04-6.43-.17-11.74,1.63-16.16,6.6h0ZM452.93,225.6c1.68-2.72,3.26-5.28,4.91-7.94-4.91-.52-11.57,2.82-12.26,7.35,2.42.2,4.84.39,7.35.6h0ZM136.5,216.16c1.84-.28,3.37-.47,4.87-.75,1.54-.29,3.07-.67,4.77-1.04-2.52-2.27-10.33-7.24-11.94-7.55.77,3.12,1.52,6.13,2.31,9.34h0ZM117.06,203.71c.15-1.94.79-3.55.58-5.28-3.01-.52-5.86-1.02-8.82-1.53-.75,1.69-1.45,3.26-2.29,5.13,3.62.58,6.95,1.11,10.53,1.68h0ZM164.8,209.91c-1.78-1.21-3.03-2.05-4.23-2.87-3.5,1.55-6.85,3.02-10.57,4.66,1.64,1.04,2.88,1.91,4.21,2.63.41.22,1.11.21,1.54,0,2.89-1.36,5.74-2.79,9.06-4.43h0ZM775.87,167.03c.35,1.28.71,2.59,1.13,4.12,3.15-1.35,6.02-2.58,8.9-3.81.62-.26,1.12-.61.98-1.4-.24-1.34-.47-2.69-.72-4.08-3.5,1.76-6.79,3.41-10.3,5.17h0ZM776.09,146.84c-2.61,2.01-5.07,3.91-7.53,5.8.2,1.2.96,2.38,2.26,3.54,2.88-1.65,5.82-3.33,9-5.15-1.36-1.53-2.55-2.87-3.73-4.19h0ZM772.78,123.67c-.13-.54-.2-.88-.3-1.21-.98-3.12-3.57-4.02-6.17-2.08-2.53,1.89-4.4,4.36-6.06,7.42,4.32-1.43,8.33-2.75,12.54-4.14h-.01ZM152.18,199.1c-1.17-1.93-2.1-3.47-3.05-5.04-2.5.8-4.81,1.53-7.3,2.32.64,1.83,1.23,3.51,1.89,5.37,2.87-.9,5.5-1.72,8.46-2.65h0ZM158.24,205.55c-.69-.57-1.14-.88-1.52-1.27-.95-.98-1.94-.99-3.21-.54-2.95,1.05-5.96,1.93-8.95,2.89-.4.13-.77.35-1.34.62,1.26.85,2.32,1.52,3.33,2.26.7.52,1.32.52,2.12.17,3.05-1.36,6.13-2.66,9.57-4.13h0ZM772.02,168.09c-.89-3.2-2.3-5.97-4.67-8.54-1.65,2.73-2.95,5.35-3.86,8.25,2.9,1.17,5.58,1.38,8.53.29h0ZM129.68,203.79c-.34-1.87-.62-3.47-.9-5.01h-8.08c-.25,1.65-.48,3.21-.76,5.01h9.74ZM140.91,202.37c-.7-1.94-1.3-3.61-1.9-5.27-2.57.47-4.88.89-7.31,1.34.3,1.76.57,3.38.88,5.21,2.83-.43,5.47-.84,8.34-1.28h-.01ZM102.45,212.13c2.52-1.64,4.99-3.25,7.62-4.96-3.76-1.22-7.22-2.34-10.92-3.54,1.14,2.92,2.18,5.62,3.3,8.5h0ZM105.91,214.73c.05.19.11.38.16.57,2.72.37,5.44.73,8.36,1.12.49-2.68.93-5.14,1.48-8.11-3.63,2.33-6.82,4.38-10,6.42h0ZM40.08,260.15c.27-4.28.24-8.55-1.55-12.85-1.39,1.05-2.58,1.96-3.7,2.81,1.6,2.06.61,4.57,1.64,6.68.64-.35,1.2-.66,1.89-1.03.62,1.58,1.17,2.99,1.72,4.39h0ZM787.07,171.72c1.08,1.19,2.24.87,3.74.71-1.08-1.33-1.93-2.38-2.79-3.43-3.34,1.43-6.51,2.78-9.77,4.17.71,1.13,1.32,2.09,2.01,3.19.9-1.04,1.63-1.86,2.38-2.73.84.6,1.62,1.15,2.49,1.78.66-1.25,1.26-2.39,1.94-3.68h0ZM100.32,194.36c-.94,1.24-1.8,2.39-2.78,3.7.92.48,1.63.89,2.37,1.22,1.25.56,2.53,1.06,3.98,1.66.74-1.69,1.41-3.22,2.11-4.85-1.38-.44-2.5-.8-3.62-1.15-.59-.18-1.19-.34-2.06-.58h0ZM774.29,145.15c-.52-.45-.84-.93-1.13-.92-1.03.04-2.27-.07-3.03.46-1.55,1.07-1.23,2.97-1.61,4.55.14.09.29.19.43.28,1.74-1.42,3.49-2.85,5.35-4.37h0ZM751.11,131.57v7.63c.07.02.13.04.2.05.76-2.52,1.51-5.04,2.3-7.68h-2.5ZM157.32,225.48c.02.14.03.29.05.43h6.72c-.58-.82-1.23-1.32-1.95-1.66-.38-.18-.94-.22-1.34-.09-1.18.38-2.32.87-3.48,1.32h0ZM433.27,168.09c-.08.83-.22,1.58-.23,2.33-.16,10.42-.37,20.83-.43,31.25-.01,2.66,1.32,4.98,2.83,7.1,1.78,2.5,3.69,4.92,5.54,7.37.33.44.66.89.96,1.29-.06.16-.07.23-.11.28-.03.05-.09.13-.13.13-15.04.03-30.09.05-45.13.07-.25,0-.51-.05-1.15-.13,1.22-1.71,2.27-3.15,3.28-4.61,1.11-1.61,2.27-3.2,3.23-4.89,1.46-2.58,2.27-5.34,2.26-8.39,0-3.98.26-7.95.38-11.93.15-4.82.31-9.63.42-14.45.16-7.4.3-14.8.43-22.2.15-8.6.34-17.19.41-25.79.17-21.82.32-43.65.41-65.47.02-4.82-.13-9.64-.45-14.45-.19-2.85-1.48-5.4-3.6-7.37-2.2-2.04-4.52-3.94-7.01-6.1.67-.11,1.1-.25,1.53-.25,16.59-.01,33.17-.03,49.76,0,2.93,0,5.62,1.16,8.21,2.35,9.88,4.55,16.44,12.08,19.63,22.5.2.65.26,1.37.26,2.06.01,26.6.01,53.19,0,79.79,0,2.94-1.14,5.6-2.31,8.21-4.5,10.08-12.14,16.58-22.76,19.44-3.07.83-6.32,1.04-9.5,1.41-2.2.26-4.42.3-6.73.45h0ZM432.28,54.98v92.2c.3.08.5.18.69.17,3.87-.31,7.63-1.06,10.96-3.15,4.45-2.78,7.07-6.81,7.09-12.11.08-20.85.04-41.71.03-62.56,0-2.73-.81-5.22-2.46-7.42-1.46-1.95-3.38-3.3-5.55-4.35-3.36-1.63-6.87-2.62-10.75-2.78,0,0-.01,0-.01,0ZM115.8,149.87c.39,11.85-9.24,21.99-21.33,22.15-12.22.17-21.64-9.31-22.04-21.03-.41-11.99,9.11-22.03,21.12-22.39,11.95-.35,21.85,9.11,22.25,21.26h0ZM175.69,150.44c.29,10.5-8.28,21.56-21.64,21.56-12.63,0-21.7-10.14-21.67-21.82.03-11.89,9.88-21.72,21.73-21.58,13.56.16,22.01,11.41,21.58,21.84h0ZM124.04,167.76c4.69-.04,8.54,3.77,8.58,8.48.05,4.66-3.8,8.54-8.5,8.57-4.7.03-8.52-3.75-8.55-8.49-.03-4.71,3.74-8.53,8.47-8.57h0Z"/>
</svg>