<?xml version="1.0" encoding="UTF-8"?>
<svg id="Layer_1" data-name="Layer 1" xmlns="http://www.w3.org/2000/svg" viewBox="0 0 800 288.28">
  <defs>
    <style>
      .cls-1 {
        fill-rule: evenodd;
      }
    </style>
  </defs>
  <path class="cls-1" d="M651.72,68.09v.02l-.07-.02h.07ZM800,102.31l-60.44,182.11-46.36-14.6-.35-18.25-44.5-6.21,2.69-23.97c-2.12,1.08-4.3,2.05-6.55,2.91v-.03c-9.31,3.5-18.96,4.72-28.09,3.7l3.55,22.48-66.89-11.79-3.44-29.76-9.41,18.14-15.41-28.46-3.26,21.23-58.96-9.3,4.59-28.03c-9.15,5.47-19.42,9.47-31.48,12.38-4.5,1.09-8.98,1.8-13.4,2.15v52.32l-109.4-54.09.07,46.96-52.33,7.69-2.26-24.32c-6.17,6.08-13.49,11.12-21.71,14.63l.03.04c-16.35,6.95-34.08,6.91-48.57-.07-13.44-6.46-23.09-18.15-27.27-32.92-1.98-7.05-2.44-14.39-1.57-21.68-3.92,3.75-8.18,7.33-12.75,10.69l-.07.07,15.86,60.96,3.48,13.31-13.09,4.17-29.91,9.55-12.35,3.96-5.3-11.86-55.21-123.33-1.68.81-12.04,5.9-6.84-11.52L7.16,110.73l-7.16-12.11,11.86-7.54c9.87-6.22,20.22-11.62,30.96-16.15,30.32-12.88,61.17-17.51,86.83-13.02,10.49,1.19,20.46,4.67,28.85,10.25,12.11,6.74,21.69,17.3,27.23,30.01,4.67,10.8,5.35,22.92,2.57,35.21,4.1-2.97,8.55-5.52,13.3-7.56,16.09-6.83,33.41-6.98,47.81-.5l-1.87-20.13-12.64,3.29-1.89-39.9,74.23-23.69-.63,30.57,16.63-31.8,47.46,42.09c6.23-5.89,13.8-10.76,22.49-14.31l-9.58-11.67L438.99,0l30.64,45.73-43.93,23.6c20.14.42,38.32,8.91,50.85,24.34l4.28,5.27,5.93-36.22h51.73l1.37-8.08h49.17l11.12,70.39c4.57-3.26,9.59-5.99,14.96-8.05,16.14-6.08,33.27-5.37,47.03,1.96.13.07.26.14.39.22l.84-7.48-11.13-2.49-.52-41.08,73.87,16.26,5.51,27.31,5.97-24.64,62.93,15.27h0ZM465.49,125.08l9.65,8.68,3.75-22.94-3.08,3.28-10.32,10.98ZM403.3,60.4l3.19,4.84,46.33-22.95-16.21-22.01-33.31,40.12h0ZM172.36,107.99l.04-.03c-4.39-10.15-12.01-18.11-21.94-23.69-7.23-4.81-15.51-7.13-23.3-8.04-22.11-3.9-49.7-.21-78.66,12.07-10.31,4.39-19.97,9.41-28.85,15.02l22.22,37.56c5.69-2.81,11.86-5.76,15.16-7.48l61.39,137.09,29.9-9.55-18.46-70.89c35.31-21.83,53.17-57.42,42.5-82.06h0ZM266.47,166.53s.01-.02,0-.03v-.02c-.19-.87-.4-1.75-.65-2.61h-.03c-2.58-9.12-7.99-16.36-15.14-21.21-11.55-7.85-27.66-9.45-43.68-2.66-25.17,10.81-40.79,39.13-34.05,63,6.92,24.6,32.85,35.62,58.83,24.6,10.14-4.32,18.73-11.49,24.94-20.09,6.41-8.87,10.29-19.28,10.73-29.67v-.04c.16-3.79-.14-7.57-.95-11.27h0ZM408.6,196.94c-10.7-1-20.78-4.27-29.62-9.7-9.15-5.65-16.41-13.36-21.19-22.4l-42.62-16.87,45.38-47.87-32.46-30.93-33.24,46.68-2.74-46.5-45.1,13.44h-.03l.56,12.08,12.63-3.3,4.02,47.78c6.24,6.12,10.81,13.83,13.29,22.66,4.53,16.02,1.37,33.55-7.32,48.4l1.98,23.51,28.08-3.83-.18-56.85,108.56,54.29v-30.59h0ZM351.17,129.43l-14.03,13.62,15.07,5.85c-1.32-6.66-1.64-13.19-1.04-19.47ZM477.74,156.22l-5.47-4.92h0l-18.08-16.28c-5.26,6.24-11.3,11.93-22.11,14.53-3.58.87-8.46,1.68-11.55,1.12l45.21-48.12c-12.78-15.72-33.7-22.95-57.42-17.23-10.52,2.54-19.82,7.28-27.09,13.77-2.98,2.64-5.61,5.58-7.85,8.77,0,0-.01,0-.01.01-7.68,10.91-10.77,24.82-7.1,40.41.57,2.41,1.34,4.74,2.29,6.96h.01c7.95,18.53,28.82,30,53.72,27.56,3.29-.31,6.66-.88,10.07-1.7,15.73-3.78,27.59-9.42,37.98-18.02,2.54-2.1,5-4.39,7.4-6.86h0ZM601.79,224.19c-1.33-.56-2.64-1.18-3.91-1.85-12.64-6.71-21.48-18.32-24.89-32.64-4.42-18.55,1.98-38.78,15.21-53.85l-10.4-67.55h-25.02l-.07-.04-9.83,55.46-8.74-47.81h-35.03l-11.56,69.09,10.97,9.85-11.23,11.58c-1.31,1.35-2.63,2.64-3.98,3.89l-4.83,28.85,34.67,6.04,8.25-52.01h.21l20.85,44.89,13.9-35.94,9.82,65.14,36.96,5.65-1.35-8.75h0ZM652.77,206.04c5.1-3.65,9.55-8.1,13.16-13.06,8.47-11.64,12.32-26.07,9.09-39.5-.93-3.89-2.4-7.46-4.34-10.64-2.5-4.14-5.78-7.65-9.64-10.41-10.67-7.68-25.76-9.7-41.09-3.94-6.54,2.51-12.47,6.24-17.55,10.8-4.6,4.13-8.49,8.95-11.5,14.15h0c-6.03,10.46-8.47,22.48-5.8,33.7,2.24,9.37,7.39,16.83,14.35,21.83,4.36,3.15,9.44,5.32,14.96,6.4,7.93,1.55,16.77.83,25.72-2.54,4.53-1.72,8.77-4.02,12.64-6.79h0ZM782.56,110.98l-36.71-8.11-16.64,68.96-16.22-76.93-48.22-9.69-.7,13.2,10.56,2.81-2.36,24.85c7.1,6.49,12.09,14.99,14.44,24.78,5.29,22.08-4.4,46.41-22.65,61.86l-1.99,21,28.01,4.46,12.91-72.97,2.25,94.59,25.65,7.68,51.67-156.49h0ZM653.29,145.33c.3,1.11.44,2.28.39,3.48-.28,7.16-7.02,12.7-15.09,12.39-8.04-.32-14.32-6.39-14.04-13.55.26-6.75,6.27-12.06,13.72-12.38-1.44-.32-2.92-.51-4.45-.57-13.48-.53-24.47,8.99-24.96,20.88-.52,12.64,9.69,23.06,22.92,23.59,13.48.52,24.46-8.99,24.99-21.66.18-4.4-1.11-8.61-3.48-12.18h0ZM653.29,145.33c.3,1.11.44,2.28.39,3.48-.28,7.16-7.02,12.7-15.09,12.39-8.04-.32-14.32-6.39-14.04-13.55.26-6.75,6.27-12.06,13.72-12.38-1.44-.32-2.92-.51-4.45-.57-13.48-.53-24.47,8.99-24.96,20.88-.52,12.64,9.69,23.06,22.92,23.59,13.48.52,24.46-8.99,24.99-21.66.18-4.4-1.11-8.61-3.48-12.18h0ZM653.29,145.33c.3,1.11.44,2.28.39,3.48-.28,7.16-7.02,12.7-15.09,12.39-8.04-.32-14.32-6.39-14.04-13.55.26-6.75,6.27-12.06,13.72-12.38-1.44-.32-2.92-.51-4.45-.57-13.48-.53-24.47,8.99-24.96,20.88-.52,12.64,9.69,23.06,22.92,23.59,13.48.52,24.46-8.99,24.99-21.66.18-4.4-1.11-8.61-3.48-12.18h0ZM244.34,156.5c.33,1.07.5,2.2.5,3.37,0,7.16-6.53,12.98-14.6,12.98s-14.6-5.82-14.6-12.98c0-6.73,5.76-12.29,13.16-12.92-1.43-.26-2.91-.39-4.43-.39-13.47,0-24.07,9.2-24.07,21.87s10.39,22.64,23.86,22.64,24.08-9.97,24.08-22.64c0-4.37-1.43-8.48-3.9-11.93ZM244.34,156.5c.33,1.07.5,2.2.5,3.37,0,7.16-6.53,12.98-14.6,12.98s-14.6-5.82-14.6-12.98c0-6.73,5.76-12.29,13.16-12.92-1.43-.26-2.91-.39-4.43-.39-13.47,0-24.07,9.2-24.07,21.87s10.39,22.64,23.86,22.64,24.08-9.97,24.08-22.64c0-4.37-1.43-8.48-3.9-11.93ZM244.34,156.5c.33,1.07.5,2.2.5,3.37,0,7.16-6.53,12.98-14.6,12.98s-14.6-5.82-14.6-12.98c0-6.73,5.76-12.29,13.16-12.92-1.43-.26-2.91-.39-4.43-.39-13.47,0-24.07,9.2-24.07,21.87s10.39,22.64,23.86,22.64,24.08-9.97,24.08-22.64c0-4.37-1.43-8.48-3.9-11.93ZM124.31,171.34l-3.4-11.23-7.48-24.6-4.73-16.64c18.88-10.14,37.79-2,40.43,12.53,3.61,20.11-10.64,30.92-24.82,39.94ZM138.39,133.33c-.67-3.72-3.72-5.72-5.48-6.56-3.12-1.51-6.98-1.86-10.98-1.16l1.93,6.74,6.44,21.21c6.73-5.95,9.6-11.88,8.09-20.23ZM124.31,171.34l-3.4-11.23-7.48-24.6-4.73-16.64c18.88-10.14,37.79-2,40.43,12.53,3.61,20.11-10.64,30.92-24.82,39.94ZM138.39,133.33c-.67-3.72-3.72-5.72-5.48-6.56-3.12-1.51-6.98-1.86-10.98-1.16l1.93,6.74,6.44,21.21c6.73-5.95,9.6-11.88,8.09-20.23ZM436.08,110.45l-33.83,38.5c-.95-.63-1.86-1.33-2.74-2.14-10.57-9.58-11.34-25.9-1.72-36.47,9.58-10.56,25.9-11.33,36.46-1.72v-.03c.64.6,1.27,1.23,1.83,1.86ZM407.62,129.62l15.19-17.42c-6.42-2.45-13.68-.73-18.28,4.32-.23.26-.46.52-.68.79-.21.27-.42.54-.62.82-.19.28-.38.56-.56.85s-.35.58-.51.88c-.15.28-.29.56-.42.85-.05.08-.08.15-.1.23-.12.24-.22.49-.32.74-.01.03-.02.06-.03.09-.1.24-.18.49-.26.73-.02.04-.03.08-.04.12-.02.05-.04.11-.05.16-.09.27-.16.53-.23.8-.01.02-.01.05-.02.07-.09.38-.17.76-.24,1.14-.01.07-.03.13-.04.2-.07.41-.12.82-.16,1.24-.02.25-.04.5-.05.76-.04.92-.01,1.85.1,2.77.08.68.21,1.36.38,2.04.08.34.18.68.29,1.01.32,1.02.75,2.02,1.28,2.98l.03-.04,5.34-6.13h0ZM436.08,110.45l-33.83,38.5c-.95-.63-1.86-1.33-2.74-2.14-10.57-9.58-11.34-25.9-1.72-36.47,9.58-10.56,25.9-11.33,36.46-1.72v-.03c.64.6,1.27,1.23,1.83,1.86ZM407.62,129.62l15.19-17.42c-6.42-2.45-13.68-.73-18.28,4.32-.23.26-.46.52-.68.79-.21.27-.42.54-.62.82-.19.28-.38.56-.56.85s-.35.58-.51.88c-.15.28-.29.56-.42.85-.05.08-.08.15-.1.23-.12.24-.22.49-.32.74-.01.03-.02.06-.03.09-.1.24-.18.49-.26.73-.02.04-.03.08-.04.12-.02.05-.04.11-.05.16-.09.27-.16.53-.23.8-.01.02-.01.05-.02.07-.09.38-.17.76-.24,1.14-.01.07-.03.13-.04.2-.07.41-.12.82-.16,1.24-.02.25-.04.5-.05.76-.04.92-.01,1.85.1,2.77.08.68.21,1.36.38,2.04.08.34.18.68.29,1.01.32,1.02.75,2.02,1.28,2.98l.03-.04,5.34-6.13h0ZM124.31,171.34l-3.4-11.23-7.48-24.6-4.73-16.64c18.88-10.14,37.79-2,40.43,12.53,3.61,20.11-10.64,30.92-24.82,39.94ZM138.39,133.33c-.67-3.72-3.72-5.72-5.48-6.56-3.12-1.51-6.98-1.86-10.98-1.16l1.93,6.74,6.44,21.21-.02.02h.03v-.02c6.72-5.95,9.59-11.88,8.08-20.23ZM407.62,129.62l15.19-17.42c-6.42-2.45-13.68-.73-18.28,4.32,1.17-1.33,2.62-2.48,4.28-3.4,4.32-2.39,9.44-2.74,14.04-.95l-15.23,17.45ZM404.53,116.52c-.23.26-.46.52-.68.79.19-.27.42-.53.68-.79ZM403.85,117.31c-.21.27-.42.54-.62.82.18-.28.38-.55.62-.82ZM400.3,129.76c-.12-.92-.16-1.85-.1-2.77-.04.92-.01,1.85.1,2.77ZM436.08,110.45l-33.83,38.5c-.95-.63-1.86-1.33-2.74-2.14-10.57-9.58-11.34-25.9-1.72-36.47,9.58-10.56,25.9-11.33,36.46-1.72v-.03c.64.6,1.27,1.23,1.83,1.86ZM407.62,129.62l15.19-17.42c-6.42-2.45-13.68-.73-18.28,4.32-.23.26-.46.52-.68.79-.21.27-.42.54-.62.82-.19.28-.38.56-.56.85s-.35.58-.51.88c-.15.28-.29.56-.42.85-.05.08-.08.15-.1.23-.12.24-.22.49-.32.74-.01.03-.02.06-.03.09-.1.24-.18.49-.26.73-.02.04-.03.08-.04.12-.02.05-.04.11-.05.16-.09.27-.16.53-.23.8-.01.02-.01.05-.02.07-.09.38-.17.76-.24,1.14-.01.07-.03.13-.04.2-.07.41-.12.82-.16,1.24-.02.25-.04.5-.05.76-.04.92-.01,1.85.1,2.77.08.68.21,1.36.38,2.04.08.34.18.68.29,1.01.32,1.02.75,2.02,1.28,2.98l.03-.04,5.34-6.13h0ZM407.62,129.62l15.19-17.42c-6.42-2.45-13.68-.73-18.28,4.32,1.17-1.33,2.62-2.48,4.28-3.4,4.32-2.39,9.44-2.74,14.04-.95l-15.23,17.45ZM404.53,116.52c-.23.26-.46.52-.68.79.19-.27.42-.53.68-.79ZM403.85,117.31c-.21.27-.42.54-.62.82.18-.28.38-.55.62-.82ZM400.3,129.76c-.12-.92-.16-1.85-.1-2.77-.04.92-.01,1.85.1,2.77Z"/>
</svg>