<?xml version="1.0" encoding="UTF-8"?>
<svg id="Layer_1" data-name="Layer 1" xmlns="http://www.w3.org/2000/svg" viewBox="0 0 801.74 800">
  <defs>
    <style>
      .cls-1 {
        fill: #ffc800;
      }
    </style>
  </defs>
  <g id="Layer_1-2" data-name="Layer 1">
    <g id="uuid-714788d6-7d27-45ca-80fa-bfe5d60d34b1" data-name="Layer 1-2" data-sanitized-data-name="Layer_1">
      <path class="cls-1" d="M685.22,117.39C609.57,41.74,508.7,0,401.74,0s-77.39,5.22-113.91,16.52c-6.09,1.74-9.57,8.7-7.83,14.78,1.74,6.09,8.7,9.57,14.78,7.83,34.78-10.43,70.43-15.65,106.96-15.65s14.78,0,21.74,0c0,15.65-1.74,31.3-3.48,46.96l-5.22-6.96c-4.35-5.22-11.3-6.09-16.52-1.74-5.22,4.35-6.09,11.3-1.74,16.52l18.26,22.61c-2.61,11.3-5.22,21.74-7.83,32.17l-3.48-6.96c-3.48-6.09-10.43-7.83-15.65-4.35-6.09,3.48-7.83,10.43-4.35,15.65l13.91,26.09c-4.35,12.17-10.43,24.35-16.52,36.52l-3.48-8.7c-2.61-6.09-9.57-8.7-15.65-6.96-6.09,2.61-8.7,9.57-6.96,15.65l10.43,26.96c-7.83,12.17-15.65,24.35-24.35,35.65v-8.7c-2.61-6.09-8.7-10.43-14.78-9.57-6.09,0-10.43,6.96-9.57,13.04l4.35,28.7c-5.22,6.09-11.3,12.17-16.52,17.39l-8.7,8.7v-7.83c0-6.09-4.35-12.17-10.43-12.17s-12.17,4.35-12.17,11.3l-1.74,30.43c-11.3,9.57-23.48,18.26-36.52,26.09l1.74-7.83c0-6.09-2.61-12.17-9.57-13.91-6.09,0-12.17,2.61-13.91,9.57l-6.09,28.7c-12.17,6.09-24.35,12.17-37.39,17.39l2.61-6.09c2.61-6.09,0-13.04-6.96-15.65-6.09-2.61-13.04,0-15.65,6.96l-10.43,26.09c-13.91,4.35-27.83,7.83-42.61,11.3l5.22-6.96c3.48-5.22,2.61-13.04-2.61-16.52-5.22-3.48-13.04-2.61-16.52,2.61l-17.39,25.22c-13.91,1.74-27.83,2.61-41.74,2.61v-23.48c0-73.91,20.87-145.22,61.74-206.96,39.13-60,93.91-106.96,159.13-136.52,6.09-2.61,8.7-9.57,6.09-15.65s-9.57-8.7-15.65-6.09c-68.7,31.3-127.83,81.74-169.57,145.22C22.61,245.22,0,320.87,0,399.13s41.74,207.83,117.39,283.48c75.65,75.65,176.52,117.39,283.48,117.39s209.57-42.61,285.22-119.13c4.35-4.35,4.35-12.17,0-16.52s-12.17-4.35-16.52,0c-71.3,72.17-166.96,112.17-268.7,112.17s-15.65,0-23.48,0c0-13.91,0-27.83,2.61-41.74l25.22-17.39c5.22-3.48,6.96-11.3,2.61-16.52-3.48-5.22-11.3-6.96-16.52-2.61l-6.96,5.22c2.61-13.91,6.96-28.7,11.3-42.61l26.09-10.43c6.09-2.61,8.7-9.57,6.96-15.65-2.61-6.09-9.57-8.7-15.65-6.96l-6.09,2.61c5.22-12.17,11.3-25.22,17.39-37.39l28.7-6.09c6.09,0,10.43-7.83,9.57-13.91,0-6.09-7.83-10.43-13.91-9.57l-7.83,1.74c7.83-12.17,16.52-24.35,26.09-36.52l30.43-1.74c6.09,0,11.3-6.09,11.3-12.17s-6.09-11.3-12.17-11.3h-7.83l8.7-8.7c6.09-6.09,11.3-11.3,17.39-16.52l30.43,4.35c6.09,0,10.43-4.35,11.3-9.57,0-6.09-3.48-12.17-9.57-13.04h-8.7c11.3-10.43,23.48-18.26,35.65-26.09l26.96,10.43c6.09,2.61,13.04,0,15.65-6.96,2.61-6.09,0-13.04-6.96-15.65l-8.7-3.48c12.17-6.09,24.35-11.3,36.52-16.52l26.09,13.91c1.74,0,3.48,1.74,6.09,1.74,4.35,0,7.83-2.61,10.43-6.09,3.48-6.09,0-13.04-4.35-15.65l-6.96-3.48c10.43-3.48,21.74-6.09,32.17-7.83l22.61,18.26c2.61,1.74,5.22,2.61,7.83,2.61s6.96-1.74,8.7-4.35c4.35-5.22,3.48-12.17-1.74-16.52l-6.96-5.22c15.65-1.74,30.43-3.48,46.96-3.48v21.74c0,81.74-25.22,159.13-73.91,224.35-3.48,5.22-2.61,12.17,2.61,16.52,1.74,1.74,4.35,2.61,6.96,2.61s6.96-1.74,9.57-4.35c51.3-69.57,78.26-151.3,78.26-238.26s-41.74-207.83-117.39-283.48v2.61h.87ZM729.57,358.26l4.35-6.09c4.35-5.22,2.61-12.17-2.61-16.52-5.22-4.35-12.17-2.61-16.52,2.61l-20,26.09c-11.3,2.61-22.61,5.22-33.91,8.7l3.48-7.83c2.61-6.09,0-13.04-5.22-15.65-6.09-2.61-13.04,0-15.65,5.22l-14.78,28.7c-12.17,4.35-23.48,9.57-35.65,15.65l2.61-6.09c1.74-6.09,0-13.04-6.96-14.78-6.09-1.74-13.04,0-14.78,6.96l-11.3,31.3c-13.04,7.83-25.22,16.52-37.39,25.22v-7.83c1.74-6.09-2.61-12.17-9.57-13.04-6.09,0-12.17,3.48-13.04,10.43l-4.35,32.17c-6.09,5.22-12.17,11.3-18.26,17.39s-6.96,6.96-10.43,10.43v-8.7c-1.74-6.09-6.96-11.3-13.91-10.43-6.09,0-11.3,6.09-10.43,13.04l2.61,31.3c-9.57,12.17-19.13,25.22-27.83,38.26l-1.74-7.83c-1.74-6.09-7.83-10.43-13.91-8.7-6.09,1.74-10.43,7.83-8.7,13.91l7.83,31.3c-6.96,13.04-13.04,26.96-19.13,40l-3.48-8.7c-2.61-6.09-9.57-8.7-15.65-6.09s-8.7,9.57-6.09,15.65l13.91,31.3c-4.35,13.91-7.83,27.83-11.3,42.61l-4.35-6.09c-3.48-5.22-11.3-6.09-16.52-2.61-5.22,3.48-6.09,11.3-2.61,16.52l18.26,24.35c-1.74,14.78-2.61,28.7-3.48,43.48-83.48-10.43-160-47.83-220-107.83-60-60-97.39-137.39-107.83-220,14.78,0,29.57-1.74,43.48-3.48l24.35,18.26c1.74,1.74,4.35,2.61,6.96,2.61s6.96-1.74,9.57-4.35c3.48-5.22,2.61-12.17-2.61-16.52l-6.09-4.35c14.78-2.61,28.7-6.96,42.61-11.3,0,0,34.78,14.78,36.52,14.78,4.35,0,8.7-2.61,10.43-6.96,2.61-6.09,0-13.04-6.09-15.65l-8.7-3.48c13.91-5.22,26.96-12.17,40-19.13,0,0,33.04,7.83,33.91,7.83,5.22,0,10.43-3.48,11.3-8.7,1.74-6.09-2.61-13.04-8.7-13.91l-7.83-1.74c13.04-8.7,26.09-17.39,38.26-27.83l31.3,2.61h0c6.09,0,11.3-4.35,11.3-10.43s-4.35-12.17-10.43-13.04h-8.7c3.48-4.35,6.96-7.83,10.43-11.3,6.09-6.09,11.3-12.17,17.39-18.26l32.17-4.35c6.09,0,11.3-6.96,10.43-13.04,0-6.09-6.96-11.3-13.04-10.43h-7.83c9.57-11.3,17.39-23.48,25.22-36.52l31.3-11.3c6.09-1.74,9.57-8.7,6.96-14.78-1.74-6.09-8.7-9.57-14.78-6.96l-6.09,2.61c6.09-11.3,11.3-23.48,15.65-35.65l28.7-14.78c6.09-2.61,7.83-10.43,5.22-15.65-2.61-6.09-10.43-7.83-15.65-5.22l-7.83,3.48c3.48-11.3,6.09-22.61,8.7-33.91l26.09-20c5.22-4.35,6.09-11.3,2.61-16.52-4.35-5.22-11.3-6.09-16.52-2.61l-6.09,4.35c1.74-15.65,3.48-31.3,3.48-46.96,83.48,9.57,160.87,46.96,220.87,107.83,60,60,97.39,137.39,107.83,220.87-15.65,0-31.3,1.74-46.96,3.48l4.35,2.61h.87Z"/>
    </g>
  </g>
</svg>