<?xml version="1.0" encoding="UTF-8"?>
<svg id="Layer_1" data-name="Layer 1" xmlns="http://www.w3.org/2000/svg" viewBox="0 0 800 801.79">
  <g id="Layer_1-2" data-name="Layer 1">
    <g id="uuid-86f663b9-c487-4b3f-9aea-b940c2ce0384" data-name="Layer 1-2" data-sanitized-data-name="Layer_1">
      <path d="M793.58,69.41h0c-4.35-33.05-29.57-58.28-61.76-62.63h0c-106.12-14.79-209.62-5.22-306.17,26.96-91.33,30.44-175.7,81.76-242.68,149.61-67.85,67.85-119.16,151.35-149.61,242.68C1.18,522.58-7.52,625.22,6.4,732.21h0c4.35,33.05,29.57,58.28,61.76,62.63h0c32.18,4.35,65.24,6.96,97.42,6.96,106.99,0,209.62-24.35,301.82-73.06,115.68-60.02,207.02-153.96,265.29-270.51,2.61-6.09,0-13.05-5.22-15.66-6.09-2.61-13.05,0-15.66,5.22-55.67,112.21-144.39,201.8-255.72,260.07-27.83,14.79-55.67,26.96-85.24,36.53-61.76-41.75-120.03-90.46-173.09-142.65-13.05-13.05-26.09-26.96-39.14-40.88-4.35-5.22-12.18-5.22-16.53,0-5.22,4.35-5.22,12.18,0,16.53,13.05,13.92,26.09,27.83,39.14,41.75,49.58,49.58,103.51,94.81,160.92,134.82-12.18,3.48-48.71,12.18-49.58,12.18-48.71-36.53-95.68-76.54-139.17-120.03s-83.5-89.59-120.03-139.17c3.48-16.53,6.96-33.05,12.18-48.71h0c18.27,26.96,38.27,52.19,59.15,77.41,4.35,5.22,11.31,6.09,16.53,1.74,5.22-4.35,6.09-11.31,1.74-16.53-24.35-28.7-46.97-60.02-68.72-91.33,29.57-86.11,78.28-165.26,142.65-229.63,63.5-63.5,143.52-113.08,229.63-142.65,61.76,41.75,120.03,90.46,173.09,142.65,53.06,53.06,100.9,110.47,142.65,173.09-2.61,8.7-6.09,17.4-9.57,26.09-2.61,6.09,0,13.05,6.96,15.66,6.09,2.61,13.05,0,15.66-6.96,40.88-103.51,53.93-220.93,38.27-337.49h0v-.87ZM137.74,661.75c39.14,39.14,80.02,74.8,123.51,108.73-61.76,9.57-125.25,9.57-190.49,0h0c-21.75-3.48-39.14-20.01-41.75-42.62h0c-8.7-66.11-8.7-129.6,0-191.36,33.92,43.49,70.45,85.24,108.73,123.51v1.74ZM727.47,29.4h0c21.75,3.48,39.14,20.01,41.75,42.62h0c8.7,65.24,8.7,128.73,0,190.49-33.92-43.49-69.58-85.24-108.73-123.51-39.14-39.14-80.02-75.67-124.38-108.73,61.76-9.57,125.25-9.57,190.49,0h0l.87-.87ZM617.01,183.35c-49.58-49.58-103.51-94.81-160.92-134.82h0c15.66-4.35,32.18-8.7,48.71-12.18,48.71,36.53,95.68,76.54,139.17,120.03,43.49,43.49,83.5,89.59,120.03,138.3-3.48,16.53-6.96,33.05-12.18,49.58-40.01-57.41-85.24-111.34-134.82-160.92Z"/>
      <path d="M533.5,266.86c-4.35-4.35-12.18-4.35-16.53,0l-26.96,26.96-22.62-22.62c-4.35-4.35-12.18-4.35-16.53,0s-4.35,12.18,0,16.53l22.62,22.62-28.7,28.7-22.62-22.62c-4.35-4.35-12.18-4.35-16.53,0s-4.35,12.18,0,16.53l22.62,22.62-28.7,28.7-22.62-22.62c-4.35-4.35-12.18-4.35-16.53,0s-4.35,12.18,0,16.53l22.62,22.62-28.7,28.7-22.62-22.62c-4.35-4.35-12.18-4.35-16.53,0s-4.35,12.18,0,16.53l22.62,22.62-28.7,28.7-22.62-22.62c-4.35-4.35-12.18-4.35-16.53,0s-4.35,12.18,0,16.53l22.62,22.62-26.96,26.96c-4.35,4.35-4.35,12.18,0,16.53,2.61,2.61,5.22,3.48,8.7,3.48s6.09,0,8.7-3.48l26.96-26.96,22.62,22.62c2.61,2.61,5.22,3.48,8.7,3.48s6.09,0,8.7-3.48c4.35-4.35,4.35-12.18,0-16.53l-22.62-22.62,28.7-28.7,22.62,22.62c2.61,2.61,5.22,3.48,8.7,3.48s6.09,0,8.7-3.48c4.35-4.35,4.35-12.18,0-16.53l-22.62-22.62,28.7-28.7,22.62,22.62c2.61,2.61,5.22,3.48,8.7,3.48s6.09,0,8.7-3.48c4.35-4.35,4.35-12.18,0-16.53l-22.62-22.62,28.7-28.7,22.62,22.62c2.61,2.61,5.22,3.48,8.7,3.48s6.09,0,8.7-3.48c4.35-4.35,4.35-12.18,0-16.53l-22.62-22.62,28.7-28.7,22.62,22.62c2.61,2.61,5.22,3.48,8.7,3.48s6.09,0,8.7-3.48c4.35-4.35,4.35-12.18,0-16.53l-22.62-22.62,26.96-26.96c4.35-4.35,4.35-12.18,0-16.53,0,0-5.22,0-5.22,0Z"/>
    </g>
  </g>
</svg>