<?xml version="1.0" encoding="UTF-8"?>
<svg id="Layer_1" data-name="Layer 1" xmlns="http://www.w3.org/2000/svg" viewBox="0 0 800 268.97">
  <path d="M78.33,268.96c-1.01-8.16-1.76-15.45-2.84-22.69-3.66-24.4-10.67-47.61-25.11-68.03-12.14-17.17-28.03-29.69-47.54-37.53-2.31-.92-3.04-2.09-2.79-4.5,2.6-26.18,5.11-52.37,7.68-78.55.05-.44.35-.86,1.51-1.32.77,7.4,1.37,14.82,2.37,22.18,1.02,7.55,2.19,15.1,3.69,22.56,1.5,7.43,3.5,14.75,5.27,22.04,8.26-1.04,8.77-1.39,10.47-8.53,5.56-23.29,8.67-46.96,10.92-70.76.52-5.5.97-11.01,1.45-16.51.4-.02.81-.02,1.21-.04.15,1.09.35,2.18.42,3.28,1.7,27.42,4.38,54.72,9.69,81.72.57,2.89,1.6,3.44,4.27,3.07,6.03-.85,6.38-.69,7.17-6.8,3.24-24.95,6.4-49.91,9.27-74.91,1.21-10.59,1.61-21.29,2.41-31.94.04-.56.33-1.09,1.31-1.7.2.83.51,1.65.59,2.49,1.92,21.52,3.49,43.08,5.82,64.56,1.62,14.89,4.32,29.67,6.47,44.51.79,5.43,5.24,3.11,8.1,3.81,2.93.71,2.52-2.18,2.85-3.85,5.19-26.5,7.96-53.29,9.51-80.23.08-1.34.33-2.66.5-3.99.34-.02.69-.03,1.03-.05.18,1.25.44,2.49.54,3.75,2.24,28.04,5.49,55.93,11.96,83.37,1.17,4.94,4.54,7.89,10.12,8.87,7.14-21.66,9.66-44.19,11.63-66.83l.99-.14c.27,1.05.69,2.08.79,3.14,2.51,25.69,4.97,51.39,7.5,77.08.18,1.85.02,3.02-1.98,3.84-36.68,14.79-57.71,43.11-67.74,80.17-3.79,14.03-5.26,28.7-7.77,43.07-.22,1.25-.3,2.53-.51,3.77-.05.3-.4.54-1.24,1.63v-.02h0ZM214.01,196.99h-53.22c.54-.88.75-1.46,1.14-1.82,9.04-8.16,15.35-18.14,20.27-29.22,8.14-18.36,16.69-36.55,25.06-54.81,2.22-4.85,1.9-7.84-2.26-11.12-3.25-2.56-7.08-4.4-10.69-6.5-1.05-.61-2.2-1.03-3.27-2.42.84-.18,1.68-.52,2.52-.52,14.49-.03,29,.04,43.49-.08,2.81-.02,3.68,1.56,4.56,3.66,5.76,13.71,11.59,27.4,17.4,41.09.49,1.14,1.04,2.26,1.56,3.37.5-.18.87-.2.95-.36,4.88-10.48,9.79-20.95,14.56-31.48,1.56-3.45.4-6.57-2.24-8.98-2.48-2.27-5.25-4.21-8.59-6.84h56.59c-.94.89-1.36,1.44-1.92,1.79-6.55,3.98-8.21,8.61-5.3,15.82,2.79,6.96,5.8,13.83,8.73,20.73,6.45,15.21,12.46,30.64,19.56,45.54,3.27,6.85,8.65,12.72,13.21,18.92.66.91,2.15,1.21,3.27,1.79-.37.46-.73.92-1.1,1.37h-60.28c1.43-1.19,2.14-1.82,2.89-2.39,5.67-4.29,7.93-9.52,5.36-16.04-6.07-15.36-12.72-30.49-19.16-45.71-.08-.18-.4-.27-1.24-.83-11.23,24.39-22.42,48.7-33.6,72.99l-1.32-.03c-10.29-24.25-20.58-48.5-31.29-73.73-1.09,2.01-1.79,3.11-2.33,4.28-5.37,11.66-10.53,23.43-16.17,34.97-3.08,6.3-2.02,11.6,2.46,16.43,2.4,2.6,5.26,4.76,7.95,7.09.92.79,1.94,1.47,2.92,2.2-.15.27-.31.56-.45.83h-.02ZM550.1,143.63h45.7c3.41,0,5.12,1.67,5.12,5v67.52c0,1.18-.12,2.36-1.05,3.67-.33-.83-.69-1.66-.98-2.5-3.43-10.01-9.95-17.4-20.08-20.33-4.76-1.37-10.33-.89-15.36-.11-16.39,2.53-32.41,2.38-47.95-4.21-21.25-9.01-34.47-27.71-33.79-48.98.7-22.01,12.9-36.56,31.8-46.15,9.68-4.91,20.14-6.95,30.98-6.98,14.49-.02,28.99,0,43.49,0h4.85c-5.6,12.28-10.82,23.72-16.04,35.15-.4-.04-.79-.08-1.18-.11-.4-1.1-.82-2.2-1.2-3.31-4.2-12.21-15.35-19.88-26.72-18.24-8.07,1.17-13.99,5.85-17.34,12.94-8.6,18.16-8.71,36.76-.18,54.88,5.45,11.58,18.24,16.21,29.26,11.99,2.47-.95,3.57-2.24,3.46-5.05-.23-5.97-.3-11.96-.02-17.92.33-6.91-2.72-11.38-8.88-14.05-1.43-.63-2.82-1.37-4.24-2.07.12-.38.24-.76.36-1.14v.02-.02ZM489.12,196.83h-60.5c1.24-1.16,1.81-1.78,2.47-2.31,6.14-4.92,7.91-10.27,4.89-17.53-9.41-22.66-19.07-45.22-28.63-67.82-.19-.44-.53-.82-1.27-1.97-6.72,14.6-13.19,28.69-20.04,43.58h32.96c.16.32.32.65.48.97-23.75,8.69-32.71,26.77-32.39,50.74l-.96.54c-4.43-3.66-9.37-6.88-13.18-11.11-5.59-6.21-10.35-13.16-15.5-19.77-1.7-2.18-1.53-4.21-.38-6.66,9.05-19.49,17.98-39.04,26.96-58.57,2.9-6.31,2.32-8.63-3.32-12.87-.91-.68-1.8-1.38-2.66-2.12-.13-.11-.05-.47-.09-.99h72c-.05.52-.02.7-.08.76-7.63,7.49-7.76,8.28-3.46,18.42,8.79,20.72,17.66,41.41,26.3,62.18,3.49,8.38,8.44,15.62,14.96,21.86.54.52,1.04,1.11,1.5,1.7.11.15,0,.47-.04.95h-.02v.02ZM793.37,90.98c-5.5,11.94-10.75,23.34-16.01,34.74-.37-.08-.74-.15-1.11-.23-.43-1.14-.87-2.27-1.27-3.41-5.24-14.8-19.81-22.14-32.68-16.32-7.87,3.56-12.24,10.21-14.55,18.17-3.95,13.61-4.13,27.39-.05,40.97,4.92,16.38,16.43,23,33.1,19.35,13.49-2.95,24.8-10.22,35.52-18.55.95-.74,1.95-1.45,3.68-1.63-.4.94-.73,1.92-1.21,2.8-14.24,25.85-46.36,37.82-75.95,28.07-17.52-5.77-31.07-16.38-37.65-34.11-8.15-21.97.76-45.64,21.68-59.22,10.85-7.05,22.81-10.72,35.62-10.99,16.01-.34,32.04-.08,48.06-.07.72,0,1.44.21,2.82.42h.02-.02ZM672.91,196.98h-56.01c.99-1.08,1.47-1.73,2.08-2.23,5.79-4.69,8.87-10.78,8.9-18.2.08-21.74.08-43.48,0-65.21-.02-7.12-2.9-13.05-8.33-17.71-.75-.64-1.5-1.29-3-2.59h56.88c-.45.69-.62,1.21-.98,1.47-7.61,5.53-10.09,13.25-10.01,22.3.14,17.54.21,35.09-.02,52.63-.15,11.12.23,21.82,11.28,28.71-.26.27-.51.54-.77.82h-.02ZM414.93,249.47h-8.51c.37-3.53.75-7.14,1.15-11.02h-10.63c.38,3.71.74,7.28,1.12,10.98h-8.71c1.91-9.02,1.58-17.91.25-27.08h8.68c-.48,3.08-.97,6.19-1.51,9.68h10.74c-.34-3.24-.66-6.34-1.02-9.68h8.71c-2.06,8.95-1.69,17.81-.27,27.13h0ZM196.89,222.14h8.76c-.47,3.21-.93,6.32-1.46,9.84h10.84c-.4-3.21-.79-6.41-1.21-9.72h8.85c-1.96,8.98-1.39,17.86-.37,27.03h-8.43c.4-3.38.82-6.88,1.29-10.75h-10.79c.34,3.56.66,7.05,1.01,10.77h-8.44c1.48-8.85,1.53-17.79-.07-27.16h.02ZM541.36,250.42l-16.5-15.51c-.3.11-.59.21-.89.31.25,4.62.5,9.23.76,14.07h-7.94c2.76-9.08.34-18.52,1.66-28.63,6.01,5.65,11.57,10.88,18.1,17.01-.3-5.72-.54-10.4-.8-15.32h7.48c-.26,3.28-.69,6.66-.77,10.06-.13,5.91-.04,11.82-.04,17.74l-1.08.27h.02ZM460.44,222.09h10.75c4.32-.02,8.24.92,10.04,5.37,1.66,4.12-.03,7.39-3.61,10.04,2.44,3.97,4.79,7.8,7.34,11.94-3.01.57-5.92,1.12-7.84-1.48-2.98-4.05-5.56-8.37-8.54-12.91,3.38-.74,6.84-.98,6.15-4.88-.55-3.12-3.26-3.47-6.65-2.92.52,7.27-1.4,14.64,1.41,22.07h-9.11c1.64-8.88,1.5-17.86.05-27.23h0ZM577.4,221.92v6.55c-3.08-.58-5.97-1.6-8.84-1.55-4.62.08-7.46,3.79-7.49,8.88-.03,4.92,2.68,8.66,7,8.95,1.66.11,4.74-.82,4.82-1.56.21-1.85-.8-3.9-1.55-5.78-.22-.57-1.17-.85-2.69-1.89h11.25c0,3.5.15,7.27-.11,11.02-.06.88-1.4,2.24-2.32,2.4-3.72.6-7.57,1.41-11.27,1.06-7.57-.71-12.32-6.87-11.99-14.61.32-7.64,5.64-13.48,13.01-13.9,3.26-.18,6.55.26,10.17.44h.01ZM301.06,235.38h11.33c0,3.68.15,7.34-.1,10.96-.06.92-1.32,2.43-2.14,2.5-4.6.44-9.39,1.36-13.83.56-6.5-1.18-10.04-7.63-9.42-15,.56-6.76,5.5-12.14,11.94-12.88,1.75-.2,3.55-.14,5.31-.02,1.89.12,3.75.45,5.85.72v6.24c-3.04-.55-6.05-1.58-9.04-1.53-4.69.08-7.85,4.62-7.39,9.74.46,4.99,3.96,8.63,8.26,8.16,1.42-.15,3.75-1.18,3.86-2.05.21-1.63-.72-3.52-1.5-5.14-.36-.75-1.49-1.12-3.14-2.27h.01ZM236.23,222.09c4.76,0,10.08-.11,15.38.11.85.04,2.05,1.36,2.39,2.34.41,1.21.1,2.68.1,3.69-3.4-.47-6.53-.91-10.02-1.4v5.68c2.79-.13,5.56-.26,8.51-.4v6.2c-2.72-.21-5.4-.43-9.01-.71.4,2.5.51,6.1,1.08,6.17,3.18.41,6.46-.02,9.87-.18,0,.19-.17,1.3-.09,2.4.22,3.08-1.27,3.84-4.14,3.72-4.89-.21-9.8-.06-14.41-.06,1.97-9.29,1.56-18.14.34-27.56h.02-.02ZM428.52,249.42c2.04-9.05,1.77-17.9.26-27.05h17.62v5.79c-3.07-.43-6.22-.87-9.79-1.37v5.78c2.82-.18,5.53-.34,8.41-.52v6.15c-2.69-.15-5.46-.31-9.11-.5.5,2.55.66,5.93,1.28,6.02,3.17.45,6.46.05,10.01-.06-.15,1.21-.4,3.4-.69,5.77h-18,0ZM330.14,249.39h-8.34c4.65-9.75,9.17-19.26,14.23-29.85,4.85,10.49,9.21,19.94,13.72,29.67h-8.36c-.16-5.11-.85-5.53-8.37-4.88-2.6.22-3.28,1.34-2.88,5.07h0ZM335.65,231.41c-1.25,3.26-2.12,5.51-3.07,7.98h6.39c-1.07-2.58-1.97-4.73-3.31-7.98h-.01ZM377.04,222.34c.28,2.05.55,4.01.83,6.09-2.42-.4-4.63-.78-7.5-1.26.79,7.83-1.45,15.13,1.77,22.27h-9.06v-22.14c-1.79.32-3.79.67-6.38,1.13.22-1.82.47-3.84.75-6.09h19.61-.02ZM164.2,228.5c-.43-4.28,1.42-6.42,5.55-6.42h8.4c4.19,0,6.33,2.11,6.43,6.34-2.09-.41-4.21-.83-7.08-1.4.63,7.75-1.35,15.01,1.51,22.3h-8.72c.18-4.81.37-9.61.54-14.41.02-.63-.04-1.27,0-1.91.43-6.07-.27-6.72-6.62-4.5h0ZM504.98,249.46h-8.79c1.79-9.02,1.3-17.9.37-27.1h8.52c-1.88,8.83-1.71,17.78-.1,27.1h0Z"/>
</svg>