<?xml version="1.0" encoding="UTF-8"?>
<svg id="Layer_1" data-name="Layer 1" xmlns="http://www.w3.org/2000/svg" viewBox="0 0 800 330.74">
  <defs>
    <style>
      .cls-1 {
        fill: #ffc800;
      }
    </style>
  </defs>
  <g id="disney">
    <path class="cls-1" d="M402.46,36c5.44.26,10.65,2.34,14.77,5.9,5.6,5.31,7.09,14.18,4.42,21.26-10.32,21.23-34.88,35.44-51.63,40.12-10.02,2.37-22.72,2.37-31.88-1.19-4.42,2.67-8.18,11.24-13.58,7.68-7.81-6.1-1.06-15.69-5.57-22.48-.92-1.38-3.26-1.52-4.45-3.79-6.2-13.58,1.48-26.57,10.02-36.89,14.28-15.92,55.19-33.66,77.91-10.62h0ZM354.95,46.65c-7.98,1.48-16.98,4.95-21.83,10.62-4.88,5.67-7.98,11.21-5.01,17.11,10.32-7.68,15.33-18.3,26.87-24.79,0-1.19,1.78-2.08,0-2.97l-.03.03ZM403.05,49.59c-20.37-1.78-35.71,13.58-50.18,28.32-.89,2.37-6.2,5.01-2.08,7.68,19.48,1.78,38.08-3.82,52.26-16.81,4.12-3.82,7.09-8.84,5.01-14.18-.89-2.08-2.97-4.12-5.01-5.01h0ZM579.5,137.55c9.46,23.01,17.41,59.31,0,81.47-4.71,5.31-12.99,10.22-18.3,6.2-19.48-15.63-27.73-38.08-39.83-58.12-1.78-.89-1.78,1.48-2.67,2.37-4.42,20.37,3.82,46.91-10.02,62.87-5.31.89-10.29-1.85-12.1-7.09-6.79-20.97.3-42.79,2.04-63.76,4.12-10.62,5.9-23.01,15.07-30.99,14.77,5.9,21.83,22.42,30.4,34.52,6.2,9.13,11.21,19.48,18.3,27.73,6.2-2.67,3.13-10.75,2.97-15.63-2.37-19.19-7.68-36.89-12.69-55.19-.3-4.71-2.93-12.69,2.08-15.63,13.29,5.9,18.89,19.78,24.79,31.29l-.03-.03h0ZM490.39,130.46c0,4.42-3.53,9.96-6.49,10.62-28.32,4.42-59.9,1.78-86.48,10.62-.89,3.23,2.93,3.82,5.01,4.71,22.72,3.53,46.62,4.42,68.77,10.02,11.7,2.97,15.96,16.81,16.81,28.32.53,9.07-2.93,20.08-11.8,26.28-21.83,13.88-55.19,13.29-77.31.59-8.47-4.75-16.52-12.4-17.11-21.83.07-7.48,3.26-13.42,8.57-16.22,21.26-8.57,47.51-3.82,65.81,7.09,1.19,5.9-5.21,5.57-8.28,7.68-20.37,11.8-35.71-13.29-54.6-4.12-2.67,1.78-4.58,6.69-1.48,8.28,23.31,10.32,49.29,2.93,72.3-3.53,2.67-.89,5.9-3.53,6.2-6.2-.89-9.46-11.51-11.51-18.3-14.18-20.08-5.01-42.2-5.01-63.76-7.09-4.12-.89-9.4-3.76-10.62-7.09-2.37-7.09-2.37-16.81,2.93-22.72,27.43-24.2,69.04-22.12,103.88-15.63,2.37.86,5.01,1.75,5.9,4.42h0l.03-.03h.02,0ZM361.45,141.67c2.67,28.32,4.12,54.6,3.53,84.4-.59,3.82-5.01,4.71-7.98,6.2-4.71.89-10.81-.13-12.69-2.67-6.79-10.91-4.42-25.68-5.01-38.97.89-20.94.59-43.68,6.49-63.17,1.12-2.84,4.42-5.31,7.09-3.56,7.09,3.56,8.28,10.62,8.57,17.7h0v.07h0ZM689.32,137.55c1.42,2.37,2.9,6.07,0,7.68-13.29,5.9-31.29,3.23-46.62,5.01-4.12,3.53-7.39,9.43-5.9,14.77,1.48.89,2.8,2.24,4.42,2.08,9.43.59,23.61-4.42,29.8,4.42,1.52,2.64-.2,12.46-4.42,12.69-11.51,1.48-30.46-1.45-36,1.48-7.09,4.71-6.49,13.88-9.17,21.26,5.01,3.23,10.29-.07,16.22-.89,10.95-1.78,23.05-5.01,33.96-2.67,2.08,3.82,5.01,7.98,2.93,12.69-18.59,14.77-42.6,29.87-68.18,19.19-9.59-4.29-13.88-18.89-10.62-31.29,2.08-8.87,11.21-17.41,5.6-26.87-.89-4.12,1.48-7.68,5.01-8.57,9.73,0,7.68-12.1,12.69-17.7-5.6-6.2-19.78-5.9-18.3-18.3,6.79-3.53,15.07-2.37,22.72-3.53,17.41-3.56,36.89-5.6,54.6-3.56,3.53.73,8.24,7.68,11.21,12.1h.05ZM267.88,70.26c27.23,22.25,62.57,60.2,58.12,103.88-5.31,34.52-41.9,60.5-72.89,68.77-30.1,8.84-67.88,7.98-98.58.89-2.08,5.6-4.12,12.4-10.62,14.77-4.12,1.48-9.46.59-12.69-2.08-9.13-8.57-1.78-25.09-15.07-30.4-25.98-10.91-54-32.47-67.29-59.01-1.78-5.31.3-10.62,3.53-14.74,20.37-16.22,46.02-22.72,71.71-27.73,1.48.59.89-1.48,2.08-2.08,1.48-17.7,2.08-35.71,7.68-51.66,1.29-2.24,4.42-2.93,6.49-1.48,16.22,12.4,8.57,35.71,15.63,52.52,30.99,1.48,61.98,2.93,86.48,20.37,8.28,6.79,10.29,19.75,7.68,27.17-2.6,7.39-11.21,12.69-19.19,13.29-5.31,0-15.33.53-14.77-3.53.59-4.06,18.07-10.71,12.69-16.22-7.71-7.95-46.29-12.69-70.19-15.63-2.93-.59-5.67.3-5.67,3.53-.59,22.42-2.37,47.21,1.48,68.77.3,1.48,2.08,3.26,3.56,3.53,42.2,6.79,86.77,2.93,119.81-21.23,15.33-12.4,20.37-29.8,17.7-48.99-13.29-53.41-69.07-85.59-114.8-106.26-44.57-19.48-93.86-29.51-146.68-26.87-8.41.63-21.73,3.53-21.83,6.49-.1,2.97,15.1,2.04,13.29,7.68-1.81,5.64-17.28,2.27-21.83.89C-.85,33.5-.38,26.94.8,22.82,12.31,2.44,44.42.79,58.93.1c80.28-2.08,157.89,28.49,208.96,70.22h0v-.07h-.01ZM123.28,149.35c-20.37.3-41.9,2.37-60.79,9.43-3.82,1.48-8.57,5.6-5.6,10.62,7.68,10.32,18.63,18.79,28.91,24.79,10.29,5.97,23.9,13.58,36.3,15.36,2.93-19.19,2.93-38.08,2.67-57.86-1.19-.59,0-1.78-1.48-2.37h0v.03h-.01ZM733.27,122.48c-.89,25.68-24.79,41.61-24.79,67.29.89.89,1.48,2.08,2.67,1.48,19.19-20.97,38.08-50.77,66.1-59.61,7.38-.59,14.08,5.84,16.81,10.62,9.73,19.48,7.38,46.91-6.2,64.62-14.01,17.37-38.38,34.82-66.1,31.88-11.51,28.32-19.48,58.12-23.9,89.11-2.37,6.2-7.95.59-11.51-.59-23.9-18.89-4.29-68.87-2.67-75.27,1.62-6.36,8.01-21.36,12.69-33.92-11.21-20.08-4.12-44.28,5.01-62.87,7.09-12.4,16.81-24.79,28.35-34.22,1.45,0,2.64.3,3.53,1.48h.01ZM780.81,154.36c-3.53-.59-5.01,4.12-7.98,5.01-13.58,15.33-27.17,30.69-33.96,48.99,9.17,1.19,16.81-4.71,24.79-7.98,13.58-8.57,22.12-22.72,21.23-38.97-.59-2.67-2.97-4.71-4.12-7.09h0l.03.03h.01Z"/>
  </g>
</svg>