<?xml version="1.0" encoding="UTF-8"?>
<svg id="Layer_1" data-name="Layer 1" xmlns="http://www.w3.org/2000/svg" viewBox="0 0 982.9 587.51">
  <defs>
    <style>
      .cls-1, .cls-2 {
        fill: #231f20;
      }

      .cls-3 {
        fill: #262626;
      }

      .cls-3, .cls-2, .cls-4 {
        fill-rule: evenodd;
      }

      .cls-5 {
        fill: #ffc800;
      }
    </style>
  </defs>
  <g>
    <g>
      <path class="cls-5" d="M71.43,7h840.04c35.56,0,64.43,28.87,64.43,64.43v444.65c0,35.56-28.87,64.43-64.43,64.43H71.43c-35.56,0-64.43-28.87-64.43-64.43V71.43C7,35.87,35.87,7,71.43,7Z"/>
      <path d="M911.47,14c31.67,0,57.43,25.76,57.43,57.43v444.65c0,31.67-25.76,57.43-57.43,57.43H71.43c-31.67,0-57.43-25.76-57.43-57.43V71.43c0-31.67,25.76-57.43,57.43-57.43h840.04M911.47,0H71.43C31.98,0,0,31.98,0,71.43v444.65C0,555.53,31.98,587.51,71.43,587.51h840.04c39.45,0,71.43-31.98,71.43-71.43V71.43c0-39.45-31.98-71.43-71.43-71.43h0Z"/>
    </g>
    <rect x="188.31" y="0" width="67.92" height="587.51"/>
    <rect x="457.49" y="-112.79" width="67.92" height="982.9" transform="translate(870.11 -112.79) rotate(90)"/>
    <g>
      <g>
        <path class="cls-4" d="M160.02,544.86c-.45,0-.89-.09-1.31-.26l-.61-.25-.34-.57c-7.79-12.93-10.52-28.85-7.5-43.66.39-1.88.67-3.88-.21-4.59-.16-.13-.4-.28-.87-.28-.64,0-1.83.27-3.84,1.56l-29.6,19.31,4.74-7.64c7.69-12.41,15.28-24.56,21.03-33.76,8.32-13.28,17.2-27.43,26.2-41.58,3.85-6.15,7.74-12.26,10.69-16.9,1.04-1.64,2.15-3.73,3.32-5.94,3.41-6.42,7.28-13.69,12.72-16.87.51-.28,1.12-.6,1.81-.86,1.13-.43,2.27-.73,3.38-.91,1.04-.17,2.15-.26,3.27-.26,6.67,0,13.18,3.03,16.64,7.73l.06.06.17.26c5.08,7.33,3.51,16.79,1.58,24.2-.16.65-.34,1.32-.53,2l-.08.3c-.36,1.27-.72,2.55-1.11,3.82-11.78,40.53-30.45,78.38-55.49,112.48-1.3,1.73-2.68,2.6-4.12,2.6Z"/>
        <path class="cls-1" d="M202.89,393.4c5.78,0,11.93,2.6,15.11,7.04.05.04.07.11.11.16,4.44,6.41,3.28,14.9,1.29,22.56-.16.66-.34,1.32-.52,1.97-.38,1.36-.77,2.72-1.18,4.08-11.67,40.14-30.45,78.18-55.18,111.87-.63.84-1.55,1.79-2.51,1.79-.18,0-.37-.03-.55-.11-7.54-12.53-10.17-27.91-7.25-42.23.48-2.27.91-5.08-.91-6.55-.63-.52-1.36-.72-2.13-.72-1.63,0-3.45.94-4.92,1.88l-22.09,14.41c6.98-11.26,14-22.52,21.02-33.76,8.7-13.89,17.4-27.75,26.19-41.57,3.53-5.64,7.11-11.28,10.69-16.9,4.01-6.34,8.59-18.19,15.36-22.16.5-.27,1-.52,1.52-.73.95-.36,1.95-.64,2.97-.79.96-.16,1.96-.24,2.96-.24M202.89,389.4h0c-1.23,0-2.45.1-3.62.29-1.21.19-2.48.53-3.73,1-.82.32-1.51.68-2.01.95l-.05.03-.05.03c-5.93,3.47-9.93,11.01-13.47,17.66-1.16,2.17-2.25,4.23-3.25,5.81-2.96,4.65-6.86,10.78-10.7,16.91-9.02,14.18-17.88,28.31-26.19,41.57-5.76,9.21-13.35,21.37-21.03,33.77l-9.47,15.28,15.05-9.82,22.09-14.41c1.05-.67,1.75-.98,2.19-1.11,0,.43-.09,1.15-.33,2.33-3.13,15.32-.3,31.75,7.74,45.11l.68,1.14,1.23.5c.66.27,1.36.41,2.07.41,2.1,0,4.02-1.14,5.71-3.38,25.2-34.32,43.98-72.38,55.83-113.16.39-1.3.77-2.63,1.15-3.96l.04-.14c.19-.7.38-1.38.55-2.09,2.03-7.82,3.65-17.82-1.88-25.81l-.04-.06s-.05-.08-.09-.12l-.09-.13-.03-.03c-3.82-5.22-10.97-8.58-18.27-8.58h0Z"/>
      </g>
      <g>
        <path class="cls-4" d="M277.84,541.35c-1.46,0-2.85-.88-4.11-2.61-24.35-33.14-42.7-69.9-54.56-109.28-.6-1.94-1.17-3.92-1.69-5.77-.07-.25-.36-1.27-.44-1.53-1.99-7.13-3.65-15.39-.91-22.46.51-1.37,1.18-2.65,1.97-3.78,3.39-4.89,10.01-8.05,16.85-8.05,2.39,0,4.62.39,6.64,1.17,6.42,2.49,10.72,10.58,14.52,17.71,1.18,2.22,2.3,4.31,3.35,5.96l1.75,2.75c2.44,3.85,4.88,7.71,7.3,11.55,8.46,13.32,17.3,27.36,27.84,44.18,8.51,13.62,15,24.03,21.03,33.76l4.73,7.64-7.52-4.91c-3.71-2.42-18.44-12-22.09-14.38-1.99-1.3-3.17-1.57-3.81-1.57-.47,0-.71.15-.87.28-.89.71-.61,2.72-.22,4.6,3.03,14.81.29,30.71-7.49,43.65l-.34.57-.61.25c-.42.17-.86.26-1.32.26Z"/>
        <path class="cls-1" d="M234.97,389.88c2.07,0,4.1.33,5.92,1.04,7.66,2.97,12.6,16.11,16.9,22.88,3.01,4.76,6.05,9.54,9.04,14.3,9.33,14.7,18.6,29.42,27.84,44.18,7.02,11.23,14.05,22.49,21.02,33.75-7.36-4.8-14.73-9.58-22.09-14.38-1.46-.95-3.27-1.9-4.9-1.9-.77,0-1.51.21-2.14.74-1.81,1.45-1.38,4.26-.91,6.55,2.92,14.3.29,29.68-7.25,42.21-.19.08-.37.11-.56.11-.96,0-1.87-.93-2.5-1.79-24.08-32.78-42.52-69.71-54.26-108.67-.59-1.9-1.13-3.8-1.68-5.73-.14-.5-.29-1.02-.43-1.52-1.93-6.91-3.49-14.73-.97-21.2.43-1.15,1-2.29,1.75-3.35,3.14-4.53,9.37-7.2,15.22-7.2M234.97,385.88h0c-7.48,0-14.74,3.5-18.5,8.92-.88,1.25-1.62,2.67-2.2,4.21-2.94,7.61-1.22,16.25.86,23.7.07.25.15.52.23.8.07.23.14.47.2.69.53,1.88,1.1,3.87,1.71,5.86,11.91,39.56,30.37,76.54,54.85,109.86,2.07,2.83,4.25,3.42,5.72,3.42.71,0,1.41-.14,2.08-.41l1.23-.5.68-1.13c8.04-13.36,10.87-29.78,7.74-45.07-.25-1.21-.33-1.93-.34-2.37.43.14,1.14.45,2.18,1.13,3.66,2.38,7.31,4.76,10.97,7.14,3.71,2.41,7.42,4.83,11.12,7.24l15.05,9.81-9.46-15.27c-6.04-9.75-12.53-20.16-21.03-33.76-10.38-16.56-19.49-31.01-27.86-44.2-2.44-3.89-4.93-7.81-7.4-11.72l-1.63-2.58c-1.01-1.59-2.11-3.65-3.27-5.84-3.96-7.44-8.46-15.88-15.56-18.63-2.25-.87-4.73-1.31-7.37-1.31h0Z"/>
      </g>
      <g>
        <path class="cls-4" d="M325.74,448.39c-12.35,0-26.03-5.28-39.54-15.28-5.74-4.24-11.18-9-16.45-13.59-6.88-6-13.99-12.21-21.72-17.22-.48-.31-.97-.63-1.46-.94-4.68-2.98-9.51-6.07-11.9-11.32-2.08-4.59-1.68-9.82-1.35-14.01l1.78-22.98c.08-1.06.16-2.14.24-3.25.68-9.45,1.45-20.17,5.38-28.63,3.68-7.94,14.18-12.96,21.85-16.64.95-.46,1.87-.9,2.73-1.32,9.15-4.51,18.86-8.02,28.25-11.41l55.28-19.98c1.17-.42,3.49-1.13,5.88-1.13,4.47,0,6.07,2.43,6.63,3.88.67,1.75.37,3.53.16,4.83-2.63,15.6-6.52,31.11-11.55,46.1-.6,1.77-1.21,3.54-1.82,5.32-2.05,5.93-4.17,12.05-5.57,18.21-4.05,17.84-2.26,36.64-.52,54.81,1.01,10.59,2.06,21.55,1.97,32.33-.02,1.83-.09,3.62-.85,5.35-1.4,3.19-4.67,5.27-9.73,6.2-2.49.45-5.07.68-7.66.68Z"/>
        <path class="cls-1" d="M354.7,272.68c2.13,0,4.02.67,4.76,2.6.46,1.19.26,2.52.05,3.78-2.62,15.53-6.46,30.86-11.47,45.79-2.64,7.86-5.61,15.63-7.45,23.72-6.49,28.57,1.63,58.27,1.39,87.57-.01,1.55-.06,3.14-.68,4.56-1.35,3.08-4.95,4.43-8.26,5.03-2.43.44-4.87.65-7.3.65-13.69,0-27.15-6.6-38.35-14.88-13.19-9.75-24.5-21.96-38.26-30.88-4.83-3.13-10.25-6.17-12.63-11.41-1.82-4.02-1.52-8.63-1.18-13.03.59-7.66,1.18-15.32,1.78-22.98.76-9.82,1.21-22.08,5.44-31.19,3.81-8.21,16-13.24,23.64-17,9.05-4.46,18.56-7.9,28.05-11.33,18.43-6.66,36.86-13.32,55.28-19.98,1.58-.57,3.47-1.01,5.2-1.01M354.7,268.68h0c-2.7,0-5.26.78-6.56,1.25l-26.35,9.52-28.94,10.46c-9.45,3.42-19.21,6.95-28.46,11.5-.85.42-1.76.85-2.71,1.31-7.94,3.8-18.81,9.01-22.8,17.6-4.08,8.8-4.87,19.71-5.56,29.33-.08,1.1-.16,2.18-.24,3.23l-.94,12.13-.84,10.86c-.34,4.43-.77,9.94,1.53,14.99,2.63,5.8,7.95,9.19,12.65,12.19.49.31.97.62,1.45.93,7.6,4.93,14.66,11.09,21.49,17.05,5.29,4.62,10.77,9.4,16.57,13.69,13.86,10.25,27.95,15.67,40.73,15.67,2.71,0,5.41-.24,8.02-.72,5.75-1.05,9.52-3.53,11.2-7.36.99-2.24,1.01-4.59,1.02-6.14.09-10.89-.96-21.89-1.98-32.54-1.8-18.84-3.5-36.64.48-54.18,1.37-6.06,3.48-12.13,5.51-18,.61-1.78,1.23-3.55,1.83-5.33,5.07-15.09,8.98-30.7,11.63-46.4.24-1.45.61-3.63-.26-5.89-1.26-3.28-4.36-5.16-8.49-5.16h0Z"/>
      </g>
      <path class="cls-2" d="M298.79,320.24c.76,2.16-11.5,8.46-27.39,14.09-15.89,5.63-29.39,8.45-30.15,6.29-.76-2.16,11.5-8.47,27.39-14.09,15.89-5.63,29.39-8.44,30.15-6.29Z"/>
      <path class="cls-2" d="M298.79,396.97c.76-2.15-11.5-8.46-27.39-14.09-15.89-5.63-29.39-8.44-30.15-6.29-.76,2.15,11.5,8.46,27.39,14.09,15.89,5.63,29.39,8.44,30.15,6.29Z"/>
      <ellipse class="cls-1" cx="266.19" cy="358.61" rx="30.52" ry="4.14"/>
      <g>
        <path class="cls-4" d="M105.71,441.48c-4.81,0-9.43-.71-13.74-2.11-4.89-1.59-7.86-4.09-8.82-7.43-.52-1.82-.36-3.6-.13-5.42,1.35-10.7,3.84-21.42,6.25-31.78,4.13-17.78,8.41-36.17,6.76-54.39-.57-6.29-1.85-12.64-3.1-18.78-.37-1.84-.75-3.68-1.1-5.53-3-15.53-4.79-31.42-5.32-47.22-.04-1.32-.1-3.12.79-4.77,1.08-1.98,3.1-3.07,5.67-3.07,2.83,0,5.66,1.25,7.09,2l52.14,27.15c8.9,4.64,18.04,9.4,26.49,15.07.8.54,1.65,1.09,2.54,1.68,7.1,4.66,16.84,11.04,19.43,19.39,2.77,8.91,2.11,19.64,1.53,29.1-.07,1.1-.13,2.19-.19,3.24l-1.29,23.02c-.24,4.21-.53,9.44-3.2,13.71-3.06,4.89-8.26,7.3-13.29,9.64-.53.25-1.06.49-1.58.74-8.32,3.94-16.2,9.15-23.82,14.19-5.82,3.85-11.85,7.84-18.09,11.28-12.4,6.83-24.17,10.29-34.99,10.29h0Z"/>
        <path class="cls-1" d="M92.97,262.99c2.02,0,4.34.82,6.17,1.77,17.38,9.05,34.76,18.1,52.14,27.15,8.95,4.66,17.92,9.33,26.3,14.95,7.07,4.75,18.49,11.35,21.17,20,2.98,9.59,1.8,21.8,1.25,31.63-.43,7.67-.86,15.34-1.29,23.02-.25,4.4-.56,9.02-2.9,12.76-3.06,4.88-8.83,7.17-14.03,9.63-14.83,7.01-27.66,17.61-42.03,25.53-10.42,5.74-22.32,10.05-34.02,10.05-4.43,0-8.84-.62-13.12-2.01-3.2-1.04-6.59-2.85-7.52-6.08-.43-1.49-.26-3.08-.07-4.61,3.66-29.07,15.65-57.42,13.01-86.61-.75-8.26-2.66-16.36-4.23-24.5-2.99-15.47-4.76-31.17-5.29-46.91-.04-1.28-.06-2.62.55-3.74.81-1.48,2.26-2.03,3.91-2.03M92.97,258.99c-3.33,0-5.97,1.46-7.42,4.11-1.16,2.13-1.09,4.34-1.04,5.8.54,15.91,2.34,31.9,5.36,47.53.36,1.85.73,3.7,1.11,5.54,1.23,6.09,2.51,12.38,3.07,18.56,1.61,17.9-2.43,35.32-6.72,53.76-2.42,10.42-4.92,21.18-6.28,31.99-.25,1.95-.43,4.04.19,6.22,1.16,4.02,4.57,6.97,10.13,8.78,4.5,1.46,9.33,2.2,14.35,2.2,11.15,0,23.25-3.55,35.95-10.54,6.32-3.48,12.37-7.49,18.23-11.36,7.56-5,15.38-10.18,23.58-14.05.52-.25,1.05-.49,1.57-.74,5.05-2.34,10.76-5,14.14-10.39,2.95-4.7,3.26-10.22,3.5-14.66l1.29-23.02c.06-1.05.13-2.13.19-3.23.59-9.63,1.26-20.55-1.61-29.81-2.81-9.04-12.88-15.64-20.24-20.47-.88-.58-1.73-1.13-2.52-1.66-8.54-5.73-17.73-10.52-26.61-15.15l-.07-.03-22.82-11.88-29.32-15.27c-1.6-.83-4.76-2.23-8.02-2.23h0Z"/>
      </g>
      <path class="cls-2" d="M143.21,317.64c-1.04,2.03,10.27,9.91,25.27,17.6,15,7.69,28.01,12.28,29.05,10.24,1.04-2.03-10.27-9.92-25.27-17.61-15-7.69-28.01-12.28-29.05-10.24Z"/>
      <path class="cls-2" d="M133.02,393.69c-.47-2.24,12.52-6.86,29.02-10.33,16.5-3.47,30.25-4.46,30.72-2.23.47,2.24-12.52,6.86-29.02,10.33-16.5,3.47-30.25,4.46-30.72,2.23Z"/>
      <path class="cls-2" d="M140.18,355.94c.3-2.26,14.09-2.29,30.8-.05,16.71,2.24,30.01,5.89,29.7,8.16-.3,2.26-14.09,2.28-30.8.05-16.71-2.24-30-5.89-29.7-8.16Z"/>
      <path class="cls-3" d="M251.69,343.51c-19.8,9.46,28.07,50.04-11.11,60.55-10.93,2.94-33.85,6.22-45.69,1.78-32.38-12.13-5.33-38.75-1.43-54.81,1.84-7.59-5.71-14.3-.83-21.63,14.1-21.15,62.87-17.01,63.36,3.05.09,3.54.15,8.92-4.31,11.05Z"/>
      <path class="cls-4" d="M247.93,342.93c-17.59,9.26,24.95,49.01-9.87,59.32-9.71,2.87-30.09,6.09-40.61,1.75-28.78-11.89-4.74-37.95-1.27-53.69,1.64-7.43-5.08-14-.74-21.18,12.53-20.71,55.88-16.65,56.32,2.99.08,3.47.13,8.74-3.83,10.83Z"/>
    </g>
  </g>
  <g>
    <path d="M617.56,107.27c-4.82.23-9.62.52-14.42.87,1.62-2.05,2.89-4.12,2.89-6.72v-36.04c-.46.03-.94.06-1.41.1-2.22.16-2.07,2.22-2.07,3.48,0,3.84.81,4.6,1.48,6.25-4.06-.36-6.57,3.16-12.26,3.9,1.55-2.07,2.89-6.99,2.89-9.59v-4.73c0-2.6-1.33-4.4-2.89-6.24,12.13-1.15,24.29-1.89,36.46-2.22-1.55,2.05-2.89,4-2.89,6.6v4.73c0,2.6,1.33,7.36,2.89,9.24-5.7-.06-8.21-3.26-12.22-2.41.59-1.73,1.41-2.58,1.41-6.43,0-1.26.15-3.34-2-3.24-.25,0-.49.03-.74.04v36.02c0,2.6,1.33,4.51,2.89,6.37h0Z"/>
    <path d="M644.66,106.66c-4.82,0-9.63.04-14.44.16,1.55-1.96,2.89-3.98,2.89-6.57v-15.61c-1.26.77-2.22,2.05-2.6,3.6h-.15c0-2,.29-6.67,2.74-9.68v-15.83c0-2.6-1.33-4.48-2.89-6.44,4.82-.12,9.63-.17,14.44-.16-1.55,1.99-2.89,3.92-2.89,6.51v13.84c2.96.8,6.08,2.45,9.04,3.45v-17.25c0-2.6-1.33-4.53-2.89-6.54,4.82.04,9.63.15,14.44.3-1.62,1.94-2.89,3.83-2.89,6.41v16.8c1.19-1,1.86-2.45,2.36-3.32h.15c.07,2.6-.74,6.41-2.51,9.02v15.02c0,2.6,1.26,4.63,2.89,6.6-4.82-.17-9.62-.28-14.44-.3,1.55-1.92,2.89-3.89,2.89-6.49v-12.72c-2.74-1-5.92-2.64-9.04-3.53v16.21c0,2.6,1.33,4.58,2.89,6.51h0Z"/>
    <path d="M681.31,100.06c2.22.16,2.07-2,2.07-3.18,0-3.92-1.55-4.85-2.15-6.59,3.7.04,7.69-3.13,13.67-1.77-1.62,1.77-2.87,6.54-2.87,9.13v4.66c0,2.6,1.25,4.7,2.87,6.78-9.84-.93-19.7-1.6-29.57-1.99,1.55-1.86,2.89-3.8,2.89-6.38v-19.17c-1.26.39-2.36,1.23-2.74,2.84h-.15c0-2.07.59-6.49,2.89-8.91v-12.27c0-2.6-1.33-4.57-2.89-6.63,9.87.39,19.73,1.06,29.57,1.99-1.62,1.84-2.87,3.66-2.87,6.25v4.73c0,2.6,1.25,7.52,2.87,9.59-5.69-.75-9.68-4.4-13.67-4,.59-1.65,2.15-2.36,2.15-6.21,0-1.26.15-3.32-2.07-3.48-1.48-.1-2.96-.2-4.44-.29v10.65c1.92,1.45,3.84,3.12,7.02,3.37.88.06,2.36.03,3.18-1.52.04.03.1.06.15.09-.15,3.25-2.07,8.7-5.76,8.44-1.62-.12-3.03-1.39-4.58-2.67v16.28c1.48.09,2.96.19,4.44.29h0Z"/>
    <path d="M356.55,219.87v-56.78c0-21.66,12.13-30.87,30.38-36.26,10.32-3.03,20.67-5.92,31.05-8.66-3.35,5.25-6.22,10.24-6.22,15.9v10.36c0,5.66,2.87,15.39,6.22,18.72-12.29,2.77-20.88-2.07-29.47,1.89,1.42-4.13,4.6-6.83,4.6-14.61,0-5.34-1.6-7.49-6.99-5.89-6.98,2.06-11.1,7.54-11.1,16.28v49.82c0,8.57,4.11,11.66,11.88,9.37,6.19-1.81,6.19-4.56,6.19-9.08,0-8.57-3.18-9.43-4.6-12.74,8.1-2.84,16.52-12.87,29.47-14.51-3.35,5.09-6.22,16.54-6.22,22.21v10.18c0,5.66,2.87,9.26,6.22,12.58-10.37,2.74-20.73,5.63-31.05,8.66-18.24,5.4-30.37-.91-30.37-17.44Z"/>
    <path d="M427.45,165.65c0-14.65,6.33-23.29,21.52-26.78,14.58-3.31,22.1,1.44,22.1,16.83v43.29c0,15.44-7.52,23.14-22.1,26.46-15.19,3.5-21.5-1.8-21.52-16.5v-43.29h0ZM456.68,202.01v-43.29c0-6.53-3.19-7.69-7.47-6.72-4.16.96-7.47,3.58-7.47,10.13v43.29c0,6.66,3.31,7.6,7.47,6.64,4.29-.99,7.47-3.39,7.47-10.05Z"/>
    <path d="M494.97,201.79c2.47-.42,4.95-.84,7.41-1.25,3.71-.61,3.47-4.13,3.47-6.11,0-6.54-2.6-7.47-3.58-10.16,6.67.15,13.36-6.57,22.91-8.26-2.73,3.58-4.83,12.03-4.83,16.34v7.78c0,4.32,2.1,7.34,4.83,10.18-16.54,2.26-33.02,4.99-49.43,8.21,2.58-3.71,4.8-7.46,4.8-11.78v-62.53c0-4.31-2.22-7.11-4.8-9.92,8.01-1.57,16.02-3.02,24.05-4.35-2.6,3.76-4.82,7.36-4.82,11.66v60.18h-.01Z"/>
    <path d="M547.26,194.39c2.48-.28,4.98-.54,7.46-.8,3.73-.38,3.48-3.92,3.48-5.9,0-6.54-2.61-7.63-3.61-10.37,6.72.55,13.43-5.76,23.04-6.85-2.74,3.41-4.86,11.72-4.86,16.05v7.78c0,4.32,2.12,7.47,4.86,10.47-16.61,1.25-33.21,2.97-49.75,5.18,2.61-3.55,4.85-7.17,4.85-11.49v-62.53c0-4.32-2.23-7.24-4.85-10.23,8.07-1.07,16.13-2.03,24.21-2.89-2.61,3.6-4.85,7.07-4.85,11.37v60.21Z"/>
    <path d="M607.93,189.82c3.74-.15,3.5-3.71,3.5-5.69,0-6.53-2.63-7.79-3.61-10.59,6.24-.62,12.98-6.64,23.1-5.44-2.74,3.25-4.87,11.43-4.87,15.74v7.78c0,4.31,2.12,7.6,4.87,10.76-16.66.23-33.3.94-49.91,2.13,2.61-3.39,4.86-6.88,4.86-11.19v-31.95c-2.12.88-3.99,2.5-4.61,5.25-.09,0-.16,0-.25.01,0-3.45,1-10.92,4.86-15.38v-20.47c0-4.31-2.25-7.37-4.86-10.52,16.61-1.19,33.27-1.9,49.91-2.13-2.74,3.37-4.87,6.62-4.87,10.94v7.89c0,4.32,2.12,12.29,4.87,15.45-9.62-.23-16.37-5.56-23.1-4.18,1-2.87,3.61-4.34,3.61-10.75,0-2.09.25-5.56-3.5-5.41-2.5.1-4.99.22-7.49.33v17.76c3.25,2.06,6.49,4.5,11.85,4.31,1.49-.06,3.99-.38,5.37-3.13.09.04.16.07.25.12-.25,5.44-3.5,14.89-9.73,15.13-2.74.12-5.12-1.76-7.73-3.6v27.13c2.5-.12,4.99-.23,7.49-.33h0Z"/>
    <path d="M637.51,181.86v-43.29c0-16.51,9.62-20.59,23.97-20.3,8.11.17,16.23.46,24.34.86-2.63,3.21-4.86,6.31-4.86,10.62v7.89c0,4.32,2.25,12.43,4.86,15.77-9.6-.84-16.35-6.59-23.1-5.64,1.12-2.81,3.63-4.11,3.63-10.03,0-4.06-1.25-6.08-5.5-6.18-5.5-.12-8.73,3.08-8.73,9.73v37.98c0,6.54,3.25,9.89,9.36,10.01,4.87.1,4.86-1.97,4.87-5.43,0-6.54-2.5-7.96-3.63-10.82,6.37-.22,12.98-5.83,23.1-3.98-2.63,3.08-4.86,11.13-4.86,15.44v7.78c0,4.31,2.25,7.75,4.86,11.08-8.11-.41-16.22-.68-24.34-.86-14.36-.3-23.97-8.05-23.97-20.64h0Z"/>
    <path d="M732.65,206.94c-8.08-.84-16.18-1.57-24.27-2.18,2.74-3,4.86-6.15,4.86-10.47v-60.06c-.78-.06-1.58-.13-2.36-.19-3.74-.29-3.48,3.19-3.48,5.28,0,6.41,1.38,7.88,2.5,10.79-6.85-1.62-11.08,3.61-20.7,3.47,2.63-3.06,4.86-10.95,4.86-15.26v-7.89c0-4.31-2.25-7.66-4.86-11.13,20.5,1.09,40.97,2.9,61.37,5.44-2.61,3-4.85,5.95-4.85,10.26v7.89c0,4.31,2.23,12.59,4.85,16.13-9.56-1.54-13.8-7.53-20.5-7.11,1-2.74,2.36-3.95,2.36-10.36,0-2.09.25-5.53-3.35-5.89-.42-.04-.83-.09-1.25-.12v60.06c0,4.32,2.23,7.86,4.85,11.35h-.01Z"/>
    <path d="M755.63,145.86c0-14.65,6.46-20.82,21.81-18.45,14.73,2.32,22.24,9.95,22.24,25.36v43.29c0,15.44-7.52,20.25-22.24,17.93-15.35-2.36-21.81-10.13-21.81-24.84,0,0,0-43.29,0-43.29ZM785.23,193.54v-43.29c0-6.53-3.21-8.92-7.54-9.6-4.21-.65-7.56.7-7.56,7.24v43.29c0,6.66,3.34,8.88,7.56,9.53,4.34.68,7.54-.51,7.54-7.17Z"/>
    <path d="M825.4,189.2v21.59c0,4.32,2.21,8.12,4.79,11.9-7.98-1.76-15.96-3.39-23.97-4.92,2.58-2.71,4.8-5.6,4.8-9.92v-21.59c-1.6-.32-3.21-.62-4.8-.93,2.58-2.83,4.8-5.6,4.8-9.92v-30.09c0-4.32-2.22-7.95-4.8-11.78,8.3,1.58,16.57,3.29,24.82,5.11,15.81,3.53,23.6,12.51,23.6,26.04v10.85c0,10-6.09,15.58-15.52,15.74,3.31.88,8.2,1.8,11.87.86-2.81,1.9-2.81,7.33-.61,13.29,1.51,4.08,3.02,8.14,4.51,12.22,1.02,2.87,3.18,10.71,8.4,13.45-2.29-.57-3.99-.96-5.82-1.44-9.75-2.51-11.98-3.5-18.72-5.06,2.32-3.16,2.7-5.79.86-10.65-2.45-6.73-4.9-13.46-7.36-20.17-.86-2.29-2.34-3.6-4.54-4.08-.78-.17-1.55-.33-2.34-.51h.01ZM830.55,177c6.63,1.47,9.81-.99,9.81-7.65v-6.66c0-6.66-3.18-9.39-9.81-10.85-1.71-.38-3.44-.75-5.15-1.12v25.16c1.71.36,3.44.74,5.15,1.12Z"/>
    <path d="M922.9,185.88c6.66,4.64,9.81,15.22,9.81,22.55v14.13c0,17.41-9.44,25.11-28.65,19.41-11.97-3.54-24-6.89-36.04-10.05,3.54-3.5,6.56-7.28,6.56-13.25v-10.74c0-5.96-3.02-18.02-6.56-23.37,13.62,1.71,22.66,12.29,31.03,15.23-1.51,3.48-4.86,4.38-4.86,12.9,0,5.28,1.35,8.55,9.53,10.95,5.18,1.52,9.52,1.67,9.52-7.53v-8.69c0-4.6-2.16-7.99-6.34-10.94-6.51-4.5-13.04-8.95-19.57-13.33-8.88-5.89-14.44-14.68-14.44-23.88v-14.13c0-22.81,9.76-25.77,29-20.15,10.87,3.19,21.69,6.54,32.5,10.05-3.66,3.41-6.49,6.95-6.49,12.9v10.9c0,5.96,2.83,17.93,6.49,23.55-12.78-4.66-21.79-15.06-30.81-16.21,1.33-3.53,4.85-4.35,4.85-12.52,0-5.61-1.67-8.85-7.36-10.53-7.36-2.15-8.53,1.97-8.53,11.16v4.77c0,4.42,2,8.24,6.19,10.98,8.08,5.19,16.15,10.47,24.2,15.83h-.03Z"/>
    <path d="M518.85,269.5v-32.48c0-12.36,7.09-16.25,17.71-17.42,6.01-.64,12.01-1.23,18.02-1.77-1.94,2.81-3.6,5.48-3.6,8.89v6.22c0,3.39,1.67,9.62,3.63,12.06-7.12.09-12.11-3.92-17.1-2.68.83-2.25,2.68-3.45,2.67-8.05,0-3.16-.93-4.61-4.08-4.32-4.06.38-6.46,3.08-6.46,8.15,0,9.68,0,19.37.01,29.05,0,4.99,2.41,7.47,6.95,7.37,3.61-.09,3.61-1.71,3.6-4.4,0-5.08-1.86-6.06-2.68-8.23,4.72-.46,9.62-5.24,17.1-4.48-1.94,2.63-3.6,9.1-3.6,12.51v6.12c0,3.41,1.67,6.01,3.61,8.53-6.02.04-12.03.09-18.05.13-10.65.04-17.77-5.82-17.77-15.2h.03Z"/>
    <path d="M559.69,233.7c0-11.66,4.79-17.63,16.26-18.47,11.01-.77,16.67,4.05,16.68,16.73,0,11.85.03,23.72.04,35.57,0,12.68-5.63,17.87-16.64,17.9-11.48.03-16.29-5.56-16.31-17.24-.01-11.5-.03-23.01-.04-34.51h0ZM581.86,267.73c-.01-11.77-.03-23.52-.04-35.28,0-5.32-2.42-6.7-5.66-6.51-3.15.19-5.64,1.84-5.64,7.11.01,11.64.03,23.29.04,34.92,0,5.37,2.51,6.73,5.66,6.69,3.24-.04,5.64-1.48,5.64-6.91h0Z"/>
    <path d="M612.03,257.36v17.93c0,3.58,1.67,6.34,3.61,9.01-6.02,0-12.03.03-18.05.06,1.94-2.65,3.61-5.41,3.6-8.98,0-5.95,0-11.88-.01-17.83-1.2.03-2.41.04-3.61.07,1.94-2.79,3.61-5.47,3.6-9.04,0-8.28-.01-16.58-.03-24.87,0-3.57-1.67-6.15-3.63-8.81,6.24-.29,12.48-.52,18.73-.71,11.95-.33,17.9,5.43,17.9,16.77v9.07c0,8.36-4.63,14.36-11.77,16.38,2.5.07,6.21-.16,8.98-1.73-2.13,2.18-2.13,6.72-.46,11.23,1.15,3.09,1.38,3.7,3.09,8.37.81,2.29,1.44,7.17,5.12,10.03h-4.79c-7.4,0-7.12-.04-12.22-.03,1.76-3.09,2.03-5.35.64-9.05-1.86-5.14-3.71-10.26-5.57-15.38-.65-1.74-1.76-2.54-3.42-2.52-.58,0-1.18.01-1.76.03h.04ZM615.91,246.23c5.01-.09,7.41-2.79,7.41-8.34v-5.56c0-5.56-2.41-7.17-7.41-7.04-1.29.03-2.6.07-3.89.1,0,6.96,0,13.93.01,20.91,1.29-.03,2.6-.04,3.89-.07h-.01Z"/>
    <path d="M663.83,213.95c6.02.12,12.06.28,18.08.49-2.05,2.68-3.61,5.31-3.63,8.89,0,17.32-.03,34.65-.04,51.95,0,3.58,1.57,6.35,3.6,9.02-5.64-.01-11.29-.03-16.95-.03-3.1-13.19-6.22-26.39-9.34-39.61v30.52c0,3.61,1.67,6.4,3.61,9.08h-18.05c1.94-2.68,3.61-5.47,3.61-9.08v-52.32c0-3.61-1.67-6.3-3.61-9.07,5.69-.03,11.37,0,17.06.07,3.09,13,6.17,25.98,9.26,38.94,0-9.91,0-19.82.01-29.73,0-3.6-1.67-6.31-3.61-9.13v-.03Z"/>
    <path d="M705.28,273.61c2.77.04,2.6-2.89,2.6-4.5,0-5.32-1.93-6.49-2.67-8.82,4.63-.2,9.63-4.77,17.13-3.41-2.05,2.51-3.63,9.04-3.63,12.53v6.28c0,3.48,1.57,6.19,3.6,8.79-12.35-.07-24.68-.13-37.02-.16,1.94-2.65,3.61-5.4,3.61-8.97,0-8.81.01-17.6.03-26.4-1.58.58-2.96,1.77-3.42,4h-.19c0-2.86.75-8.98,3.63-12.36,0-5.64,0-11.29.01-16.92,0-3.57-1.65-6.28-3.61-9.13,12.36.48,24.71,1.19,37.05,2.12-2.05,2.52-3.61,5.02-3.63,8.5v6.37c0,3.48,1.57,10.04,3.6,12.72-7.12-.62-12.11-5.35-17.12-4.64.74-2.29,2.68-3.31,2.7-8.55,0-1.71.19-4.51-2.58-4.66-1.86-.09-3.7-.19-5.56-.26,0,4.86,0,9.72-.01,14.58,2.41,1.9,4.82,4.11,8.79,4.25,1.12.04,2.96-.09,3.99-2.25.06.04.13.07.19.1-.19,4.4-2.61,11.93-7.24,11.81-2.03-.06-3.79-1.71-5.73-3.39,0,7.43-.01,14.84-.03,22.27,1.86.01,3.7.04,5.56.07h-.04Z"/>
    <path d="M740.37,259.04c0,5.67,0,11.35-.01,17.02,0,3.41,1.65,6.05,3.6,8.57-6.02-.04-12.03-.09-18.05-.12,1.94-2.55,3.61-5.19,3.63-8.65,0-5.75,0-11.49.03-17.24-1.2-.04-2.41-.09-3.61-.13,1.94-2.61,3.61-5.09,3.63-8.55,0-8.01.01-16.02.03-24.03,0-3.45-1.65-6.14-3.6-8.97,6.22.49,12.46,1.04,18.67,1.65,11.91,1.2,17.82,7.21,17.82,17.51v8.28c0,7.6-4.63,12.78-11.75,14.29,2.5.22,6.19.19,8.97-1.09-2.13,1.87-2.13,6.06-.46,10.29,1.15,2.87,2.28,5.75,3.42,8.59.7,1.48,5.27,7.63,9.26,8.63h-4.54c-7.4.03-11.84-.41-16.93-.46,1.76-2.86,2.05-4.95.65-8.43-1.84-4.83-3.69-9.69-5.54-14.6-.64-1.67-1.76-2.48-3.42-2.55-.58-.03-1.18-.04-1.76-.07v.03ZM744.28,248.75c4.99.28,7.4-2.06,7.4-7.22v-5.16c0-5.16-2.39-6.92-7.38-7.34-1.29-.1-2.58-.22-3.89-.32,0,6.62-.01,13.22-.03,19.83,1.29.07,2.58.15,3.89.22h.01Z"/>
  </g>
  <g>
    <path d="M491.17,490.52h35.62c-.82,8.85-3.61,23.05-13.15,32.59-8.61,8.61-18.97,10.71-28.29,10.71s-18.97-2.1-27.24-10.13c-5.47-5.24-10.59-13.62-10.59-26.66,0-13.97,5.82-25.26,13.15-32.36,6.29-6.05,16.3-11.99,31.66-11.99,6.17,0,13.5,1.05,20.6,5.47,4.31,2.68,8.5,6.75,11.64,12.11l-13.62,7.8c-2.1-3.84-4.89-6.52-7.8-8.27-3.72-2.33-7.92-3.38-12.57-3.38-8.96,0-15.13,3.73-18.97,7.57-5.35,5.36-8.5,13.85-8.5,22.23,0,9.2,3.96,14.67,6.75,17.46,5.24,5.24,11.64,6.4,16.65,6.4,4.42,0,10.59-.7,15.83-5.24,3.49-3.03,5.94-7.45,7.22-11.29h-20.02l1.63-13.04Z"/>
    <path d="M548.09,481.68l-6.17,50.41h-14.2l6.17-50.41h14.2ZM537.85,454.79c2.33-2.44,4.89-2.91,6.75-2.91,2.21,0,4.07.81,5.36,2.09,1.4,1.4,2.21,3.38,2.21,5.47,0,1.75-.58,4.31-2.79,6.52-2.1,2.1-4.54,2.91-6.75,2.91s-3.96-.81-5.36-2.09c-1.4-1.4-2.21-3.03-2.21-5.36s.81-4.66,2.79-6.63Z"/>
    <path d="M568.7,493.78l-4.66,38.3h-14.2l4.66-38.3h-5.35l1.51-12.11h5.35l1.63-12.46c.7-5.47,1.63-12.92,6.63-18.04,2.33-2.45,6.64-5.36,13.27-5.36,2.91,0,6.87.58,10.01,1.75l-1.63,12.92c-1.16-.82-3.26-2.1-5.82-2.1-1.98,0-3.61.7-4.77,1.75-1.86,1.75-3.03,5.24-3.96,12.22l-1.16,9.31h13.04l-1.51,12.11h-13.04Z"/>
    <path d="M600.01,493.78l-4.66,38.3h-14.2l4.66-38.3h-5.59l1.51-12.11h5.59l2.09-17.23h14.2l-2.1,17.23h9.78l-1.51,12.11h-9.78Z"/>
    <path d="M687.2,529.29c-3.14,1.63-9.31,4.54-19.21,4.54-14.08,0-22.35-5.59-26.42-9.55-7.68-7.33-10.36-16.76-10.36-26.08,0-14.67,5.36-26.42,12.46-33.64,10.13-10.13,22.7-11.87,31.9-11.87,5,0,12.11.47,20.49,4.77l-2.09,17.46c-6.52-7.57-14.9-8.5-19.79-8.5-9.78,0-15.71,4.07-19.44,8.03-5.12,5.47-7.8,13.74-7.8,21.54,0,8.5,3.26,13.97,6.52,17.46,4.42,4.66,10.13,6.75,16.76,6.75,11.76,0,17.23-5.94,19.21-8.61l-2.21,17.69Z"/>
    <path d="M737.95,481.68h14.2l-6.17,50.41h-14.2l.81-6.52c-2.56,3.38-5.47,5.12-6.4,5.7-3.03,1.75-5.94,2.45-9.43,2.45-6.05,0-11.76-1.63-16.53-6.4-4.89-4.89-6.75-11.06-6.75-17.81,0-9.08,3.03-16.53,7.8-21.54,4.08-4.19,10.59-7.92,19.91-7.92,3.61,0,6.75.7,10.01,2.44,2.79,1.51,4.54,3.38,5.94,5.7l.81-6.52ZM713.28,496.23c-3.26,3.03-5,7.45-5,11.64,0,4.42,1.63,7.92,3.84,10.01,2.1,1.98,5.12,3.26,9.31,3.26,2.79,0,6.63-.58,10.01-3.61,3.38-3.03,5.01-7.8,5.01-12.11,0-3.61-1.4-6.75-3.49-8.96-1.63-1.75-4.66-3.84-9.78-3.84-3.61,0-6.99,1.05-9.9,3.61Z"/>
    <path d="M759.84,481.68h14.2l-.93,7.22c1.4-2.44,3.61-5,6.29-6.63,3.03-1.86,5.82-2.21,8.85-2.21,2.56,0,4.42.35,6.64,1.16l-4.19,12.69c-1.63-.81-3.38-1.28-5.47-1.28-3.73,0-6.75,1.4-8.85,3.49-3.14,3.14-5.24,9.43-5.82,14.55l-2.68,21.42h-14.2l6.17-50.41Z"/>
    <path d="M839.11,447.22h14.2l-10.48,84.86h-14.2l.81-6.52c-.12.23-2.79,3.84-6.29,5.82-2.79,1.51-6.64,2.33-10.24,2.33-6.17,0-11.29-1.75-15.6-6.05-3.49-3.49-6.98-9.31-6.98-18.74s3.38-16.76,7.92-21.3c4.31-4.42,11.52-7.57,18.51-7.57,3.61,0,7.8,1.05,10.48,2.33,1.4.7,4.31,2.33,6.75,5.82l5.12-40.98ZM809.66,496.46c-3.03,2.91-4.54,6.98-4.54,11.17,0,4.54,1.63,8.15,3.96,10.24,1.86,1.75,4.89,3.26,9.2,3.26s8.03-1.63,10.48-4.07c2.56-2.56,4.66-7.22,4.66-11.64,0-3.96-1.4-6.98-3.73-9.2-2.91-2.68-6.4-3.61-9.89-3.61-4.07,0-7.45,1.16-10.13,3.84Z"/>
  </g>
</svg>