<?xml version="1.0" encoding="UTF-8"?><svg id="Layer_1" xmlns="http://www.w3.org/2000/svg" viewBox="0 0 398.28 158.06"><defs><style>.cls-1{fill:#fff;}</style></defs><path class="cls-1" d="M179.91,35.25c-3.32.16-6.63.36-9.94.6,1.12-1.41,1.99-2.84,1.99-4.63V6.38c-.32.02-.65.04-.97.07-1.53.11-1.43,1.53-1.43,2.4,0,2.65.56,3.17,1.02,4.31-2.8-.25-4.53,2.18-8.45,2.69,1.07-1.43,1.99-4.82,1.99-6.61v-3.26c0-1.79-.92-3.03-1.99-4.3,8.36-.79,16.74-1.3,25.13-1.53-1.07,1.41-1.99,2.76-1.99,4.55v3.26c0,1.79.92,5.07,1.99,6.37-3.93-.04-5.66-2.25-8.42-1.66.41-1.19.97-1.78.97-4.43,0-.87.1-2.3-1.38-2.23-.17,0-.34.02-.51.03v24.83c0,1.79.92,3.11,1.99,4.39Z"/><path class="cls-1" d="M198.59,34.83c-3.32,0-6.64.03-9.95.11,1.07-1.35,1.99-2.74,1.99-4.53v-10.76c-.87.53-1.53,1.41-1.79,2.48-.03,0-.07,0-.1,0,0-1.38.2-4.6,1.89-6.67V4.55c0-1.79-.92-3.09-1.99-4.44,3.32-.08,6.64-.12,9.95-.11-1.07,1.37-1.99,2.7-1.99,4.49v9.54c2.04.55,4.19,1.69,6.23,2.38V4.52c0-1.79-.92-3.12-1.99-4.51,3.32.03,6.64.1,9.95.21-1.12,1.34-1.99,2.64-1.99,4.42v11.58c.82-.69,1.28-1.69,1.63-2.29.03,0,.07,0,.1,0,.05,1.79-.51,4.42-1.73,6.22v10.35c0,1.79.87,3.19,1.99,4.55-3.32-.12-6.63-.19-9.95-.21,1.07-1.32,1.99-2.68,1.99-4.47v-8.77c-1.89-.69-4.08-1.82-6.23-2.43v11.17c0,1.79.92,3.16,1.99,4.49Z"/><path class="cls-1" d="M223.85,30.28c1.53.11,1.43-1.38,1.43-2.19,0-2.7-1.07-3.34-1.48-4.54,2.55.03,5.3-2.16,9.42-1.22-1.12,1.22-1.98,4.51-1.98,6.29v3.21c0,1.79.86,3.24,1.98,4.67-6.78-.64-13.58-1.1-20.38-1.37,1.07-1.28,1.99-2.62,1.99-4.4v-13.21c-.87.27-1.63.85-1.89,1.96-.03,0-.07,0-.1,0,0-1.43.41-4.47,1.99-6.14V4.88c0-1.79-.92-3.15-1.99-4.57,6.8.27,13.6.73,20.38,1.37-1.12,1.27-1.98,2.52-1.98,4.31v3.26c0,1.79.86,5.18,1.98,6.61-3.92-.52-6.67-3.03-9.42-2.76.41-1.14,1.48-1.63,1.48-4.28,0-.87.1-2.29-1.43-2.4-1.02-.07-2.04-.14-3.06-.2v7.34c1.32,1,2.65,2.15,4.84,2.32.61.04,1.63.02,2.19-1.05.03.02.07.04.1.06-.1,2.24-1.43,6-3.97,5.82-1.12-.08-2.09-.96-3.16-1.84v11.22c1.02.06,2.04.13,3.06.2Z"/><path class="cls-1" d="M0,112.86v-39.14c0-14.93,8.36-21.28,20.94-24.99,7.11-2.09,14.25-4.08,21.4-5.97-2.31,3.62-4.29,7.06-4.29,10.96v7.14c0,3.9,1.98,10.61,4.29,12.9-8.47,1.91-14.39-1.43-20.31,1.3.98-2.85,3.17-4.71,3.17-10.07,0-3.68-1.1-5.16-4.82-4.06-4.81,1.42-7.65,5.2-7.65,11.22v34.34c0,5.91,2.83,8.04,8.19,6.46,4.27-1.25,4.27-3.14,4.27-6.26,0-5.91-2.19-6.5-3.17-8.78,5.58-1.96,11.39-8.87,20.31-10-2.31,3.51-4.29,11.4-4.29,15.31v7.02c0,3.9,1.98,6.38,4.29,8.67-7.15,1.89-14.29,3.88-21.4,5.97C8.36,128.6,0,124.25,0,112.86Z"/><path class="cls-1" d="M48.87,75.49c0-10.1,4.36-16.05,14.83-18.46,10.05-2.28,15.23.99,15.23,11.6v29.84c0,10.64-5.18,15.95-15.23,18.24-10.47,2.41-14.82-1.24-14.83-11.37v-29.84ZM69.02,100.55v-29.84c0-4.5-2.2-5.3-5.15-4.63-2.87.66-5.15,2.47-5.15,6.98v29.84c0,4.59,2.28,5.24,5.15,4.58,2.96-.68,5.15-2.34,5.15-6.93Z"/><path class="cls-1" d="M95.41,100.4c1.7-.29,3.41-.58,5.11-.86,2.56-.42,2.39-2.85,2.39-4.21,0-4.51-1.79-5.15-2.47-7,4.6.1,9.21-4.53,15.79-5.69-1.88,2.47-3.33,8.29-3.33,11.26,0,1.79,0,3.57,0,5.36,0,2.98,1.45,5.06,3.33,7.02-11.4,1.56-22.76,3.44-34.07,5.66,1.78-2.56,3.31-5.14,3.31-8.12v-43.1c0-2.97-1.53-4.9-3.31-6.84,5.52-1.08,11.04-2.08,16.58-3-1.79,2.59-3.32,5.07-3.32,8.04v41.48Z"/><path class="cls-1" d="M131.45,95.3c1.71-.19,3.43-.37,5.14-.55,2.57-.26,2.4-2.7,2.4-4.07,0-4.51-1.8-5.26-2.49-7.15,4.63.38,9.26-3.97,15.88-4.72-1.89,2.35-3.35,8.08-3.35,11.06v5.36c0,2.98,1.46,5.15,3.35,7.22-11.45.86-22.89,2.05-34.29,3.57,1.8-2.45,3.34-4.94,3.34-7.92v-43.1c0-2.98-1.54-4.99-3.34-7.05,5.56-.74,11.12-1.4,16.69-1.99-1.8,2.48-3.34,4.87-3.34,7.84v41.48Z"/><path class="cls-1" d="M173.27,92.15c2.58-.1,2.41-2.56,2.41-3.92,0-4.5-1.81-5.37-2.49-7.3,4.3-.43,8.95-4.58,15.92-3.75-1.89,2.24-3.36,7.88-3.36,10.85v5.36c0,2.97,1.46,5.24,3.36,7.42-11.48.16-22.95.65-34.4,1.47,1.8-2.34,3.35-4.74,3.35-7.71v-22.02c-1.46.61-2.75,1.72-3.18,3.62-.06,0-.11,0-.17.01,0-2.38.69-7.53,3.35-10.6v-14.11c0-2.97-1.55-5.08-3.35-7.25,11.45-.82,22.93-1.31,34.4-1.47-1.89,2.32-3.36,4.56-3.36,7.54v5.44c0,2.98,1.46,8.47,3.36,10.65-6.63-.16-11.28-3.83-15.92-2.88.69-1.98,2.49-2.99,2.49-7.41,0-1.44.17-3.83-2.41-3.73-1.72.07-3.44.15-5.16.23v12.24c2.24,1.42,4.47,3.1,8.17,2.97,1.03-.04,2.75-.26,3.7-2.16.06.03.11.05.17.08-.17,3.75-2.41,10.26-6.71,10.43-1.89.08-3.53-1.21-5.33-2.48v18.7c1.72-.08,3.44-.16,5.16-.23Z"/><path class="cls-1" d="M193.66,86.66v-29.84c0-11.38,6.63-14.19,16.52-13.99,5.59.12,11.19.32,16.78.59-1.81,2.21-3.35,4.35-3.35,7.32v5.44c0,2.98,1.55,8.57,3.35,10.87-6.62-.58-11.27-4.54-15.92-3.89.77-1.94,2.5-2.83,2.5-6.91,0-2.8-.86-4.19-3.79-4.26-3.79-.08-6.02,2.12-6.02,6.71v26.18c0,4.51,2.24,6.82,6.45,6.9,3.36.07,3.35-1.36,3.36-3.74,0-4.51-1.72-5.49-2.5-7.46,4.39-.15,8.95-4.02,15.92-2.74-1.81,2.12-3.35,7.67-3.35,10.64v5.36c0,2.97,1.55,5.34,3.35,7.64-5.59-.28-11.18-.47-16.78-.59-9.9-.21-16.52-5.55-16.52-14.23Z"/><path class="cls-1" d="M259.24,103.95c-5.57-.58-11.15-1.08-16.73-1.5,1.89-2.07,3.35-4.24,3.35-7.22v-41.4c-.54-.04-1.09-.09-1.63-.13-2.58-.2-2.4,2.2-2.4,3.64,0,4.42.95,5.43,1.72,7.44-4.72-1.12-7.64,2.49-14.27,2.39,1.81-2.11,3.35-7.55,3.35-10.52v-5.44c0-2.97-1.55-5.28-3.35-7.67,14.13.75,28.24,2,42.3,3.75-1.8,2.07-3.34,4.1-3.34,7.07v5.44c0,2.97,1.54,8.68,3.34,11.12-6.59-1.06-9.51-5.19-14.13-4.9.69-1.89,1.63-2.72,1.63-7.14,0-1.44.17-3.81-2.31-4.06-.29-.03-.57-.06-.86-.08,0,13.8,0,27.6,0,41.4,0,2.98,1.54,5.42,3.34,7.82Z"/><path class="cls-1" d="M275.08,61.85c0-10.1,4.45-14.35,15.03-12.72,10.15,1.6,15.33,6.86,15.33,17.48v29.84c0,10.64-5.18,13.96-15.33,12.36-10.58-1.63-15.03-6.98-15.03-17.12v-29.84ZM295.48,94.71v-29.84c0-4.5-2.21-6.15-5.2-6.62-2.9-.45-5.21.48-5.21,4.99v29.84c0,4.59,2.3,6.12,5.21,6.57,2.99.47,5.2-.35,5.2-4.94Z"/><path class="cls-1" d="M323.17,91.72v14.88c0,2.98,1.52,5.6,3.3,8.2-5.5-1.21-11-2.34-16.52-3.39,1.78-1.87,3.31-3.86,3.31-6.84v-14.88c-1.1-.22-2.21-.43-3.31-.64,1.78-1.95,3.31-3.86,3.31-6.84v-20.74c0-2.98-1.53-5.48-3.31-8.12,5.72,1.09,11.42,2.27,17.11,3.52,10.9,2.43,16.27,8.62,16.27,17.95,0,2.49,0,4.99,0,7.48,0,6.89-4.2,10.74-10.7,10.85,2.28.61,5.65,1.24,8.18.59-1.94,1.31-1.94,5.05-.42,9.16,1.04,2.81,2.08,5.61,3.11,8.42.7,1.98,2.19,7.38,5.79,9.27-1.58-.39-2.75-.66-4.01-.99-6.72-1.73-8.26-2.41-12.9-3.49,1.6-2.18,1.86-3.99.59-7.34-1.69-4.64-3.38-9.28-5.07-13.9-.59-1.58-1.61-2.48-3.13-2.81-.54-.12-1.07-.23-1.61-.35ZM326.72,83.31c4.57,1.01,6.76-.68,6.76-5.27v-4.59c0-4.59-2.19-6.47-6.76-7.48-1.18-.26-2.37-.52-3.55-.77v17.34c1.18.25,2.37.51,3.55.77Z"/><path class="cls-1" d="M390.37,89.43c4.59,3.2,6.76,10.49,6.76,15.54v9.74c0,12-6.51,17.31-19.75,13.38-8.25-2.44-16.54-4.75-24.84-6.93,2.44-2.41,4.52-5.02,4.52-9.13v-7.4c0-4.11-2.08-12.42-4.52-16.11,9.39,1.18,15.62,8.47,21.39,10.5-1.04,2.4-3.35,3.02-3.35,8.89,0,3.64.93,5.89,6.57,7.55,3.57,1.05,6.56,1.15,6.56-5.19v-5.99c0-3.17-1.49-5.51-4.37-7.54-4.49-3.1-8.99-6.17-13.49-9.19-6.12-4.06-9.95-10.12-9.95-16.46,0-3.25,0-6.5,0-9.74,0-15.72,6.73-17.76,19.99-13.89,7.49,2.2,14.95,4.51,22.4,6.93-2.52,2.35-4.47,4.79-4.47,8.89v7.51c0,4.11,1.95,12.36,4.47,16.23-8.81-3.21-15.02-10.38-21.24-11.17.92-2.43,3.34-3,3.34-8.63,0-3.87-1.15-6.1-5.07-7.26-5.07-1.48-5.88,1.36-5.88,7.69v3.29c0,3.05,1.38,5.68,4.27,7.57,5.57,3.58,11.13,7.22,16.68,10.91Z"/><path class="cls-1" d="M111.87,147.07v-22.39c0-8.52,4.89-11.2,12.21-12.01,4.14-.44,8.28-.85,12.42-1.22-1.34,1.94-2.48,3.78-2.48,6.13,0,1.43,0,2.86,0,4.29,0,2.34,1.15,6.63,2.5,8.31-4.91.06-8.35-2.7-11.79-1.85.57-1.55,1.85-2.38,1.84-5.55,0-2.18-.64-3.18-2.81-2.98-2.8.26-4.45,2.12-4.45,5.62,0,6.67,0,13.35.01,20.02,0,3.44,1.66,5.15,4.79,5.08,2.49-.06,2.49-1.18,2.48-3.03,0-3.5-1.28-4.18-1.85-5.67,3.25-.32,6.63-3.61,11.79-3.09-1.34,1.81-2.48,6.27-2.48,8.62,0,1.41,0,2.82,0,4.22,0,2.35,1.15,4.14,2.49,5.88-4.15.03-8.29.06-12.44.09-7.34.03-12.25-4.01-12.25-10.48Z"/><path class="cls-1" d="M140.02,122.39c0-8.04,3.3-12.15,11.21-12.73,7.59-.53,11.49,2.79,11.5,11.53,0,8.17.02,16.35.03,24.52,0,8.74-3.88,12.32-11.47,12.34-7.91.02-11.23-3.83-11.24-11.88-.01-7.93-.02-15.86-.03-23.79ZM155.3,145.85c-.01-8.11-.02-16.21-.03-24.32,0-3.67-1.67-4.62-3.9-4.49-2.17.13-3.89,1.27-3.89,4.9.01,8.02.02,16.05.03,24.07,0,3.7,1.73,4.64,3.9,4.61,2.23-.03,3.89-1.02,3.89-4.76Z"/><path class="cls-1" d="M176.1,138.7c0,4.12,0,8.24,0,12.36,0,2.47,1.15,4.37,2.49,6.21-4.15,0-8.29.02-12.44.04,1.34-1.83,2.49-3.73,2.48-6.19,0-4.1,0-8.19-.01-12.29-.83.02-1.66.03-2.49.05,1.34-1.92,2.49-3.77,2.48-6.23,0-5.71-.01-11.43-.02-17.14,0-2.46-1.15-4.24-2.5-6.07,4.3-.2,8.6-.36,12.91-.49,8.24-.23,12.34,3.74,12.34,11.56,0,2.08,0,4.17,0,6.25,0,5.76-3.19,9.9-8.11,11.29,1.72.05,4.28-.11,6.19-1.19-1.47,1.5-1.47,4.63-.32,7.74.79,2.13.95,2.55,2.13,5.77.56,1.58.99,4.94,3.53,6.91-1.24,0-2.34,0-3.3,0-5.1,0-4.91-.03-8.42-.02,1.21-2.13,1.4-3.69.44-6.24-1.28-3.54-2.56-7.07-3.84-10.6-.45-1.2-1.21-1.75-2.36-1.74-.4,0-.81.01-1.21.02ZM178.77,131.03c3.45-.06,5.11-1.92,5.11-5.75,0-1.28,0-2.55,0-3.83,0-3.83-1.66-4.94-5.11-4.85-.89.02-1.79.05-2.68.07,0,4.8,0,9.6.01,14.41.89-.02,1.79-.03,2.68-.05Z"/><path class="cls-1" d="M211.8,108.78c4.15.08,8.31.19,12.46.34-1.41,1.85-2.49,3.66-2.5,6.13,0,11.94-.02,23.88-.03,35.81,0,2.47,1.08,4.38,2.48,6.22-3.89-.01-7.78-.02-11.68-.02-2.14-9.09-4.29-18.19-6.44-27.3,0,7.01,0,14.03,0,21.04,0,2.49,1.15,4.41,2.49,6.26-4.15,0-8.29,0-12.44,0,1.34-1.85,2.49-3.77,2.49-6.26,0-12.02,0-24.04,0-36.06,0-2.49-1.15-4.34-2.49-6.25,3.92-.02,7.84,0,11.76.05,2.13,8.96,4.25,17.91,6.38,26.84,0-6.83,0-13.66.01-20.49,0-2.48-1.15-4.35-2.49-6.29Z"/><path class="cls-1" d="M240.37,149.9c1.91.03,1.79-1.99,1.79-3.1,0-3.67-1.33-4.47-1.84-6.08,3.19-.14,6.64-3.29,11.81-2.35-1.41,1.73-2.5,6.23-2.5,8.64,0,1.44,0,2.88,0,4.33,0,2.4,1.08,4.27,2.48,6.06-8.51-.05-17.01-.09-25.52-.11,1.34-1.83,2.49-3.72,2.49-6.18,0-6.07.01-12.13.02-18.2-1.09.4-2.04,1.22-2.36,2.76-.04,0-.09,0-.13,0,0-1.97.52-6.19,2.5-8.52,0-3.89,0-7.78.01-11.66,0-2.46-1.14-4.33-2.49-6.29,8.52.33,17.03.82,25.54,1.46-1.41,1.74-2.49,3.46-2.5,5.86,0,1.46,0,2.93,0,4.39,0,2.4,1.08,6.92,2.48,8.77-4.91-.43-8.35-3.69-11.8-3.2.51-1.58,1.85-2.28,1.86-5.89,0-1.18.13-3.11-1.78-3.21-1.28-.06-2.55-.13-3.83-.18,0,3.35,0,6.7-.01,10.05,1.66,1.31,3.32,2.83,6.06,2.93.77.03,2.04-.06,2.75-1.55.04.03.09.05.13.07-.13,3.03-1.8,8.22-4.99,8.14-1.4-.04-2.61-1.18-3.95-2.34,0,5.12-.01,10.23-.02,15.35,1.28.01,2.55.03,3.83.05Z"/><path class="cls-1" d="M264.56,139.86c0,3.91,0,7.82-.01,11.73,0,2.35,1.14,4.17,2.48,5.91-4.15-.03-8.29-.06-12.44-.08,1.34-1.76,2.49-3.58,2.5-5.96,0-3.96,0-7.92.02-11.88-.83-.03-1.66-.06-2.49-.09,1.34-1.8,2.49-3.51,2.5-5.89,0-5.52.01-11.04.02-16.56,0-2.38-1.14-4.23-2.48-6.18,4.29.34,8.59.72,12.87,1.14,8.21.83,12.28,4.97,12.28,12.07,0,1.9,0,3.8,0,5.71,0,5.24-3.19,8.81-8.1,9.85,1.72.15,4.27.13,6.18-.75-1.47,1.29-1.47,4.18-.32,7.09.79,1.98,1.57,3.96,2.36,5.92.48,1.02,3.63,5.26,6.38,5.95-1.18,0-2.17,0-3.13,0-5.1.02-8.16-.28-11.67-.32,1.21-1.97,1.41-3.41.45-5.81-1.27-3.33-2.54-6.68-3.82-10.06-.44-1.15-1.21-1.71-2.36-1.76-.4-.02-.81-.03-1.21-.05ZM267.25,132.77c3.44.19,5.1-1.42,5.1-4.98,0-1.19,0-2.37,0-3.56,0-3.56-1.65-4.77-5.09-5.06-.89-.07-1.78-.15-2.68-.22,0,4.56-.01,9.11-.02,13.67.89.05,1.78.1,2.68.15Z"/></svg>