<?xml version="1.0" encoding="UTF-8"?>
<svg id="Layer_1" data-name="Layer 1" xmlns="http://www.w3.org/2000/svg" viewBox="0 0 554.05 221.66">
  <defs>
    <style>
      .cls-1 {
        fill: #fff;
      }

      .cls-2 {
        fill: #ef2c3b;
      }
    </style>
  </defs>
  <g>
    <path d="M223.24,65.44h32.06l14.29,102.3h.41l14.29-102.3h32.06v142.94h-21.24v-108.23h-.41l-16.34,108.23h-18.79l-16.34-108.23h-.41v108.23h-19.6V65.44Z"/>
    <path d="M345.36,65.44h30.43l23.28,142.94h-22.46l-4.08-28.38v.41h-25.52l-4.08,27.97h-20.83l23.28-142.94ZM369.86,161.01l-10.01-70.65h-.41l-9.8,70.65h20.22Z"/>
    <path d="M404.78,65.44h33.28c23.28,0,33.28,10.82,33.28,32.88v8.78c0,14.7-4.7,24.1-14.7,28.18v.41c11.23,3.47,14.91,14.09,14.91,30.22v25.12c0,6.94.2,12.05,2.45,17.36h-22.87c-1.23-3.68-2.04-5.92-2.04-17.56v-26.14c0-13.27-3.88-17.56-14.09-17.56h-7.76v61.26h-22.46V65.44ZM435.41,126.7c8.37,0,13.48-3.68,13.48-15.11v-11.03c0-10.21-3.47-14.7-11.44-14.7h-10.21v40.84h8.17Z"/>
    <path d="M529.34,207.97c-4.29,1.63-9.39,2.45-14.91,2.45-22.05,0-34.1-13.07-34.1-35.94v-75.14c0-22.87,12.05-35.94,34.1-35.94s34.1,13.07,34.1,35.94v75.14c0,9.8-2.25,17.56-6.33,23.48,1.63,2.86,4.29,3.27,8.37,3.27h3.47v20.42h-5.92c-8.37,0-16.13-3.06-18.79-13.68ZM526.07,175.91v-78c0-10.21-4.49-14.09-11.64-14.09s-11.64,3.88-11.64,14.09v78c0,10.21,4.49,14.09,11.64,14.09s11.64-3.88,11.64-14.09Z"/>
  </g>
  <path d="M121.48,92.44c0,16.03-13.01,29.04-29.04,29.04s-29.04-13.01-29.04-29.04,13-29.04,29.04-29.04,29.04,13,29.04,29.04Z"/>
  <path d="M157.68,92.44c0,10.44-2.45,20.3-6.81,29.04h-21.76c6.33-7.98,10.1-18.06,10.1-29.04,0-25.83-20.94-46.77-46.77-46.77s-46.77,20.94-46.77,46.77,18.96,44.73,43.05,46.62v18.52c-34.3-1.93-61.52-30.36-61.52-65.14S56.41,27.2,92.44,27.2s65.24,29.21,65.24,65.24Z"/>
  <path d="M184.88,92.44c0,10.14-1.63,19.91-4.66,29.04h-18.2c3.74-8.93,5.8-18.74,5.8-29.04,0-41.63-33.75-75.38-75.38-75.38S17.06,50.81,17.06,92.44s31.76,73.35,71.66,75.29v17.07C39.4,182.85,0,142.24,0,92.44S41.39,0,92.44,0s92.44,41.39,92.44,92.44Z"/>
  <path class="cls-1" d="M121.48,92.44c0,16.03-13.01,29.04-29.04,29.04s-29.04-13.01-29.04-29.04,13-29.04,29.04-29.04,29.04,13,29.04,29.04Z"/>
  <path class="cls-1" d="M157.68,92.44c0,10.44-2.45,20.3-6.81,29.04h-21.76c6.33-7.98,10.1-18.06,10.1-29.04,0-25.83-20.94-46.77-46.77-46.77s-46.77,20.94-46.77,46.77,18.96,44.73,43.05,46.62v18.52c-34.3-1.93-61.52-30.36-61.52-65.14S56.41,27.2,92.44,27.2s65.24,29.21,65.24,65.24Z"/>
  <path class="cls-2" d="M121.48,92.44c0,16.03-13.01,29.04-29.04,29.04s-29.04-13.01-29.04-29.04,13-29.04,29.04-29.04,29.04,13,29.04,29.04Z"/>
  <path class="cls-2" d="M157.68,92.44c0,10.44-2.45,20.3-6.81,29.04h-21.76c6.33-7.98,10.1-18.06,10.1-29.04,0-25.83-20.94-46.77-46.77-46.77s-46.77,20.94-46.77,46.77,18.96,44.73,43.05,46.62v18.52c-34.3-1.93-61.52-30.36-61.52-65.14S56.41,27.2,92.44,27.2s65.24,29.21,65.24,65.24Z"/>
  <path class="cls-1" d="M121.48,92.44c0,16.03-13.01,29.04-29.04,29.04s-29.04-13.01-29.04-29.04,13-29.04,29.04-29.04,29.04,13,29.04,29.04Z"/>
  <path d="M121.48,92.44c0,16.03-13.01,29.04-29.04,29.04s-29.04-13.01-29.04-29.04,13-29.04,29.04-29.04,29.04,13,29.04,29.04Z"/>
  <g>
    <path d="M93.12,125.9h39.88v11.73h-13.49v70.38h-12.9v-70.38h-13.49v-11.73Z"/>
    <path d="M148.61,208.02h-12.9v-82.12h12.9v35.19h14.66v-35.19h13.14v82.12h-13.14v-35.19h-14.66v35.19Z"/>
    <path d="M195.76,160.51h17.71v11.73h-17.71v24.05h22.29v11.73h-35.19v-82.12h35.19v11.73h-22.29v22.87Z"/>
  </g>
  <path d="M196.99,80.4v41.08h-8.02v-56.72h11.18l9.16,33.95v-33.95h7.94v56.72h-9.16l-11.1-41.08Z"/>
</svg>