<?xml version="1.0" encoding="UTF-8"?>
<svg id="Layer_1" data-name="Layer 1" xmlns="http://www.w3.org/2000/svg" xmlns:xlink="http://www.w3.org/1999/xlink" viewBox="0 0 6000 4000">
  <defs>
    <style>
      .cls-1 {
        fill: url(#linear-gradient);
      }

      .cls-2 {
        fill: #fff;
      }
    </style>
    <linearGradient id="linear-gradient" x1="3441" y1="2763.83" x2="2559" y2="1236.16" gradientUnits="userSpaceOnUse">
      <stop offset="0" stop-color="#000"/>
      <stop offset="1" stop-color="#414042"/>
    </linearGradient>
  </defs>
  <rect class="cls-2" width="6000" height="4000"/>
  <g>
    <path d="M856.11,386.17c22.82,21.51,53.57,34.72,87.42,34.72v-127.33h-127.45c0,33.82,13.22,64.53,34.75,87.33h-122.17c0,70.32,57.06,127.33,127.45,127.33v-122.05Z"/>
    <path d="M1458.1,826.84c21.53-22.8,34.75-53.51,34.75-87.33h-127.45v127.33c33.85,0,64.59-13.21,87.42-34.72v122.05c70.39,0,127.45-57.01,127.45-127.33h-122.17Z"/>
    <path d="M1236.85,1815.08c-21.53,22.8-34.75,53.51-34.75,87.33h127.45v-127.33c-33.85,0-64.59,13.21-87.42,34.72v-122.05c-70.39,0-127.45,57.01-127.45,127.33h122.17Z"/>
    <path d="M626.45,1576.04c-22.82-21.51-53.57-34.72-87.42-34.72v127.33h127.45c0-33.82-13.22-64.53-34.75-87.33h122.17c0-70.32-57.06-127.33-127.45-127.33v122.05Z"/>
    <g>
      <path d="M433.99,811.37c-4.98,13.62-7.7,28.32-7.7,43.66h127.45s0-127.33,0-127.33c-19.57,0-38.1,4.42-54.66,12.29v71.37h-65.09Z"/>
      <path d="M433.99,811.37c11.5-31.46,35.06-57.1,65.09-71.37v-55.95c-70.39,0-127.45,57.01-127.45,127.33h62.36Z"/>
    </g>
    <g>
      <path d="M1275.22,1374.99c-4.98,13.62-7.69,28.32-7.69,43.66h127.45s0-127.33,0-127.33c-19.57,0-38.1,4.42-54.66,12.29v71.37h-65.09Z"/>
      <path d="M1275.22,1374.99c11.5-31.46,35.06-57.1,65.09-71.37v-55.95c-70.39,0-127.45,57.01-127.45,127.33h62.36Z"/>
    </g>
    <g>
      <path d="M1428.64,177.24c1.29-14.44.12-29.35-3.85-44.17l-123.14,32.86,32.89,123.01c18.9-5.04,35.66-14.09,49.64-25.97l-18.44-68.95,62.89-16.78Z"/>
      <path d="M1428.64,177.24c-2.98,33.36-19.12,64.21-44.45,85.74l14.45,54.06c68.01-18.15,108.41-87.93,90.24-155.87l-60.25,16.08Z"/>
    </g>
    <polygon points="160.16 1846.88 117.66 1777.45 190.85 1732.75 198.9 1745.89 138.87 1782.56 173.32 1838.83 160.16 1846.88"/>
    <polygon points="411.6 404.91 369.11 335.48 442.29 290.78 450.34 303.92 390.31 340.59 424.76 396.87 411.6 404.91"/>
    <polygon points="1678.36 592.31 1635.87 522.89 1709.05 478.18 1717.1 491.33 1657.07 528 1691.52 584.27 1678.36 592.31"/>
    <polygon points="939.34 1188.08 896.84 1118.66 970.03 1073.95 978.08 1087.1 918.05 1123.77 952.49 1180.04 939.34 1188.08"/>
    <polygon points="1135.28 820.74 1056.62 799.62 1125.22 544.66 1140.11 548.65 1075.52 788.74 1139.29 805.86 1135.28 820.74"/>
    <polygon points="1697.9 1742.53 1619.24 1721.41 1687.84 1466.45 1702.74 1470.45 1638.15 1710.53 1701.91 1727.65 1697.9 1742.53"/>
    <polygon points="506.33 1275.74 382.24 1060.25 325.01 1093.14 317.31 1079.78 387.92 1039.2 519.7 1268.05 506.33 1275.74"/>
    <path d="M.81,288.58v122.05c70.39,0,127.45-57.01,127.45-127.33H6.1c21.53-22.8,34.75-53.51,34.75-87.33H0v93.34c.27-.25.55-.48.81-.73Z"/>
    <path d="M7.76,1286.79l45.99,46.02c13.16-6.1,25.5-14.57,36.37-25.41L.07,1217.29l-.07.07v77.17l7.76-7.74Z"/>
    <path d="M0,1413.85c35.12,2.13,70.96-10.17,97.82-36.96l-44.06-44.08c-17,7.88-35.38,11.81-53.76,11.8v69.25Z"/>
    <polygon points="117.31 672.97 109.26 659.83 0 726.57 0 744.64 117.31 672.97"/>
    <path d="M1913.4,323.29c33.46,0,63.86-12.92,86.6-33.98v-93.34h-86.6v127.33Z"/>
    <path d="M1957.21,1337.21l42.79-42.69v-77.17l-90.12,89.89c13.83,13.83,30.05,23.81,47.33,29.96Z"/>
    <path d="M1957.21,1337.21l-39.63,39.53c22.92,22.93,52.41,35.28,82.43,37.1v-69.25c-14.49-.01-28.98-2.47-42.79-7.38Z"/>
    <polygon points="1939.45 858.94 1905.01 802.67 2000 744.64 2000 726.57 1883.8 797.56 1926.29 866.98 1939.45 858.94"/>
    <path d="M678.54,7.76l-46.06,45.95c6.11,13.15,14.59,25.48,25.44,36.33L748.1.07l-.07-.07h-77.25l7.75,7.76Z"/>
    <path d="M551.35,0c-2.13,35.09,10.18,70.89,37,97.72l44.13-44.02c-7.89-16.98-11.82-35.34-11.81-53.7h-69.32Z"/>
    <polygon points="1735.23 63.47 1748.39 55.44 1714.45 0 1696.38 0 1735.23 63.47"/>
    <path d="M628.06,1957.25l42.73,42.75h77.25l-89.98-90.03c-13.85,13.81-23.83,30.02-29.99,47.28Z"/>
    <path d="M628.06,1957.25l-39.57-39.6c-22.95,22.9-35.32,52.36-37.14,82.35h69.32c.01-14.48,2.47-28.95,7.39-42.75Z"/>
    <polygon points="1773.97 1962.49 1765.92 1949.35 1692.74 1994.05 1696.38 2000 1714.45 2000 1713.94 1999.16 1773.97 1962.49"/>
  </g>
  <g>
    <path d="M4856.11,386.17c22.82,21.51,53.57,34.72,87.42,34.72v-127.33h-127.45c0,33.82,13.22,64.53,34.75,87.33h-122.17c0,70.32,57.06,127.33,127.45,127.33v-122.05Z"/>
    <path d="M5458.1,826.84c21.53-22.8,34.75-53.51,34.75-87.33h-127.45v127.33c33.85,0,64.59-13.21,87.42-34.72v122.05c70.39,0,127.45-57.01,127.45-127.33h-122.17Z"/>
    <path d="M5236.85,1815.08c-21.53,22.8-34.75,53.51-34.75,87.33h127.45v-127.33c-33.85,0-64.59,13.21-87.42,34.72v-122.05c-70.39,0-127.45,57.01-127.45,127.33h122.17Z"/>
    <path d="M4626.45,1576.04c-22.82-21.51-53.57-34.72-87.42-34.72v127.33h127.45c0-33.82-13.22-64.53-34.75-87.33h122.17c0-70.32-57.06-127.33-127.45-127.33v122.05Z"/>
    <g>
      <path d="M4433.99,811.37c-4.98,13.62-7.7,28.32-7.7,43.66h127.45s0-127.33,0-127.33c-19.57,0-38.1,4.42-54.66,12.29v71.37h-65.09Z"/>
      <path d="M4433.99,811.37c11.5-31.46,35.06-57.1,65.09-71.37v-55.95c-70.39,0-127.45,57.01-127.45,127.33h62.36Z"/>
    </g>
    <g>
      <path d="M5275.22,1374.99c-4.98,13.62-7.69,28.32-7.69,43.66h127.45s0-127.33,0-127.33c-19.57,0-38.1,4.42-54.66,12.29v71.37h-65.09Z"/>
      <path d="M5275.22,1374.99c11.5-31.46,35.06-57.1,65.09-71.37v-55.95c-70.39,0-127.45,57.01-127.45,127.33h62.36Z"/>
    </g>
    <g>
      <path d="M5428.64,177.24c1.29-14.44.12-29.35-3.85-44.17l-123.14,32.86,32.89,123.01c18.9-5.04,35.66-14.09,49.64-25.97l-18.44-68.95,62.89-16.78Z"/>
      <path d="M5428.64,177.24c-2.98,33.36-19.12,64.21-44.45,85.74l14.45,54.06c68.01-18.15,108.41-87.93,90.24-155.87l-60.25,16.08Z"/>
    </g>
    <polygon points="4160.16 1846.88 4117.66 1777.45 4190.85 1732.75 4198.9 1745.89 4138.87 1782.56 4173.32 1838.83 4160.16 1846.88"/>
    <polygon points="4411.6 404.91 4369.11 335.48 4442.29 290.78 4450.34 303.92 4390.31 340.59 4424.76 396.87 4411.6 404.91"/>
    <polygon points="5678.36 592.31 5635.87 522.89 5709.05 478.18 5717.1 491.33 5657.07 528 5691.51 584.27 5678.36 592.31"/>
    <polygon points="4939.34 1188.08 4896.84 1118.66 4970.03 1073.95 4978.08 1087.1 4918.05 1123.77 4952.49 1180.04 4939.34 1188.08"/>
    <polygon points="5135.28 820.74 5056.62 799.62 5125.22 544.66 5140.11 548.65 5075.53 788.74 5139.29 805.86 5135.28 820.74"/>
    <polygon points="5697.9 1742.53 5619.24 1721.41 5687.84 1466.45 5702.74 1470.45 5638.15 1710.53 5701.91 1727.65 5697.9 1742.53"/>
    <polygon points="4506.33 1275.74 4382.24 1060.25 4325.01 1093.14 4317.31 1079.78 4387.92 1039.2 4519.7 1268.05 4506.33 1275.74"/>
    <path d="M4000.81,288.58v122.05c70.39,0,127.45-57.01,127.45-127.33h-122.17c21.53-22.8,34.75-53.51,34.75-87.33h-40.85v93.34c.27-.25.55-.48.81-.73Z"/>
    <path d="M4007.76,1286.79l45.99,46.02c13.16-6.1,25.5-14.57,36.37-25.41l-90.05-90.1-.07.07v77.17l7.76-7.74Z"/>
    <path d="M4000,1413.85c35.12,2.13,70.96-10.17,97.82-36.96l-44.06-44.08c-17,7.88-35.38,11.81-53.76,11.8v69.25Z"/>
    <polygon points="4117.31 672.97 4109.26 659.83 4000 726.57 4000 744.64 4117.31 672.97"/>
    <path d="M5913.4,323.29c33.46,0,63.86-12.92,86.6-33.98v-93.34h-86.6v127.33Z"/>
    <path d="M5957.21,1337.21l42.79-42.69v-77.17l-90.12,89.89c13.83,13.83,30.05,23.81,47.33,29.96Z"/>
    <path d="M5957.21,1337.21l-39.63,39.53c22.92,22.93,52.41,35.28,82.43,37.1v-69.25c-14.49-.01-28.98-2.47-42.79-7.38Z"/>
    <polygon points="5939.45 858.94 5905.01 802.67 6000 744.64 6000 726.57 5883.8 797.56 5926.29 866.98 5939.45 858.94"/>
    <path d="M4678.54,7.76l-46.06,45.95c6.11,13.15,14.59,25.48,25.44,36.33L4748.1.07l-.07-.07h-77.25l7.75,7.76Z"/>
    <path d="M4551.35,0c-2.13,35.09,10.18,70.89,37,97.72l44.13-44.02c-7.89-16.98-11.82-35.34-11.81-53.7h-69.32Z"/>
    <polygon points="5735.23 63.47 5748.39 55.44 5714.45 0 5696.38 0 5735.23 63.47"/>
    <path d="M4628.06,1957.25l42.73,42.75h77.25l-89.98-90.03c-13.85,13.81-23.84,30.02-29.99,47.28Z"/>
    <path d="M4628.06,1957.25l-39.57-39.6c-22.95,22.9-35.32,52.36-37.14,82.35h69.32c.01-14.48,2.47-28.95,7.39-42.75Z"/>
    <polygon points="5773.97 1962.49 5765.92 1949.35 5692.74 1994.05 5696.38 2000 5714.45 2000 5713.94 1999.16 5773.97 1962.49"/>
  </g>
  <g>
    <path d="M2856.11,2386.17c22.82,21.51,53.57,34.72,87.42,34.72v-127.33h-127.45c0,33.82,13.22,64.53,34.75,87.33h-122.17c0,70.32,57.06,127.33,127.45,127.33v-122.05Z"/>
    <path d="M3458.1,2826.84c21.53-22.8,34.75-53.51,34.75-87.33h-127.45v127.33c33.85,0,64.59-13.21,87.42-34.72v122.05c70.39,0,127.45-57.01,127.45-127.33h-122.17Z"/>
    <path d="M3236.85,3815.08c-21.53,22.8-34.75,53.51-34.75,87.33h127.45v-127.33c-33.85,0-64.59,13.21-87.42,34.72v-122.05c-70.39,0-127.45,57.01-127.45,127.33h122.17Z"/>
    <path d="M2626.45,3576.04c-22.82-21.51-53.57-34.72-87.42-34.72v127.33h127.45c0-33.82-13.22-64.53-34.75-87.33h122.17c0-70.32-57.06-127.33-127.45-127.33v122.05Z"/>
    <g>
      <path d="M2433.99,2811.37c-4.98,13.62-7.7,28.32-7.7,43.66h127.45s0-127.33,0-127.33c-19.57,0-38.1,4.42-54.66,12.29v71.37h-65.09Z"/>
      <path d="M2433.99,2811.37c11.5-31.46,35.06-57.1,65.09-71.37v-55.95c-70.39,0-127.45,57.01-127.45,127.33h62.36Z"/>
    </g>
    <g>
      <path d="M3275.22,3374.99c-4.98,13.62-7.69,28.32-7.69,43.66h127.45s0-127.33,0-127.33c-19.57,0-38.1,4.42-54.66,12.29v71.37h-65.09Z"/>
      <path d="M3275.22,3374.99c11.5-31.46,35.06-57.1,65.09-71.37v-55.95c-70.39,0-127.45,57.01-127.45,127.33h62.36Z"/>
    </g>
    <g>
      <path d="M3428.64,2177.24c1.29-14.44.12-29.35-3.85-44.17l-123.14,32.86,32.89,123.01c18.9-5.04,35.66-14.09,49.64-25.97l-18.44-68.96,62.89-16.78Z"/>
      <path d="M3428.64,2177.24c-2.98,33.36-19.12,64.21-44.45,85.74l14.45,54.06c68.01-18.15,108.41-87.93,90.24-155.87l-60.25,16.08Z"/>
    </g>
    <polygon points="2160.16 3846.88 2117.66 3777.45 2190.85 3732.75 2198.9 3745.89 2138.87 3782.56 2173.32 3838.83 2160.16 3846.88"/>
    <polygon points="2411.6 2404.91 2369.11 2335.48 2442.29 2290.78 2450.34 2303.92 2390.31 2340.59 2424.76 2396.87 2411.6 2404.91"/>
    <polygon points="3678.36 2592.31 3635.87 2522.89 3709.05 2478.18 3717.1 2491.33 3657.07 2528 3691.51 2584.27 3678.36 2592.31"/>
    <polygon points="2939.34 3188.08 2896.84 3118.66 2970.03 3073.95 2978.08 3087.1 2918.05 3123.77 2952.49 3180.04 2939.34 3188.08"/>
    <polygon points="3135.28 2820.74 3056.62 2799.62 3125.22 2544.66 3140.11 2548.65 3075.52 2788.74 3139.29 2805.86 3135.28 2820.74"/>
    <polygon points="3697.9 3742.53 3619.24 3721.41 3687.84 3466.45 3702.74 3470.45 3638.15 3710.53 3701.91 3727.65 3697.9 3742.53"/>
    <polygon points="2506.33 3275.74 2382.24 3060.25 2325.01 3093.14 2317.31 3079.78 2387.92 3039.2 2519.7 3268.05 2506.33 3275.74"/>
    <path d="M2000.81,2288.58v122.05c70.39,0,127.45-57.01,127.45-127.33h-122.17c21.53-22.8,34.75-53.51,34.75-87.33h-40.85v93.34c.27-.25.55-.48.81-.73Z"/>
    <path d="M2007.76,3286.79l45.99,46.02c13.16-6.1,25.5-14.57,36.37-25.41l-90.05-90.1-.07.07v77.17l7.76-7.74Z"/>
    <path d="M2000,3413.85c35.12,2.13,70.96-10.17,97.82-36.96l-44.06-44.08c-17,7.88-35.38,11.81-53.76,11.8v69.25Z"/>
    <polygon points="2117.31 2672.97 2109.26 2659.83 2000 2726.57 2000 2744.64 2117.31 2672.97"/>
    <path d="M3913.4,2323.29c33.46,0,63.86-12.92,86.6-33.98v-93.34h-86.6v127.33Z"/>
    <path d="M3957.21,3337.21l42.79-42.69v-77.17l-90.12,89.9c13.83,13.83,30.05,23.81,47.33,29.96Z"/>
    <path d="M3957.21,3337.21l-39.63,39.53c22.92,22.93,52.41,35.28,82.43,37.1v-69.25c-14.49-.01-28.98-2.47-42.79-7.38Z"/>
    <polygon points="3939.45 2858.94 3905.01 2802.67 4000 2744.64 4000 2726.57 3883.8 2797.56 3926.29 2866.98 3939.45 2858.94"/>
    <path d="M2678.54,2007.76l-46.06,45.95c6.11,13.15,14.59,25.48,25.44,36.33l90.19-89.96-.07-.07h-77.25l7.75,7.76Z"/>
    <path d="M2551.35,2000c-2.13,35.09,10.18,70.89,37,97.72l44.13-44.02c-7.89-16.98-11.82-35.34-11.81-53.7h-69.32Z"/>
    <polygon points="3735.23 2063.47 3748.39 2055.44 3714.45 2000 3696.38 2000 3735.23 2063.47"/>
    <path d="M2628.06,3957.25l42.73,42.75h77.25l-89.98-90.03c-13.85,13.81-23.84,30.02-29.99,47.28Z"/>
    <path d="M2628.06,3957.25l-39.57-39.6c-22.95,22.9-35.32,52.36-37.14,82.35h69.32c.01-14.48,2.47-28.95,7.39-42.75Z"/>
    <polygon points="3773.97 3962.49 3765.92 3949.35 3692.74 3994.05 3696.38 4000 3714.45 4000 3713.94 3999.16 3773.97 3962.49"/>
  </g>
  <g>
    <path d="M2856.11,386.17c22.82,21.51,53.57,34.72,87.42,34.72v-127.33h-127.45c0,33.82,13.22,64.53,34.75,87.33h-122.17c0,70.32,57.06,127.33,127.45,127.33v-122.05Z"/>
    <path d="M3458.1,826.84c21.53-22.8,34.75-53.51,34.75-87.33h-127.45v127.33c33.85,0,64.59-13.21,87.42-34.72v122.05c70.39,0,127.45-57.01,127.45-127.33h-122.17Z"/>
    <path d="M3236.85,1815.08c-21.53,22.8-34.75,53.51-34.75,87.33h127.45v-127.33c-33.85,0-64.59,13.21-87.42,34.72v-122.05c-70.39,0-127.45,57.01-127.45,127.33h122.17Z"/>
    <path d="M2626.45,1576.04c-22.82-21.51-53.57-34.72-87.42-34.72v127.33h127.45c0-33.82-13.22-64.53-34.75-87.33h122.17c0-70.32-57.06-127.33-127.45-127.33v122.05Z"/>
    <g>
      <path d="M2433.99,811.37c-4.98,13.62-7.7,28.32-7.7,43.66h127.45s0-127.33,0-127.33c-19.57,0-38.1,4.42-54.66,12.29v71.37h-65.09Z"/>
      <path d="M2433.99,811.37c11.5-31.46,35.06-57.1,65.09-71.37v-55.95c-70.39,0-127.45,57.01-127.45,127.33h62.36Z"/>
    </g>
    <g>
      <path d="M3275.22,1374.99c-4.98,13.62-7.69,28.32-7.69,43.66h127.45s0-127.33,0-127.33c-19.57,0-38.1,4.42-54.66,12.29v71.37h-65.09Z"/>
      <path d="M3275.22,1374.99c11.5-31.46,35.06-57.1,65.09-71.37v-55.95c-70.39,0-127.45,57.01-127.45,127.33h62.36Z"/>
    </g>
    <g>
      <path d="M3428.64,177.24c1.29-14.44.12-29.35-3.85-44.17l-123.14,32.86,32.89,123.01c18.9-5.04,35.66-14.09,49.64-25.97l-18.44-68.95,62.89-16.78Z"/>
      <path d="M3428.64,177.24c-2.98,33.36-19.12,64.21-44.45,85.74l14.45,54.06c68.01-18.15,108.41-87.93,90.24-155.87l-60.25,16.08Z"/>
    </g>
    <polygon points="2160.16 1846.88 2117.66 1777.45 2190.85 1732.75 2198.9 1745.89 2138.87 1782.56 2173.32 1838.83 2160.16 1846.88"/>
    <polygon points="2411.6 404.91 2369.11 335.48 2442.29 290.78 2450.34 303.92 2390.31 340.59 2424.76 396.87 2411.6 404.91"/>
    <polygon points="3678.36 592.31 3635.87 522.89 3709.05 478.18 3717.1 491.33 3657.07 528 3691.51 584.27 3678.36 592.31"/>
    <polygon points="2939.34 1188.08 2896.84 1118.66 2970.03 1073.95 2978.08 1087.1 2918.05 1123.77 2952.49 1180.04 2939.34 1188.08"/>
    <polygon points="3135.28 820.74 3056.62 799.62 3125.22 544.66 3140.11 548.65 3075.52 788.74 3139.29 805.86 3135.28 820.74"/>
    <polygon points="3697.9 1742.53 3619.24 1721.41 3687.84 1466.45 3702.74 1470.45 3638.15 1710.53 3701.91 1727.65 3697.9 1742.53"/>
    <polygon points="2506.33 1275.74 2382.24 1060.25 2325.01 1093.14 2317.31 1079.78 2387.92 1039.2 2519.7 1268.05 2506.33 1275.74"/>
    <path d="M2000.81,288.58v122.05c70.39,0,127.45-57.01,127.45-127.33h-122.17c21.53-22.8,34.75-53.51,34.75-87.33h-40.85v93.34c.27-.25.55-.48.81-.73Z"/>
    <path d="M2007.76,1286.79l45.99,46.02c13.16-6.1,25.5-14.57,36.37-25.41l-90.05-90.1-.07.07v77.17l7.76-7.74Z"/>
    <path d="M2000,1413.85c35.12,2.13,70.96-10.17,97.82-36.96l-44.06-44.08c-17,7.88-35.38,11.81-53.76,11.8v69.25Z"/>
    <polygon points="2117.31 672.97 2109.26 659.83 2000 726.57 2000 744.64 2117.31 672.97"/>
    <path d="M3913.4,323.29c33.46,0,63.86-12.92,86.6-33.98v-93.34h-86.6v127.33Z"/>
    <path d="M3957.21,1337.21l42.79-42.69v-77.17l-90.12,89.89c13.83,13.83,30.05,23.81,47.33,29.96Z"/>
    <path d="M3957.21,1337.21l-39.63,39.53c22.92,22.93,52.41,35.28,82.43,37.1v-69.25c-14.49-.01-28.98-2.47-42.79-7.38Z"/>
    <polygon points="3939.45 858.94 3905.01 802.67 4000 744.64 4000 726.57 3883.8 797.56 3926.29 866.98 3939.45 858.94"/>
    <path d="M2678.54,7.76l-46.06,45.95c6.11,13.15,14.59,25.48,25.44,36.33L2748.1.07l-.07-.07h-77.25l7.75,7.76Z"/>
    <path d="M2551.35,0c-2.13,35.09,10.18,70.89,37,97.72l44.13-44.02c-7.89-16.98-11.82-35.34-11.81-53.7h-69.32Z"/>
    <polygon points="3735.23 63.47 3748.39 55.44 3714.45 0 3696.38 0 3735.23 63.47"/>
    <path d="M2628.06,1957.25l42.73,42.75h77.25l-89.98-90.03c-13.85,13.81-23.84,30.02-29.99,47.28Z"/>
    <path d="M2628.06,1957.25l-39.57-39.6c-22.95,22.9-35.32,52.36-37.14,82.35h69.32c.01-14.48,2.47-28.95,7.39-42.75Z"/>
    <polygon points="3773.97 1962.49 3765.92 1949.35 3692.74 1994.05 3696.38 2000 3714.45 2000 3713.94 1999.16 3773.97 1962.49"/>
  </g>
  <g>
    <path d="M856.11,2386.17c22.82,21.51,53.57,34.72,87.42,34.72v-127.33h-127.45c0,33.82,13.22,64.53,34.75,87.33h-122.17c0,70.32,57.06,127.33,127.45,127.33v-122.05Z"/>
    <path d="M1458.1,2826.84c21.53-22.8,34.75-53.51,34.75-87.33h-127.45v127.33c33.85,0,64.59-13.21,87.42-34.72v122.05c70.39,0,127.45-57.01,127.45-127.33h-122.17Z"/>
    <path d="M1236.85,3815.08c-21.53,22.8-34.75,53.51-34.75,87.33h127.45v-127.33c-33.85,0-64.59,13.21-87.42,34.72v-122.05c-70.39,0-127.45,57.01-127.45,127.33h122.17Z"/>
    <path d="M626.45,3576.04c-22.82-21.51-53.57-34.72-87.42-34.72v127.33h127.45c0-33.82-13.22-64.53-34.75-87.33h122.17c0-70.32-57.06-127.33-127.45-127.33v122.05Z"/>
    <g>
      <path d="M433.99,2811.37c-4.98,13.62-7.7,28.32-7.7,43.66h127.45s0-127.33,0-127.33c-19.57,0-38.1,4.42-54.66,12.29v71.37h-65.09Z"/>
      <path d="M433.99,2811.37c11.5-31.46,35.06-57.1,65.09-71.37v-55.95c-70.39,0-127.45,57.01-127.45,127.33h62.36Z"/>
    </g>
    <g>
      <path d="M1275.22,3374.99c-4.98,13.62-7.69,28.32-7.69,43.66h127.45s0-127.33,0-127.33c-19.57,0-38.1,4.42-54.66,12.29v71.37h-65.09Z"/>
      <path d="M1275.22,3374.99c11.5-31.46,35.06-57.1,65.09-71.37v-55.95c-70.39,0-127.45,57.01-127.45,127.33h62.36Z"/>
    </g>
    <g>
      <path d="M1428.64,2177.24c1.29-14.44.12-29.35-3.85-44.17l-123.14,32.86,32.89,123.01c18.9-5.04,35.66-14.09,49.64-25.97l-18.44-68.96,62.89-16.78Z"/>
      <path d="M1428.64,2177.24c-2.98,33.36-19.12,64.21-44.45,85.74l14.45,54.06c68.01-18.15,108.41-87.93,90.24-155.87l-60.25,16.08Z"/>
    </g>
    <polygon points="160.16 3846.88 117.66 3777.45 190.85 3732.75 198.9 3745.89 138.87 3782.56 173.32 3838.83 160.16 3846.88"/>
    <polygon points="411.6 2404.91 369.11 2335.48 442.29 2290.78 450.34 2303.92 390.31 2340.59 424.76 2396.87 411.6 2404.91"/>
    <polygon points="1678.36 2592.31 1635.87 2522.89 1709.05 2478.18 1717.1 2491.33 1657.07 2528 1691.52 2584.27 1678.36 2592.31"/>
    <polygon points="939.34 3188.08 896.84 3118.66 970.03 3073.95 978.08 3087.1 918.05 3123.77 952.49 3180.04 939.34 3188.08"/>
    <polygon points="1135.28 2820.74 1056.62 2799.62 1125.22 2544.66 1140.11 2548.65 1075.52 2788.74 1139.29 2805.86 1135.28 2820.74"/>
    <polygon points="1697.9 3742.53 1619.24 3721.41 1687.84 3466.45 1702.74 3470.45 1638.15 3710.53 1701.91 3727.65 1697.9 3742.53"/>
    <polygon points="506.33 3275.74 382.24 3060.25 325.01 3093.14 317.31 3079.78 387.92 3039.2 519.7 3268.05 506.33 3275.74"/>
    <path d="M.81,2288.58v122.05c70.39,0,127.45-57.01,127.45-127.33H6.1c21.53-22.8,34.75-53.51,34.75-87.33H0v93.34c.27-.25.55-.48.81-.73Z"/>
    <path d="M7.76,3286.79l45.99,46.02c13.16-6.1,25.5-14.57,36.37-25.41L.07,3217.29l-.07.07v77.17l7.76-7.74Z"/>
    <path d="M0,3413.85c35.12,2.13,70.96-10.17,97.82-36.96l-44.06-44.08c-17,7.88-35.38,11.81-53.76,11.8v69.25Z"/>
    <polygon points="117.31 2672.97 109.26 2659.83 0 2726.57 0 2744.64 117.31 2672.97"/>
    <path d="M1913.4,2323.29c33.46,0,63.86-12.92,86.6-33.98v-93.34h-86.6v127.33Z"/>
    <path d="M1957.21,3337.21l42.79-42.69v-77.17l-90.12,89.9c13.83,13.83,30.05,23.81,47.33,29.96Z"/>
    <path d="M1957.21,3337.21l-39.63,39.53c22.92,22.93,52.41,35.28,82.43,37.1v-69.25c-14.49-.01-28.98-2.47-42.79-7.38Z"/>
    <polygon points="1939.45 2858.94 1905.01 2802.67 2000 2744.64 2000 2726.57 1883.8 2797.56 1926.29 2866.98 1939.45 2858.94"/>
    <path d="M678.54,2007.76l-46.06,45.95c6.11,13.15,14.59,25.48,25.44,36.33l90.19-89.96-.07-.07h-77.25l7.75,7.76Z"/>
    <path d="M551.35,2000c-2.13,35.09,10.18,70.89,37,97.72l44.13-44.02c-7.89-16.98-11.82-35.34-11.81-53.7h-69.32Z"/>
    <polygon points="1735.23 2063.47 1748.39 2055.44 1714.45 2000 1696.38 2000 1735.23 2063.47"/>
    <path d="M628.06,3957.25l42.73,42.75h77.25l-89.98-90.03c-13.85,13.81-23.84,30.02-29.99,47.28Z"/>
    <path d="M628.06,3957.25l-39.57-39.6c-22.95,22.9-35.32,52.36-37.14,82.35h69.32c.01-14.48,2.47-28.95,7.39-42.75Z"/>
    <polygon points="1773.97 3962.49 1765.92 3949.35 1692.74 3994.05 1696.38 4000 1714.45 4000 1713.94 3999.16 1773.97 3962.49"/>
  </g>
  <g>
    <path d="M4856.11,2386.17c22.82,21.51,53.57,34.72,87.42,34.72v-127.33h-127.45c0,33.82,13.22,64.53,34.75,87.33h-122.17c0,70.32,57.06,127.33,127.45,127.33v-122.05Z"/>
    <path d="M5458.1,2826.84c21.53-22.8,34.75-53.51,34.75-87.33h-127.45v127.33c33.85,0,64.59-13.21,87.42-34.72v122.05c70.39,0,127.45-57.01,127.45-127.33h-122.17Z"/>
    <path d="M5236.85,3815.08c-21.53,22.8-34.75,53.51-34.75,87.33h127.45v-127.33c-33.85,0-64.59,13.21-87.42,34.72v-122.05c-70.39,0-127.45,57.01-127.45,127.33h122.17Z"/>
    <path d="M4626.45,3576.04c-22.82-21.51-53.57-34.72-87.42-34.72v127.33h127.45c0-33.82-13.22-64.53-34.75-87.33h122.17c0-70.32-57.06-127.33-127.45-127.33v122.05Z"/>
    <g>
      <path d="M4433.99,2811.37c-4.98,13.62-7.7,28.32-7.7,43.66h127.45s0-127.33,0-127.33c-19.57,0-38.1,4.42-54.66,12.29v71.37h-65.09Z"/>
      <path d="M4433.99,2811.37c11.5-31.46,35.06-57.1,65.09-71.37v-55.95c-70.39,0-127.45,57.01-127.45,127.33h62.36Z"/>
    </g>
    <g>
      <path d="M5275.22,3374.99c-4.98,13.62-7.69,28.32-7.69,43.66h127.45s0-127.33,0-127.33c-19.57,0-38.1,4.42-54.66,12.29v71.37h-65.09Z"/>
      <path d="M5275.22,3374.99c11.5-31.46,35.06-57.1,65.09-71.37v-55.95c-70.39,0-127.45,57.01-127.45,127.33h62.36Z"/>
    </g>
    <g>
      <path d="M5428.64,2177.24c1.29-14.44.12-29.35-3.85-44.17l-123.14,32.86,32.89,123.01c18.9-5.04,35.66-14.09,49.64-25.97l-18.44-68.96,62.89-16.78Z"/>
      <path d="M5428.64,2177.24c-2.98,33.36-19.12,64.21-44.45,85.74l14.45,54.06c68.01-18.15,108.41-87.93,90.24-155.87l-60.25,16.08Z"/>
    </g>
    <polygon points="4160.16 3846.88 4117.66 3777.45 4190.85 3732.75 4198.9 3745.89 4138.87 3782.56 4173.32 3838.83 4160.16 3846.88"/>
    <polygon points="4411.6 2404.91 4369.11 2335.48 4442.29 2290.78 4450.34 2303.92 4390.31 2340.59 4424.76 2396.87 4411.6 2404.91"/>
    <polygon points="5678.36 2592.31 5635.87 2522.89 5709.05 2478.18 5717.1 2491.33 5657.07 2528 5691.51 2584.27 5678.36 2592.31"/>
    <polygon points="4939.34 3188.08 4896.84 3118.66 4970.03 3073.95 4978.08 3087.1 4918.05 3123.77 4952.49 3180.04 4939.34 3188.08"/>
    <polygon points="5135.28 2820.74 5056.62 2799.62 5125.22 2544.66 5140.11 2548.65 5075.53 2788.74 5139.29 2805.86 5135.28 2820.74"/>
    <polygon points="5697.9 3742.53 5619.24 3721.41 5687.84 3466.45 5702.74 3470.45 5638.15 3710.53 5701.91 3727.65 5697.9 3742.53"/>
    <polygon points="4506.33 3275.74 4382.24 3060.25 4325.01 3093.14 4317.31 3079.78 4387.92 3039.2 4519.7 3268.05 4506.33 3275.74"/>
    <path d="M4000.81,2288.58v122.05c70.39,0,127.45-57.01,127.45-127.33h-122.17c21.53-22.8,34.75-53.51,34.75-87.33h-40.85v93.34c.27-.25.55-.48.81-.73Z"/>
    <path d="M4007.76,3286.79l45.99,46.02c13.16-6.1,25.5-14.57,36.37-25.41l-90.05-90.1-.07.07v77.17l7.76-7.74Z"/>
    <path d="M4000,3413.85c35.12,2.13,70.96-10.17,97.82-36.96l-44.06-44.08c-17,7.88-35.38,11.81-53.76,11.8v69.25Z"/>
    <polygon points="4117.31 2672.97 4109.26 2659.83 4000 2726.57 4000 2744.64 4117.31 2672.97"/>
    <path d="M5913.4,2323.29c33.46,0,63.86-12.92,86.6-33.98v-93.34h-86.6v127.33Z"/>
    <path d="M5957.21,3337.21l42.79-42.69v-77.17l-90.12,89.9c13.83,13.83,30.05,23.81,47.33,29.96Z"/>
    <path d="M5957.21,3337.21l-39.63,39.53c22.92,22.93,52.41,35.28,82.43,37.1v-69.25c-14.49-.01-28.98-2.47-42.79-7.38Z"/>
    <polygon points="5939.45 2858.94 5905.01 2802.67 6000 2744.64 6000 2726.57 5883.8 2797.56 5926.29 2866.98 5939.45 2858.94"/>
    <path d="M4678.54,2007.76l-46.06,45.95c6.11,13.15,14.59,25.48,25.44,36.33l90.19-89.96-.07-.07h-77.25l7.75,7.76Z"/>
    <path d="M4551.35,2000c-2.13,35.09,10.18,70.89,37,97.72l44.13-44.02c-7.89-16.98-11.82-35.34-11.81-53.7h-69.32Z"/>
    <polygon points="5735.23 2063.47 5748.39 2055.44 5714.45 2000 5696.38 2000 5735.23 2063.47"/>
    <path d="M4628.06,3957.25l42.73,42.75h77.25l-89.98-90.03c-13.85,13.81-23.84,30.02-29.99,47.28Z"/>
    <path d="M4628.06,3957.25l-39.57-39.6c-22.95,22.9-35.32,52.36-37.14,82.35h69.32c.01-14.48,2.47-28.95,7.39-42.75Z"/>
    <polygon points="5773.97 3962.49 5765.92 3949.35 5692.74 3994.05 5696.38 4000 5714.45 4000 5713.94 3999.16 5773.97 3962.49"/>
  </g>
  <path class="cls-1" d="M2559,1236.17l-360.09,207.9c-50.06,28.9-80.9,82.32-80.9,140.13v415.8s0,415.8,0,415.8c0,57.81,30.84,111.23,80.9,140.13l360.09,207.9,360.1,207.9c50.06,28.9,111.75,28.9,161.81,0l360.1-207.9,360.09-207.9c50.06-28.9,80.9-82.32,80.9-140.13v-415.8s0-415.8,0-415.8c0-57.81-30.84-111.23-80.9-140.13l-360.09-207.9-360.1-207.9c-50.06-28.9-111.75-28.9-161.81,0l-360.1,207.9Z"/>
</svg>