<?xml version="1.0" encoding="UTF-8"?>
<svg id="_Слой_1" data-name="Слой 1" xmlns="http://www.w3.org/2000/svg" xmlns:xlink="http://www.w3.org/1999/xlink" viewBox="0 0 1700.79 1133.86">
  <defs>
    <style>
      .cls-1 {
        fill: url(#_Новый_образец_градиента_4);
      }

      .cls-2 {
        fill: url(#_Новый_образец_градиента_3);
      }

      .cls-3 {
        fill: url(#_Новый_образец_градиента_2);
      }

      .cls-4 {
        fill: url(#_Новый_образец_градиента_2-2);
      }

      .cls-5 {
        fill: url(#_Новый_образец_градиента_2-5);
      }

      .cls-6 {
        fill: url(#_Новый_образец_градиента_2-6);
      }

      .cls-7 {
        fill: url(#_Новый_образец_градиента_2-4);
      }

      .cls-8 {
        fill: url(#_Новый_образец_градиента_2-3);
      }

      .cls-9 {
        fill: url(#_Новый_образец_градиента_2-8);
      }

      .cls-10 {
        fill: url(#_Новый_образец_градиента_2-9);
      }

      .cls-11 {
        fill: url(#_Новый_образец_градиента_2-7);
      }

      .cls-12 {
        fill: url(#_Новый_образец_градиента_4-2);
      }

      .cls-13 {
        fill: url(#_Новый_образец_градиента_4-3);
      }

      .cls-14 {
        fill: url(#_Безымянный_градиент_125);
      }

      .cls-15 {
        fill: url(#_Безымянный_градиент_151);
      }

      .cls-16 {
        fill: #352381;
      }

      .cls-17 {
        fill: #fff;
      }

      .cls-18 {
        fill: #f274fa;
      }

      .cls-19 {
        fill: url(#_Безымянный_градиент_125-2);
      }

      .cls-20 {
        fill: url(#_Безымянный_градиент_125-3);
      }

      .cls-21 {
        fill: url(#_Новый_образец_градиента_2-12);
      }

      .cls-22 {
        fill: url(#_Новый_образец_градиента_2-13);
      }

      .cls-23 {
        fill: url(#_Новый_образец_градиента_2-10);
      }

      .cls-24 {
        fill: url(#_Новый_образец_градиента_2-11);
      }

      .cls-25 {
        fill: #9f73f9;
      }
    </style>
    <radialGradient id="_Безымянный_градиент_125" data-name="Безымянный градиент 125" cx="698.51" cy="539.38" fx="698.51" fy="539.38" r="110.59" gradientTransform="translate(0 326.05) scale(1 .93)" gradientUnits="userSpaceOnUse">
      <stop offset="0" stop-color="#f274fa"/>
      <stop offset=".09" stop-color="#f278fa" stop-opacity=".96"/>
      <stop offset=".23" stop-color="#f386fa" stop-opacity=".87"/>
      <stop offset=".4" stop-color="#f59cfb" stop-opacity=".71"/>
      <stop offset=".61" stop-color="#f8bbfc" stop-opacity=".49"/>
      <stop offset=".84" stop-color="#fce2fd" stop-opacity=".21"/>
      <stop offset="1" stop-color="#fff" stop-opacity="0"/>
    </radialGradient>
    <radialGradient id="_Безымянный_градиент_151" data-name="Безымянный градиент 151" cx="1013.31" cy="-44.26" fx="1013.31" fy="-44.26" r="114.21" gradientTransform="translate(-496.54 995.7) scale(1.09 .81)" gradientUnits="userSpaceOnUse">
      <stop offset="0" stop-color="#f274fa"/>
      <stop offset="1" stop-color="#fff" stop-opacity="0"/>
    </radialGradient>
    <linearGradient id="_Новый_образец_градиента_4" data-name="Новый образец градиента 4" x1="1688.35" y1="9711.74" x2="2293.07" y2="9562.12" gradientTransform="translate(2902.49 -8567.24) rotate(26.19)" gradientUnits="userSpaceOnUse">
      <stop offset="0" stop-color="#895ce6"/>
      <stop offset="1" stop-color="#f274fa"/>
    </linearGradient>
    <linearGradient id="_Новый_образец_градиента_2" data-name="Новый образец градиента 2" x1="-1167.82" y1="885.52" x2="-468.44" y2="860.28" gradientTransform="translate(1315.25 87.32) rotate(10.64)" gradientUnits="userSpaceOnUse">
      <stop offset="0" stop-color="#9f73f9"/>
      <stop offset="1" stop-color="#f274fa"/>
    </linearGradient>
    <radialGradient id="_Безымянный_градиент_125-2" data-name="Безымянный градиент 125" cx="1068.83" cy="-279.86" fx="1068.83" fy="-279.86" r="139" gradientTransform="translate(0 704.5) scale(1 .83)" xlink:href="#_Безымянный_градиент_125"/>
    <radialGradient id="_Безымянный_градиент_125-3" data-name="Безымянный градиент 125" cx="924.13" cy="417.17" fx="924.13" fy="417.17" r="100.93" gradientTransform="translate(0 425.15) scale(1 .9)" xlink:href="#_Безымянный_градиент_125"/>
    <linearGradient id="_Новый_образец_градиента_3" data-name="Новый образец градиента 3" x1="976.19" y1="784.8" x2="724.6" y2="349.05" gradientUnits="userSpaceOnUse">
      <stop offset="0" stop-color="#1b1243"/>
      <stop offset="1" stop-color="#352381"/>
    </linearGradient>
    <linearGradient id="_Новый_образец_градиента_2-2" data-name="Новый образец градиента 2" x1="232.87" y1="1293.19" x2="806.98" y2="884.5" gradientTransform="matrix(1,0,0,1,0,0)" xlink:href="#_Новый_образец_градиента_2"/>
    <linearGradient id="_Новый_образец_градиента_2-3" data-name="Новый образец градиента 2" x1="819.79" y1="841.53" x2="1192.75" y2="629.11" gradientTransform="matrix(1,0,0,1,0,0)" xlink:href="#_Новый_образец_градиента_2"/>
    <linearGradient id="_Новый_образец_градиента_2-4" data-name="Новый образец градиента 2" x1="560.77" y1="527.03" x2="965.1" y2="292.44" gradientTransform="matrix(1,0,0,1,0,0)" xlink:href="#_Новый_образец_градиента_2"/>
    <linearGradient id="_Новый_образец_градиента_2-5" data-name="Новый образец градиента 2" x1="560.8" y1="527.08" x2="965.12" y2="292.48" gradientTransform="matrix(1,0,0,1,0,0)" xlink:href="#_Новый_образец_градиента_2"/>
    <linearGradient id="_Новый_образец_градиента_2-6" data-name="Новый образец градиента 2" x1="560.82" y1="527.12" x2="965.15" y2="292.52" gradientTransform="matrix(1,0,0,1,0,0)" xlink:href="#_Новый_образец_градиента_2"/>
    <linearGradient id="_Новый_образец_градиента_2-7" data-name="Новый образец градиента 2" x1="560.85" y1="527.16" x2="965.17" y2="292.57" gradientTransform="matrix(1,0,0,1,0,0)" xlink:href="#_Новый_образец_градиента_2"/>
    <linearGradient id="_Новый_образец_градиента_2-8" data-name="Новый образец градиента 2" x1="560.69" y1="526.9" x2="965.02" y2="292.3" gradientTransform="matrix(1,0,0,1,0,0)" xlink:href="#_Новый_образец_градиента_2"/>
    <linearGradient id="_Новый_образец_градиента_2-9" data-name="Новый образец градиента 2" x1="549.45" y1="532.52" x2="887.85" y2="336.17" gradientTransform="matrix(1,0,0,1,0,0)" xlink:href="#_Новый_образец_градиента_2"/>
    <linearGradient id="_Новый_образец_градиента_2-10" data-name="Новый образец градиента 2" x1="943.67" y1="768.72" x2="1207.16" y2="618.64" gradientTransform="matrix(1,0,0,1,0,0)" xlink:href="#_Новый_образец_градиента_2"/>
    <linearGradient id="_Новый_образец_градиента_2-11" data-name="Новый образец градиента 2" x1="1783.58" y1="175.57" x2="1081.44" y2="431.77" gradientTransform="matrix(1,0,0,1,0,0)" xlink:href="#_Новый_образец_градиента_2"/>
    <linearGradient id="_Новый_образец_градиента_2-12" data-name="Новый образец градиента 2" x1="1743.78" y1="66.52" x2="1041.65" y2="322.73" gradientTransform="matrix(1,0,0,1,0,0)" xlink:href="#_Новый_образец_градиента_2"/>
    <linearGradient id="_Новый_образец_градиента_4-2" data-name="Новый образец градиента 4" x1="1732.64" y1="139.83" x2="1083.41" y2="376.73" gradientTransform="matrix(1,0,0,1,0,0)" xlink:href="#_Новый_образец_градиента_4"/>
    <linearGradient id="_Новый_образец_градиента_4-3" data-name="Новый образец градиента 4" x1="1794.46" y1="404.17" x2="1273.18" y2="594.39" gradientTransform="matrix(1,0,0,1,0,0)" xlink:href="#_Новый_образец_градиента_4"/>
    <linearGradient id="_Новый_образец_градиента_2-13" data-name="Новый образец градиента 2" x1="1760.58" y1="235.49" x2="1408.27" y2="147.85" gradientTransform="matrix(1,0,0,1,0,0)" xlink:href="#_Новый_образец_градиента_2"/>
  </defs>
  <rect class="cls-17" width="1700.79" height="1133.86"/>
  <ellipse class="cls-14" cx="698.51" cy="825.21" rx="110.59" ry="102.34"/>
  <ellipse class="cls-15" cx="609.23" cy="959.94" rx="124.63" ry="92.26"/>
  <path class="cls-1" d="M636.8,854.6c-69.41-48.18-172.71,15.62-243.97-20.35-64.07-32.34-61.87-55.95-109.9-108.01-37.89-41.06-109.6-38.9-134.47,7.95-29.2,55.02,9.37,105.95-4.46,156.49-9.71,35.51-44.44,57.23-52.11,96.05-22.98,116.32,105.58,174.85,186.58,99.69,58.98-54.72,2.3-118.28,48.49-137.92,47.37-20.14,62.15,108.51,138.9,99.86,30.02-3.38,53.88-58.55,86.21-69.56,36.56-12.44,106.39,50.4,135.72.15,20.47-35.06,9.55-82.33-51.01-124.36Z"/>
  <path class="cls-18" d="M299.38,732.73l-7.91,4.57c-1.63.94-2.64,2.68-2.64,4.56v9.13s0,9.13,0,9.13c0,1.88,1,3.62,2.64,4.56l7.91,4.57,7.91,4.57c1.63.94,3.64.94,5.27,0l7.91-4.57,7.91-4.57c1.63-.94,2.64-2.68,2.64-4.56v-9.13s0-9.13,0-9.13c0-1.88-1-3.62-2.64-4.56l-7.91-4.57-7.91-4.57c-1.63-.94-3.64-.94-5.27,0l-7.91,4.57Z"/>
  <path class="cls-18" d="M297.44,1084.6c-2.63,0-5.25-.68-7.59-2.03l-28.66-16.55c-4.68-2.71-7.59-7.74-7.59-13.15v-33.1c0-5.41,2.91-10.45,7.59-13.15l28.66-16.55c4.68-2.7,10.5-2.7,15.19,0l28.66,16.55c4.68,2.7,7.59,7.74,7.59,13.15v33.1c0,5.41-2.91,10.45-7.59,13.15l-28.67,16.55c-2.34,1.35-4.97,2.03-7.59,2.03ZM297.44,997.77c-.94,0-1.89.24-2.73.73l-28.66,16.55c-1.68.97-2.73,2.78-2.73,4.72v33.1c0,1.94,1.05,3.75,2.73,4.73l28.66,16.55c1.68.97,3.78.97,5.46,0l28.67-16.55c1.68-.97,2.73-2.78,2.73-4.72v-33.1c0-1.94-1.05-3.75-2.73-4.72l-28.66-16.55c-.84-.49-1.78-.73-2.73-.73Z"/>
  <path class="cls-3" d="M276.4,789.69c-37.75-69.42-149.01-20.61-188.72-98.4-36.86-72.19-48.57-81.65-69.16-95.91-5.12-3.55-11.44-6.76-18.52-9.3v259.74c32.94-7.78,79.74-32.32,107.08,24.18,14.38,29.72,37.38,46,59.85,51.56,20.45,5.07,65.69,6.5,94.51-21.96,24.48-24.17,34.25-74.46,14.96-109.91Z"/>
  <path class="cls-18" d="M96.16,939.22l-7.91,4.57c-1.63.94-2.64,2.68-2.64,4.56v9.13s0,9.13,0,9.13c0,1.88,1,3.62,2.64,4.56l7.91,4.57,7.91,4.57c1.63.94,3.64.94,5.27,0l7.91-4.57,7.91-4.57c1.63-.94,2.64-2.68,2.64-4.56v-9.13s0-9.13,0-9.13c0-1.88-1-3.62-2.64-4.56l-7.91-4.57-7.91-4.57c-1.63-.94-3.64-.94-5.27,0l-7.91,4.57Z"/>
  <path class="cls-25" d="M36.26,874.36l-28.67-16.55c-2.33-1.35-4.96-2.02-7.59-2.02v9.72c.94,0,1.89.25,2.72.72l28.67,16.55c1.69.97,2.72,2.79,2.72,4.72v33.1c0,1.95-1.05,3.75-2.72,4.72l-28.67,16.55c-.84.49-1.78.74-2.72.74v9.72c2.63,0,5.25-.68,7.59-2.03l28.67-16.55c4.68-2.7,7.59-7.74,7.59-13.15v-33.1c0-5.41-2.91-10.44-7.59-13.15Z"/>
  <path class="cls-25" d="M423.58,771.23l-10.26,5.92c-2.11,1.22-3.42,3.48-3.42,5.92v11.84s0,11.84,0,11.84c0,2.44,1.3,4.7,3.42,5.92l10.26,5.92,10.26,5.92c2.11,1.22,4.72,1.22,6.84,0l10.26-5.92,10.26-5.92c2.11-1.22,3.42-3.48,3.42-5.92v-11.84s0-11.84,0-11.84c0-2.44-1.3-4.7-3.42-5.92l-10.26-5.92-10.26-5.92c-2.11-1.22-4.72-1.22-6.84,0l-10.26,5.92Z"/>
  <ellipse class="cls-19" cx="1068.83" cy="473.45" rx="139" ry="114.75"/>
  <ellipse class="cls-20" cx="924.13" cy="801.64" rx="100.93" ry="91.09"/>
  <path class="cls-2" d="M724.6,349.05l-102.71,59.3c-14.28,8.24-23.08,23.48-23.08,39.97v118.6s0,118.6,0,118.6c0,16.49,8.8,31.73,23.08,39.97l102.71,59.3,102.71,59.3c14.28,8.24,31.87,8.24,46.15,0l102.71-59.3,102.71-59.3c14.28-8.24,23.08-23.48,23.08-39.97v-118.6s0-118.6,0-118.6c0-16.49-8.8-31.73-23.08-39.97l-102.71-59.3-102.71-59.3c-14.28-8.24-31.87-8.24-46.15,0l-102.71,59.3Z"/>
  <path class="cls-4" d="M966.43,756.56c-27.89-20.51-107.01,13.23-78.54,65.53,12.86,23.63,69.88,26.15,84.92-12.58,5.63-14.52,9.91-40.96-6.38-52.95Z"/>
  <path class="cls-18" d="M745.3,768.22c-20.35-9.87-24.77-27.68-28.9-37.42-7.48-17.68-31.88-40.16-63.76-30.09-13.25,4.19-26.49,17.24-29.31,41.83-4.29,37.45-52.08,45.2-73.57,51.85-15.16,4.7-32.56,20.53-29.73,43.98,3.36,27.91,36.26,52.31,75.3,23.61,30.14-22.15,54.42-35,81.11-11.6,31.74,27.83,88.91,33.93,105.79-.37,14.33-29.1,8.72-59.64-36.94-81.79Z"/>
  <path class="cls-25" d="M1101.98,952.33c-3.49,0-6.98-.9-10.09-2.69l-45.08-26.03c-6.22-3.59-10.09-10.29-10.09-17.47v-52.06c0-7.19,3.87-13.88,10.09-17.47l45.08-26.03c6.22-3.59,13.96-3.59,20.18,0l45.08,26.03c6.22,3.59,10.09,10.29,10.09,17.47v52.06c0,7.19-3.87,13.88-10.09,17.47l-45.08,26.03c-3.11,1.8-6.6,2.69-10.09,2.69ZM1101.98,817.6c-1.81,0-3.61.46-5.22,1.4l-45.08,26.03c-3.22,1.86-5.22,5.33-5.22,9.05v52.06c0,3.72,2,7.19,5.22,9.05l45.08,26.03c3.22,1.86,7.23,1.86,10.45,0l45.08-26.03c3.22-1.86,5.22-5.33,5.22-9.05v-52.06c0-3.72-2-7.19-5.22-9.05l-45.08-26.03c-1.61-.93-3.42-1.4-5.22-1.4Z"/>
  <path class="cls-25" d="M1173.49,673.88l-13.07,7.54c-2.69,1.56-4.35,4.43-4.35,7.54v15.09s0,15.09,0,15.09c0,3.11,1.66,5.99,4.35,7.54l13.07,7.54,13.07,7.54c2.69,1.56,6.01,1.56,8.71,0l13.07-7.54,13.07-7.54c2.69-1.56,4.35-4.43,4.35-7.54v-15.09s0-15.09,0-15.09c0-3.11-1.66-5.99-4.35-7.54l-13.07-7.54-13.07-7.54c-2.69-1.56-6.01-1.56-8.71,0l-13.07,7.54Z"/>
  <path class="cls-25" d="M642.86,297.53c-2.63,0-5.25-.68-7.59-2.03l-28.66-16.55c-4.68-2.71-7.59-7.74-7.59-13.15v-33.1c0-5.41,2.91-10.45,7.59-13.15l28.66-16.55c4.68-2.7,10.5-2.7,15.19,0l28.66,16.55c4.68,2.7,7.59,7.74,7.59,13.15v33.1c0,5.41-2.91,10.45-7.59,13.15l-28.67,16.55c-2.34,1.35-4.97,2.03-7.59,2.03ZM642.86,210.7c-.94,0-1.89.24-2.73.73l-28.66,16.55c-1.68.97-2.73,2.78-2.73,4.72v33.1c0,1.94,1.05,3.75,2.73,4.73l28.66,16.55c1.68.97,3.78.97,5.46,0l28.67-16.55c1.68-.97,2.73-2.78,2.73-4.72v-33.1c0-1.94-1.05-3.75-2.73-4.72l-28.66-16.55c-.84-.49-1.78-.73-2.73-.73Z"/>
  <path class="cls-16" d="M722.34,305.94l7.7-30.3c.32-1.26,1.62-2.01,2.88-1.65l18.59,5.33c1.26.36,2.56-.39,2.88-1.66l4.68-18.76c.32-1.27,1.62-2.02,2.88-1.66l18.59,5.33c1.26.36,2.56-.39,2.88-1.66l4.68-18.76c.32-1.27,1.62-2.02,2.88-1.66l18.59,5.33c1.26.36,2.56-.39,2.88-1.66l4.68-18.76c.32-1.27,1.62-2.02,2.88-1.66l18.59,5.33c1.26.36,2.56-.39,2.88-1.66l4.68-18.76c.32-1.27,1.62-2.02,2.87-1.67l29.29,8.26c1.09.31,1.8,1.37,1.67,2.49l-.89,7.57c-.17,1.42-1.56,2.35-2.93,1.95l-18.48-5.3c-1.26-.36-2.56.39-2.88,1.66l-4.68,18.76c-.32,1.27-1.62,2.02-2.88,1.66l-18.59-5.33c-1.26-.36-2.56.39-2.88,1.66l-4.68,18.76c-.32,1.27-1.62,2.02-2.88,1.66l-18.59-5.33c-1.26-.36-2.56.39-2.88,1.66l-4.68,18.76c-.32,1.27-1.62,2.02-2.88,1.66l-18.59-5.33c-1.26-.36-2.56.39-2.88,1.66l-4.68,18.76c-.32,1.27-1.62,2.02-2.88,1.66l-18.59-5.33c-1.26-.36-2.56.39-2.88,1.66l-4.67,18.74c-.32,1.3-1.67,2.05-2.95,1.64l-7.19-2.29c-1.17-.37-1.84-1.59-1.54-2.77Z"/>
  <path class="cls-16" d="M883.99,924.64l7.8-30.66c.32-1.25,1.61-1.99,2.84-1.63l18.64,5.34c1.24.36,2.53-.39,2.85-1.64l4.69-18.81c.31-1.25,1.6-2,2.85-1.64l18.64,5.34c1.24.36,2.53-.39,2.85-1.64l4.69-18.82c.31-1.25,1.6-2,2.84-1.65l30.1,8.48c1.16.33,1.87,1.5,1.62,2.67l-1.58,7.44c-.27,1.3-1.59,2.09-2.86,1.72l-18.61-5.34c-1.24-.36-2.53.39-2.85,1.64l-4.69,18.81c-.31,1.25-1.6,2-2.85,1.64l-18.64-5.34c-1.24-.36-2.53.39-2.85,1.64l-4.69,18.81c-.31,1.25-1.6,2-2.85,1.64l-18.64-5.34c-1.24-.36-2.53.39-2.85,1.64l-4.69,18.82c-.31,1.25-1.59,1.99-2.83,1.65l-7.32-2.03c-1.2-.33-1.91-1.56-1.6-2.77Z"/>
  <path class="cls-16" d="M567.18,338.82l-7.91,4.57c-1.63.94-2.64,2.68-2.64,4.56v9.13s0,9.13,0,9.13c0,1.88,1,3.62,2.64,4.56l7.91,4.57,7.91,4.57c1.63.94,3.64.94,5.27,0l7.91-4.57,7.91-4.57c1.63-.94,2.64-2.68,2.64-4.56v-9.13s0-9.13,0-9.13c0-1.88-1-3.62-2.64-4.56l-7.91-4.57-7.91-4.57c-1.63-.94-3.64-.94-5.27,0l-7.91,4.57Z"/>
  <path class="cls-25" d="M585.14,615.12l-10.26,5.92c-2.11,1.22-3.42,3.48-3.42,5.92v11.84s0,11.84,0,11.84c0,2.44,1.3,4.7,3.42,5.92l10.26,5.92,10.26,5.92c2.11,1.22,4.72,1.22,6.84,0l10.26-5.92,10.26-5.92c2.11-1.22,3.42-3.48,3.42-5.92v-11.84s0-11.84,0-11.84c0-2.44-1.3-4.7-3.42-5.92l-10.26-5.92-10.26-5.92c-2.11-1.22-4.72-1.22-6.84,0l-10.26,5.92Z"/>
  <polygon class="cls-16" points="1130.47 730.7 1130.47 716.21 1064.81 754.12 1077.35 761.36 1130.47 730.7"/>
  <polygon class="cls-17" points="706.75 813.08 822.38 746.33 798.72 732.67 683.09 799.42 706.75 813.08"/>
  <polygon class="cls-8" points="803.2 858.73 946.93 775.75 934.39 768.51 790.66 851.49 803.2 858.73"/>
  <g>
    <polygon class="cls-7" points="985.35 273.44 997.89 280.68 987.49 286.7 974.95 279.45 985.35 273.44"/>
    <polygon class="cls-5" points="1005.18 261.99 1017.72 269.24 1007.31 275.25 994.77 268 1005.18 261.99"/>
    <polygon class="cls-6" points="1025.01 250.54 1037.55 257.79 1027.15 263.8 1014.6 256.56 1025.01 250.54"/>
    <polygon class="cls-11" points="1057.32 246.37 1046.98 252.34 1034.44 245.11 1044.78 239.13 1057.32 246.37"/>
    <polygon class="cls-9" points="878.89 349.4 958.23 303.58 967.66 298.14 978.06 292.13 965.51 284.9 955.12 290.9 945.68 296.35 866.34 342.15 878.89 349.4"/>
  </g>
  <polygon class="cls-17" points="722.32 439.79 787.9 401.93 775.36 394.68 709.78 432.55 722.32 439.79"/>
  <polygon class="cls-17" points="1060.05 695.95 1004.51 728.02 1004.51 742.51 1072.59 703.2 1060.05 695.95"/>
  <polygon class="cls-18" points="462.88 657.22 691.97 524.95 668.31 511.29 439.22 643.56 462.88 657.22"/>
  <polygon class="cls-10" points="700.35 437.99 496.74 555.55 496.74 570.03 712.89 445.23 700.35 437.99"/>
  <polygon class="cls-23" points="1069.47 690.51 1082.02 697.75 1247.02 602.49 1234.47 595.25 1069.47 690.51"/>
  <g>
    <path class="cls-24" d="M1343.52,312.51c-10.97-33.05-61.21-37.74-83.91-22.13-32.85,22.58-26.11,58.17-55.55,65.04-39.65,9.23-40.94-41.13-77.19-38.75-40.11,2.65-22.77,54.76-72.24,58.15-29.41,2.01-52.99,14.18-62.63,32.48-7.92,15.04-16.89,42.94-2.88,76.28,11.9,28.32,50.51,52.79,86.3,48.58,70.1-8.23,56.12-106.97,133.81-114.04,72.1-6.56,83.84-13.14,102.5-25.46,20.1-13.28,42.64-47.44,31.78-80.15Z"/>
    <path class="cls-21" d="M1177.14,262.97c-12.72-11.22-30.11-5.91-38.4,6.69-7.29,11.08-6.19,28.84,10.04,33.1,12.15,3.19,25.36-3.73,31.64-15.42,3.45-6.41,4.27-17.72-3.29-24.38Z"/>
    <path class="cls-12" d="M1632.86,25.08c-77.36,26.3-55.33,68.83-121.28,105.23-50.05,27.62-175.68-14.59-206.25,59.74-14.44,35.11,1.88,78.87,41.19,88.08,40.89,9.59,83.41-30.05,127.02.94,34.64,24.62,42.09,58.43,85.49,65.95,42.16,7.3,65.71-22.89,75.91-59.1,7.33-26.03,20.05-63.64,50.84-81.44,4.4-2.54,9.48-5.03,14.99-7.61V19.5c-21.46-3.94-44.86-2.26-67.92,5.58Z"/>
    <path class="cls-13" d="M1620.48,489.09c14.85,19.78,47.21,31.94,80.3,31.31v-162.32c-61.34,12.35-126.94,68.89-80.3,131.02Z"/>
  </g>
  <path class="cls-18" d="M1388.99,126.35l-7.91,4.57c-1.63.94-2.64,2.68-2.64,4.56v9.13s0,9.13,0,9.13c0,1.88,1,3.62,2.64,4.56l7.91,4.57,7.91,4.57c1.63.94,3.64.94,5.27,0l7.91-4.57,7.91-4.57c1.63-.94,2.64-2.68,2.64-4.56v-9.13s0-9.13,0-9.13c0-1.88-1-3.62-2.64-4.56l-7.91-4.57-7.91-4.57c-1.63-.94-3.64-.94-5.27,0l-7.91,4.57Z"/>
  <path class="cls-18" d="M1700.79,334.57v47.05c-.91,0-1.83-.24-2.64-.7l-7.9-4.56-7.91-4.56c-1.63-.94-2.64-2.68-2.64-4.56v-18.27c0-1.88,1.01-3.62,2.64-4.56l7.91-4.56,7.9-4.56c.81-.47,1.73-.7,2.64-.7Z"/>
  <path class="cls-22" d="M1620.82,146.94c-62.96-35.73-82.19-42.05-104.55-42.57-24.08-.55-63.18,17.95-65.97,52.73-3.22,40.05,28.74,65.91,56.29,66.04,39.87.18,54.63-32.9,82.72-21.74,37.84,15.03,10.16,57.14,41.31,75.85,27.68,16.63,43.1-14.1,70.16-13.64v-118.8c-24.49,11.24-49.98,19.15-79.97,2.13Z"/>
  <path class="cls-18" d="M1532.13,402.41c-2.63,0-5.25-.68-7.59-2.03l-28.66-16.55c-4.68-2.71-7.59-7.74-7.59-13.15v-33.1c0-5.41,2.91-10.45,7.59-13.15l28.66-16.55c4.68-2.7,10.5-2.7,15.19,0l28.66,16.55c4.68,2.7,7.59,7.74,7.59,13.15v33.1c0,5.41-2.91,10.45-7.59,13.15l-28.67,16.55c-2.34,1.35-4.97,2.03-7.59,2.03ZM1532.13,315.58c-.94,0-1.89.24-2.73.73l-28.66,16.55c-1.68.97-2.73,2.78-2.73,4.72v33.1c0,1.94,1.05,3.75,2.73,4.73l28.66,16.55c1.68.97,3.78.97,5.46,0l28.67-16.55c1.68-.97,2.73-2.78,2.73-4.72v-33.1c0-1.94-1.05-3.75-2.73-4.72l-28.66-16.55c-.84-.49-1.78-.73-2.73-.73Z"/>
</svg>